<svg id="Layer_1" data-name="Layer 1" xmlns="http://www.w3.org/2000/svg" viewBox="0 0 200 200"><defs><style>.cls-1{fill:#005e98;}</style></defs><title>ACWA_Power_iconography_</title><path class="cls-1" d="M194,197H6a3,3,0,0,1-3-3V70.78a3,3,0,0,1,3-3H194a3,3,0,0,1,3,3V194A3,3,0,0,1,194,197ZM9,191H191V73.78H9Z"/><path class="cls-1" d="M194,132.36H7a3,3,0,1,1,0-6H194a3,3,0,0,1,0,6Z"/><rect class="cls-1" x="50.91" y="110.47" width="16.71" height="37.6" rx="8" ry="8"/><rect class="cls-1" x="131.33" y="110.47" width="16.71" height="37.6" rx="8" ry="8"/><path class="cls-1" d="M135.51,70.64a3,3,0,0,1-3-3V55H64.36V67.64a3,3,0,0,1-6,0V52a3,3,0,0,1,3-3h74.15a3,3,0,0,1,3,3V67.64A3,3,0,0,1,135.51,70.64Z"/></svg>