<svg xmlns="http://www.w3.org/2000/svg" viewBox="0 0 20 20">
  <title>ap</title>
  <g>
    <path d="M12.64,20H7.5a.3.3,0,0,1-.29-.23L6,15.23H5.54a1.82,1.82,0,0,1,0-3.64h0A1.82,1.82,0,0,1,7,8.65h6a1.82,1.82,0,0,1,1.43,2.94h0a1.82,1.82,0,0,1,0,3.64H14l-1.07,4.54A.3.3,0,0,1,12.64,20Zm-4.91-.61H12.4l1.07-4.54a.3.3,0,0,1,.29-.23h.69a1.21,1.21,0,0,0,0-2.43h-.95a.3.3,0,0,1-.11-.59,1.23,1.23,0,0,0,.44-.28A1.21,1.21,0,0,0,13,9.25H7A1.22,1.22,0,0,0,5.8,10.47a1.22,1.22,0,0,0,.8,1.14.3.3,0,0,1-.11.59H5.54a1.21,1.21,0,0,0,0,2.43h.69a.3.3,0,0,1,.29.23Z"/>
    <path d="M13.59,12.19H9.18a.3.3,0,1,1,0-.61h4.4a.3.3,0,1,1,0,.61Z"/>
    <path d="M13.91,15.25H6.25a.3.3,0,0,1,0-.61h7.66a.3.3,0,0,1,0,.61Z"/>
    <path d="M10,18.67a.3.3,0,0,1-.3-.3V15.84a.3.3,0,0,1,.61,0v2.53A.3.3,0,0,1,10,18.67Z"/>
    <path d="M11.26,18.67h-.08a.3.3,0,0,1-.21-.38l.73-2.53a.3.3,0,1,1,.58.17l-.73,2.53A.3.3,0,0,1,11.26,18.67Z"/>
    <path d="M8.53,18.67a.3.3,0,0,1-.29-.22l-.73-2.53a.3.3,0,1,1,.58-.17l.73,2.53a.3.3,0,0,1-.21.38Z"/>
    <path d="M9,9.25a.3.3,0,0,1-.3-.3V5.57a.3.3,0,0,1,.3-.3h2a.3.3,0,0,1,.3.3V8.91a.3.3,0,1,1-.61,0v-3H9.28V9A.3.3,0,0,1,9,9.25Z"/>
    <path d="M10.69,4.91a.3.3,0,0,1-.15-.57.8.8,0,0,0,.4-.53c.22-.85-.46-2.29-.89-3.05A2.62,2.62,0,0,0,9.22,3a4.31,4.31,0,0,0,.4,1.45.3.3,0,0,1-.54.28S7.59,1.82,9.95.06a.3.3,0,0,1,.44.08c.06.1,1.51,2.39,1.15,3.82a1.39,1.39,0,0,1-.7.91A.3.3,0,0,1,10.69,4.91Z"/>
  </g>
</svg>
