<svg xmlns="http://www.w3.org/2000/svg" viewBox="0 0 20 20">
  <title>ap</title>
  <path d="M9.85,19a6.58,6.58,0,0,1-6.57-6.57c0-1.5,1.06-4,3.15-7.51.83-1.38,1.63-2.59,2.15-3.37C9.63,0,9.65,0,9.85,0s.21,0,1.27,1.55c.53.77,1.33,2,2.15,3.37,2.09,3.49,3.15,6,3.15,7.51A6.58,6.58,0,0,1,9.85,19ZM9.85.86C8.69,2.46,3.92,9.51,3.92,12.43a5.92,5.92,0,1,0,11.85,0C15.77,9.51,11,2.46,9.85.86Z"/>
  <path d="M9.85,15.69a3.5,3.5,0,0,1-1.91-.57.32.32,0,1,1,.35-.54,2.86,2.86,0,0,0,4.42-2.4,2.82,2.82,0,0,0-.18-.85.32.32,0,0,1,.61-.21,3.39,3.39,0,0,1,.21,1.06A3.51,3.51,0,0,1,9.85,15.69Z"/>
</svg>
