<svg xmlns="http://www.w3.org/2000/svg" viewBox="0 0 20 20">
  <title>ap</title>
  <g>
    <path d="M13.81,6.93a.3.3,0,0,1-.22-.1l-3-3.29a.3.3,0,0,1,0-.42l3.31-3a.3.3,0,0,1,.4.44L11.2,3.36,14,6.44a.3.3,0,0,1-.22.5Z"/>
    <path d="M11.52,20a8.43,8.43,0,0,1-2.94-.53.3.3,0,1,1,.21-.56A7.87,7.87,0,1,0,11.52,3.67a.3.3,0,1,1,0-.59,8.46,8.46,0,0,1,0,16.92Z"/>
    <path d="M11.94,17.72H.65a.3.3,0,0,1-.3-.3V7.48a.3.3,0,0,1,.3-.3H11.94a.3.3,0,0,1,.3.3v9.95A.3.3,0,0,1,11.94,17.72Zm-11-.59H11.64V7.78H.95Z"/>
    <path d="M4.38,17.72H.65a.3.3,0,0,1-.3-.3V13.69a.3.3,0,0,1,.3-.3H4.38a.3.3,0,0,1,.3.3v3.73A.3.3,0,0,1,4.38,17.72ZM.95,17.12H4.09V14H.95Z"/>
    <path d="M8.13,17.72H4.4a.3.3,0,0,1-.3-.3V13.69a.3.3,0,0,1,.3-.3H8.13a.3.3,0,0,1,.3.3v3.73A.3.3,0,0,1,8.13,17.72Zm-3.44-.59H7.83V14H4.69Z"/>
    <path d="M11.94,17.72H8.2a.3.3,0,0,1-.3-.3V13.69a.3.3,0,0,1,.3-.3h3.73a.3.3,0,0,1,.3.3v3.73A.3.3,0,0,1,11.94,17.72ZM8.5,17.12h3.14V14H8.5Z"/>
    <path d="M4.38,14H.65a.3.3,0,0,1-.3-.3V9.95a.3.3,0,0,1,.3-.3H4.38a.3.3,0,0,1,.3.3v3.73A.3.3,0,0,1,4.38,14ZM.95,13.38H4.09V10.25H.95Z"/>
    <path d="M8.13,14H4.4a.3.3,0,0,1-.3-.3V9.95a.3.3,0,0,1,.3-.3H8.13a.3.3,0,0,1,.3.3v3.73A.3.3,0,0,1,8.13,14Zm-3.44-.59H7.83V10.25H4.69Z"/>
    <path d="M11.94,14H8.2a.3.3,0,0,1-.3-.3V9.95a.3.3,0,0,1,.3-.3h3.73a.3.3,0,0,1,.3.3v3.73A.3.3,0,0,1,11.94,14ZM8.5,13.38h3.14V10.25H8.5Z"/>
    <path d="M4.39,8.76a.3.3,0,0,1-.3-.3V6.14a.3.3,0,0,1,.59,0V8.47A.3.3,0,0,1,4.39,8.76Z"/>
    <path d="M8.2,8.76a.3.3,0,0,1-.3-.3V6.14a.3.3,0,0,1,.59,0V8.47A.3.3,0,0,1,8.2,8.76Z"/>
  </g>
</svg>
