<svg xmlns="http://www.w3.org/2000/svg" viewBox="0 0 20 20">
  <title>ap</title>
  <g>
    <path d="M5,5.12A1.93,1.93,0,1,1,6.94,3.2,1.93,1.93,0,0,1,5,5.12ZM5,1.87A1.33,1.33,0,1,0,6.34,3.2,1.33,1.33,0,0,0,5,1.87Z"/>
    <path d="M6.65,11.62H3.5a.87.87,0,0,1-.87-.87v-.69l-1,1.12a.9.9,0,0,1-1.27.1L.29,11.2a.9.9,0,0,1-.1-1.27l2.6-3.07a2.17,2.17,0,0,1,2-1.33h.46a2.16,2.16,0,0,1,2,1.38l2.56,3a.9.9,0,0,1-.1,1.27h0l-.11.1a.9.9,0,0,1-1.27-.1l-.93-1.1v.79A.74.74,0,0,1,6.65,11.62ZM2.93,8.95,3,9a.3.3,0,0,1,.2.28v1.5A.27.27,0,0,0,3.5,11H6.65a.13.13,0,0,0,.13-.13V9.27a.3.3,0,0,1,.53-.19L8.78,10.8a.3.3,0,0,0,.42,0l.11-.1a.3.3,0,0,0,0-.42L6.75,7.26a.3.3,0,0,1-.05-.09,1.56,1.56,0,0,0-1.46-1H4.78a1.56,1.56,0,0,0-1.45,1,.3.3,0,0,1-.05.09L.65,10.31a.3.3,0,0,0,0,.42l.11.09a.3.3,0,0,0,.42,0L2.7,9.05A.3.3,0,0,1,2.93,8.95Zm6.58,2h0Z"/>
    <path d="M6,18.73H4A1.31,1.31,0,0,1,2.7,17.45V11.71a.3.3,0,0,1,.3-.3H7a.3.3,0,0,1,.3.3v5.74A1.31,1.31,0,0,1,6,18.73ZM3.3,12v5.44a.71.71,0,0,0,.73.68H6a.71.71,0,0,0,.73-.68V12Z"/>
    <path d="M5.06,18.73a.3.3,0,0,1-.3-.3V14.27a.3.3,0,0,1,.6,0v4.16A.3.3,0,0,1,5.06,18.73Z"/>
    <path d="M15,5.12A1.93,1.93,0,1,1,16.94,3.2,1.93,1.93,0,0,1,15,5.12Zm0-3.25A1.33,1.33,0,1,0,16.34,3.2,1.33,1.33,0,0,0,15,1.87Z"/>
    <path d="M16.66,11.62H13.5a.87.87,0,0,1-.87-.87v-.68l-1,1.12a.9.9,0,0,1-1.27.1l-.11-.09a.9.9,0,0,1-.1-1.27l2.6-3.06a2.17,2.17,0,0,1,2-1.33h.46a2.16,2.16,0,0,1,2,1.38l2.56,3a.9.9,0,0,1-.1,1.27h0l-.11.1a.9.9,0,0,1-1.27-.1l-.93-1.1v.79A.74.74,0,0,1,16.66,11.62ZM12.93,8.95,13,9a.3.3,0,0,1,.2.28v1.5a.27.27,0,0,0,.27.27h3.16a.13.13,0,0,0,.13-.13V9.27a.3.3,0,0,1,.53-.19l1.46,1.72a.3.3,0,0,0,.42,0l.11-.1a.3.3,0,0,0,0-.42l-2.6-3.06a.3.3,0,0,1-.05-.09,1.55,1.55,0,0,0-1.46-1h-.46a1.56,1.56,0,0,0-1.45,1,.3.3,0,0,1-.05.09l-2.63,3.1a.3.3,0,0,0,0,.42l.11.09a.3.3,0,0,0,.42,0L12.7,9.05A.3.3,0,0,1,12.93,8.95Zm6.58,2h0Z"/>
    <path d="M16,18.73H14a1.31,1.31,0,0,1-1.33-1.28V11.71a.3.3,0,0,1,.3-.3h4a.3.3,0,0,1,.3.3v5.74A1.31,1.31,0,0,1,16,18.73ZM13.31,12v5.44a.71.71,0,0,0,.73.68H16a.71.71,0,0,0,.73-.68V12Z"/>
    <path d="M15.06,18.73a.3.3,0,0,1-.3-.3V14.27a.3.3,0,0,1,.6,0v4.16A.3.3,0,0,1,15.06,18.73Z"/>
  </g>
</svg>
