<svg xmlns="http://www.w3.org/2000/svg" viewBox="0 0 20 20">
<g>
	<path d="M20,0.3C20,0.1,20,0,19.7,0c-6.5,0-13,0-19.5,0C0,0,0,0.1,0,0.3C0,3.5,0,6.8,0,10s0,6.5,0,9.7C0,19.9,0,20,0.3,20
		c6.5,0,13,0,19.5,0c0.2,0,0.2,0,0.2-0.3C20,13.2,20,6.8,20,0.3z M19.3,10c0,3,0,6.1,0,9.1c0,0.2,0,0.2-0.2,0.2
		c-6.1,0-12.2,0-18.3,0c-0.2,0-0.2,0-0.2-0.2c0-6.1,0-12.1,0-18.2c0-0.2,0-0.2,0.2-0.2c6.1,0,12.2,0,18.2,0c0.2,0,0.2,0.1,0.2,0.2
		C19.3,3.9,19.3,7,19.3,10z"/>
	<path d="M17.4,8.8c-2.5,0-5,0-7.4,0c-2.5,0-5,0-7.5,0C2.2,8.8,2.1,9,2.3,9.3c0.8,1.4,1.6,2.8,2.4,4.2c0.2,0.3,0.3,0.3,0.6,0.1
		c0.6-0.4,1.2-0.6,1.9-0.5C8.2,13.3,8.8,14,9,15c0,0.2,0.1,0.3,0.4,0.3c0.6,0,1.2,0,1.8,0c0.4,0,0.4,0,0.4-0.4s0.2-0.7,0.4-1.1
		c0.6-0.8,2.1-1.2,3.1-0.2c0.2,0.2,0.4,0.2,0.5-0.1c0.7-1.4,1.4-2.8,2.1-4.2C17.9,8.9,17.8,8.8,17.4,8.8z M16.3,11.1
		c-0.3,0.6-0.6,1.2-0.9,1.8c-0.1,0.1-0.1,0.2-0.3,0.1c-1.2-0.9-3.6-0.5-4,1.7c0,0.1-0.1,0.2-0.2,0.2c-0.4,0-0.9,0-1.3,0
		c-0.2,0-0.2-0.1-0.2-0.2c-0.3-0.9-0.9-1.6-1.8-1.9c-0.8-0.3-1.6-0.1-2.4,0.4C5.1,13.1,5,13.1,5,13c-0.7-1.2-1.4-2.4-2.1-3.6
		c0,0,0,0,0-0.1c4.8,0,9.5,0,14.3,0C16.8,9.9,16.5,10.5,16.3,11.1z"/>
	<path d="M3.1,8.5c2.3,0,4.6,0,6.9,0c1.9,0,3.8,0,5.7,0c0.4,0,0.9,0,1.3,0c0.3,0,0.4-0.2,0.3-0.4C17.1,7.8,17,7.6,17,7.3
		c0-0.4-0.3-0.6-0.6-0.6c-0.2,0-0.3-0.1-0.4-0.3c-0.2-0.4-0.5-0.6-0.8-0.9c-0.3-0.2-0.6-0.2-1-0.1c-0.2,0.1-0.3,0.1-0.3-0.1l0,0
		c-0.1-0.6-0.5-0.9-1.1-0.9c-0.1,0-0.2-0.1-0.3-0.2C11.7,3.4,10.7,3.3,10,4C9.7,4.2,9.7,4.2,9.5,4C8.9,3.6,8.4,3.6,7.9,4.1
		C7.7,4.3,7.6,4.4,7.5,4.6C7.3,4.8,7.2,4.8,7,4.7C6.4,4.4,5.9,4.6,5.6,5.2c0,0.1-0.1,0.2-0.1,0.2c0,0.1-0.1,0.2-0.3,0.1
		c-0.5-0.2-1,0-1.3,0.6C3.8,6.2,3.8,6.3,3.8,6.4C3.7,6.6,3.6,6.7,3.4,6.7C2.8,6.9,2.5,7.3,2.6,8C2.6,8.4,2.7,8.5,3.1,8.5z M3.1,7.6
		c0.1-0.3,0.3-0.4,0.5-0.4c0.3-0.1,0.5-0.3,0.7-0.6V6.5c0.2-0.6,0.5-0.7,1-0.4C5.6,6.3,5.7,6.3,5.8,6C5.9,5.9,6,5.7,6.1,5.5
		C6.2,5.1,6.4,5,6.8,5.2s0.6,0.2,1-0.2C8,4.8,8.1,4.6,8.3,4.4c0.3-0.3,0.5-0.3,0.9,0s0.7,0.4,1.1,0c0.6-0.5,1.3-0.5,1.8,0.1
		c0.1,0.2,0.3,0.3,0.5,0.3c0.4,0,0.6,0.2,0.7,0.6c0,0.1,0.1,0.3,0.1,0.4C13.5,6.1,13.7,6.1,14,6c0.1,0,0.2-0.1,0.3-0.1
		c0.2-0.1,0.4-0.1,0.6,0.1c0.3,0.2,0.5,0.4,0.7,0.7C15.8,7,16,7.1,16.3,7.2c0.2,0,0.2,0.1,0.3,0.3c0,0.1,0,0.2,0.1,0.3
		C16.8,8,16.7,8,16.5,8c-2.2,0-4.4,0-6.5,0C7.8,8,5.6,8,3.5,8C3,7.9,3,7.9,3.1,7.6z"/>
	<path d="M13.4,13.4c-0.8,0-1.5,0.7-1.5,1.5c0,0.9,0.7,1.5,1.6,1.5c0.8,0,1.5-0.7,1.5-1.5C15,14.1,14.3,13.4,13.4,13.4z M13.4,16
		c-0.6,0-1.1-0.5-1.1-1.1s0.5-1.1,1.1-1.1s1.1,0.5,1.1,1.1S14,16,13.4,16z"/>
	<path d="M6.7,13.4c-0.8,0-1.5,0.7-1.5,1.5s0.7,1.5,1.5,1.5s1.5-0.7,1.5-1.5C8.2,14.1,7.5,13.4,6.7,13.4z M6.7,16
		c-0.6,0-1.1-0.5-1.1-1.1s0.5-1.1,1.1-1.1s1.1,0.5,1.1,1.1C7.8,15.5,7.3,16,6.7,16z"/>
</g>
</svg>
