<svg xmlns="http://www.w3.org/2000/svg" viewBox="0 0 20 20"><title>ap</title><path d="M13.65,6.93a.3.3,0,0,1-.22-.1l-3-3.29a.3.3,0,0,1,0-.42l3.31-3a.3.3,0,0,1,.4.44L11,3.36l2.83,3.08a.3.3,0,0,1-.22.5Z"/><path d="M11.35,20a8.43,8.43,0,0,1-2.94-.53.3.3,0,1,1,.21-.56A7.87,7.87,0,1,0,11.35,3.67a.3.3,0,1,1,0-.59,8.46,8.46,0,0,1,0,16.92Z"/><path d="M11.77,17.72H.48a.3.3,0,0,1-.3-.3V7.48a.3.3,0,0,1,.3-.3H11.77a.3.3,0,0,1,.3.3v9.95A.3.3,0,0,1,11.77,17.72Zm-11-.59H11.47V7.78H.78Z"/><path d="M4.22,17.72H.48a.3.3,0,0,1-.3-.3V13.69a.3.3,0,0,1,.3-.3H4.22a.3.3,0,0,1,.3.3v3.73A.3.3,0,0,1,4.22,17.72ZM.78,17.12H3.92V14H.78Z"/><path d="M8,17.72H4.23a.3.3,0,0,1-.3-.3V13.69a.3.3,0,0,1,.3-.3H8a.3.3,0,0,1,.3.3v3.73A.3.3,0,0,1,8,17.72Zm-3.44-.59H7.67V14H4.53Z"/><path d="M11.77,17.72H8a.3.3,0,0,1-.3-.3V13.69a.3.3,0,0,1,.3-.3h3.73a.3.3,0,0,1,.3.3v3.73A.3.3,0,0,1,11.77,17.72Zm-3.44-.59h3.14V14H8.33Z"/><path d="M4.22,14H.48a.3.3,0,0,1-.3-.3V9.95a.3.3,0,0,1,.3-.3H4.22a.3.3,0,0,1,.3.3v3.73A.3.3,0,0,1,4.22,14ZM.78,13.38H3.92V10.25H.78Z"/><path d="M8,14H4.23a.3.3,0,0,1-.3-.3V9.95a.3.3,0,0,1,.3-.3H8a.3.3,0,0,1,.3.3v3.73A.3.3,0,0,1,8,14Zm-3.44-.59H7.67V10.25H4.53Z"/><path d="M11.77,14H8a.3.3,0,0,1-.3-.3V9.95a.3.3,0,0,1,.3-.3h3.73a.3.3,0,0,1,.3.3v3.73A.3.3,0,0,1,11.77,14Zm-3.44-.59h3.14V10.25H8.33Z"/><path d="M4.22,8.76a.3.3,0,0,1-.3-.3V6.14a.3.3,0,0,1,.59,0V8.47A.3.3,0,0,1,4.22,8.76Z"/><path d="M8,8.76a.3.3,0,0,1-.3-.3V6.14a.3.3,0,0,1,.59,0V8.47A.3.3,0,0,1,8,8.76Z"/></svg>