<svg xmlns="http://www.w3.org/2000/svg" viewBox="0 0 20 20">
  <title>ap</title>
  <g>
    <path d="M5.81,19.73H.34a.3.3,0,1,1,0-.59H5.81a.3.3,0,1,1,0,.59Z"/>
    <path d="M3.07,19.73a.3.3,0,0,1-.3-.3V2.64a.3.3,0,0,1,.59,0V19.43A.3.3,0,0,1,3.07,19.73Z"/>
    <path d="M7.46,14.92H3.59a.3.3,0,0,1,0-.59H7.4a.73.73,0,0,0,.51-.15.77.77,0,0,0,.2-.6V6.19a3.59,3.59,0,0,1-1,.13c-1.31,0-3.78,0-3.81,0a.3.3,0,0,1,0-.59h0s2.49,0,3.79,0c.77,0,1-.16,1-.2a.3.3,0,0,1,.58.1v7.94a1.33,1.33,0,0,1-.41,1A1.27,1.27,0,0,1,7.46,14.92ZM8.11,5.6h0Zm0,0h0Z"/>
    <path d="M4.1,6.25a.3.3,0,0,1-.3-.3V4.16a.3.3,0,0,1,.3-.3H7.24a1.37,1.37,0,0,1,1.06.43,2,2,0,0,1,.41,1.37.3.3,0,0,1-.59-.05,1.38,1.38,0,0,0-.26-.92.79.79,0,0,0-.62-.23H4.4V5.95A.3.3,0,0,1,4.1,6.25Z"/>
    <path d="M15.7,13H8.54a.3.3,0,1,1,0-.59h6.87V4.5L4.1,4.4a.3.3,0,0,1,0-.59h0l11.6.1a.3.3,0,0,1,.29.3v8.46A.3.3,0,0,1,15.7,13Z"/>
    <path d="M3.07,2.94A1.47,1.47,0,1,1,4.54,1.47,1.47,1.47,0,0,1,3.07,2.94Zm0-2.34a.87.87,0,1,0,.87.87A.88.88,0,0,0,3.07.59Z"/>
  </g>
</svg>
