<svg id="Layer_1" data-name="Layer 1" xmlns="http://www.w3.org/2000/svg" viewBox="0 0 20 20"><defs><style>.cls-1{fill:#054d7f;}</style></defs><title>construction</title><path class="cls-1" d="M19.48,14.49c-.18,0-.37,0-.55,0s-.29,0-.31-.25a6.14,6.14,0,0,0-.19-1A8.9,8.9,0,0,0,12.58,6.9c-.37-.13-.51-.25-.5-.65a1.65,1.65,0,0,0-1.52-1.61A1.57,1.57,0,0,0,8.81,5.88c0,.73-.41.91-1,1A.35.35,0,0,0,7.66,7,9.24,9.24,0,0,0,2.1,14.18c0,.25-.1.35-.37.33-.44,0-.87,0-1.31,0a.39.39,0,0,0-.42.4.42.42,0,0,0,.39.45H19.48c.29,0,.52-.11.52-.42S19.78,14.49,19.48,14.49Zm-2,0H3.33c-.35,0-.45-.07-.37-.43A8.29,8.29,0,0,1,8.2,7.67c.52-.21.53-.19.53.36V10.9a2.08,2.08,0,0,0,0,.25c0,.28.17.47.46.44s.4-.19.4-.47V6.37a.83.83,0,1,1,1.65,0c0,1.54,0,3.09,0,4.64,0,.41.13.58.42.59s.43-.2.43-.59V8.11c0-.5,0-.51.49-.33a8.16,8.16,0,0,1,4.34,3.92,7.85,7.85,0,0,1,.84,2.41C17.81,14.41,17.77,14.5,17.44,14.5Z"/></svg>