<svg id="Layer_1" data-name="Layer 1" xmlns="http://www.w3.org/2000/svg" viewBox="0 0 20 20"><defs><style>.cls-1{fill:#044c7e;}</style></defs><title>Coal</title><path class="cls-1" d="M19.44,8.58H.54c-.47,0-.6.21-.36.59L3.24,14.1c.23.38.35.4.74.14a3.14,3.14,0,0,1,2.4-.58,2.65,2.65,0,0,1,2.26,2.21.39.39,0,0,0,.45.35h2.3c.45,0,.5-.06.56-.46a2.54,2.54,0,0,1,.51-1.25,2.93,2.93,0,0,1,4-.27c.28.25.48.22.65-.1l2.73-5C20.06,8.76,19.94,8.58,19.44,8.58Zm-1.5,2.7c-.39.7-.78,1.4-1.16,2.12-.09.16-.14.21-.33.08-1.54-1-4.61-.53-5.12,1.94,0,.14-.07.2-.22.19H9.43c-.19,0-.21-.1-.24-.22a3.22,3.22,0,0,0-2.32-2.26,3.75,3.75,0,0,0-3,.43c-.13.07-.19.1-.27-.05L1,9.29a.29.29,0,0,1,0-.08h18.1Z"/><path class="cls-1" d="M1.23,8.19H18.87c.38,0,.5-.2.34-.52a2.73,2.73,0,0,1-.37-.86A.84.84,0,0,0,18,6.05a.75.75,0,0,1-.52-.35,3.2,3.2,0,0,0-1.07-1,1.17,1.17,0,0,0-1.26-.07c-.31.16-.32.15-.42-.16v0a1.37,1.37,0,0,0-1.37-1.09.51.51,0,0,1-.37-.2,2.13,2.13,0,0,0-3-.23c-.31.27-.35.27-.66,0a1.39,1.39,0,0,0-2,.11c-.2.19-.39.4-.57.6a.47.47,0,0,1-.63.12,1.21,1.21,0,0,0-1.71.62l-.12.26c-.05.17-.14.19-.32.12a1.29,1.29,0,0,0-1.74.6,3.17,3.17,0,0,0-.17.38.62.62,0,0,1-.47.4A1.27,1.27,0,0,0,.56,7.64C.62,8.13.69,8.19,1.23,8.19Zm0-1a.73.73,0,0,1,.62-.5A1.2,1.2,0,0,0,2.69,6a.42.42,0,0,0,0-.1c.29-.72.64-.83,1.33-.43.3.17.43.14.61-.14A4,4,0,0,0,5,4.69c.19-.46.45-.55.94-.35a1,1,0,0,0,1.21-.19c.24-.22.44-.47.68-.69A.72.72,0,0,1,8.93,3.4a1,1,0,0,0,1.41,0,1.47,1.47,0,0,1,2.22.16.89.89,0,0,0,.69.34.85.85,0,0,1,.88.68,2.85,2.85,0,0,0,.16.44.55.55,0,0,0,.78.29,2.43,2.43,0,0,0,.37-.16.57.57,0,0,1,.71.06,3,3,0,0,1,.84.85,1.14,1.14,0,0,0,.91.57.33.33,0,0,1,.33.35.61.61,0,0,0,.08.32c.15.25,0,.26-.21.26H1.5C1.16,7.57,1.13,7.53,1.22,7.23Z"/><path class="cls-1" d="M14.36,14a1.82,1.82,0,1,0,0,3.62,1.89,1.89,0,0,0,1.93-1.82A1.9,1.9,0,0,0,14.36,14Zm0,3.1A1.34,1.34,0,0,1,13,15.81a1.33,1.33,0,0,1,1.39-1.28,1.35,1.35,0,0,1,1.38,1.29A1.37,1.37,0,0,1,14.37,17.1Z"/><path class="cls-1" d="M5.77,14a1.82,1.82,0,1,0,0,3.63,1.91,1.91,0,0,0,2-1.82A1.91,1.91,0,0,0,5.77,14Zm0,3.1a1.37,1.37,0,0,1-1.43-1.25,1.34,1.34,0,0,1,1.35-1.32,1.29,1.29,0,1,1,.08,2.57Z"/></svg>