<svg xmlns="http://www.w3.org/2000/svg" viewBox="0 0 20 20">
  <title>ap</title>
  <g>
    <path d="M19.62,19.16H.38a.31.31,0,0,1-.31-.31V6.23a.31.31,0,0,1,.31-.31H19.62a.31.31,0,0,1,.31.31V18.85A.31.31,0,0,1,19.62,19.16ZM.68,18.54H19.32v-12H.68Z"/>
    <path d="M19.62,12.54H.48a.31.31,0,1,1,0-.61H19.62a.31.31,0,1,1,0,.61Z"/>
    <rect x="4.97" y="10.3" width="1.71" height="3.85" rx="0.68" ry="0.68"/>
    <rect x="13.21" y="10.3" width="1.71" height="3.85" rx="0.68" ry="0.68"/>
    <path d="M13.64,6.22a.31.31,0,0,1-.31-.31V4.61h-7v1.3a.31.31,0,0,1-.61,0V4.31A.31.31,0,0,1,6,4h7.59a.31.31,0,0,1,.31.31v1.6A.31.31,0,0,1,13.64,6.22Z"/>
  </g>
</svg>
