<svg xmlns="http://www.w3.org/2000/svg" viewBox="0 0 20 20">
<g>
	<path d="M20,0.4c0-0.3-0.1-0.3-0.3-0.3c-3.2,0-6.5,0-9.7,0s-6.5,0-9.7,0C0,0.1,0,0.1,0,0.4c0,6.5,0,13,0,19.4
		c0,0.3,0.1,0.3,0.3,0.3c6.5,0,12.9,0,19.4,0c0.2,0,0.3-0.1,0.3-0.3C20,13.3,20,6.9,20,0.4z M19,19.4c-6,0-12.1,0-18.1,0
		c-0.2,0-0.3,0-0.3-0.3c0-6,0-12.1,0-18.1c0-0.2,0.1-0.3,0.3-0.3c6,0,12.1,0,18.1,0c0.3,0,0.3,0.1,0.3,0.3c0,3,0,6,0,9s0,6,0,9
		C19.4,19.4,19.3,19.4,19,19.4z"/>
	<path d="M17.2,12.4c-0.1,0-0.3,0-0.4,0c-0.2,0-0.2,0-0.2-0.2c0-0.3-0.1-0.5-0.1-0.8c-0.7-2.3-2.1-4-4.4-4.8
		c-0.3-0.1-0.4-0.2-0.4-0.5c0-0.6-0.5-1.2-1.2-1.2C9.8,4.8,9.2,5.3,9.1,5.8c0,0.6-0.3,0.7-0.7,0.8H8.3c-2.4,1.1-3.8,3-4.3,5.5
		c0,0.2-0.1,0.3-0.3,0.3c-0.3,0-0.7,0-1,0c-0.2,0-0.3,0.1-0.3,0.3S2.5,13,2.7,13c0.1,0,0.1,0,0.2,0c2.4,0,4.7,0,7.1,0l0,0
		c2,0,4.1,0,6.1,0c0.4,0,0.7,0,1.1,0c0.2,0,0.4-0.1,0.4-0.3C17.6,12.5,17.4,12.4,17.2,12.4z M15.7,12.4c-1.8,0-3.6,0-5.4,0
		s-3.5,0-5.3,0c-0.3,0-0.3,0-0.3-0.3c0.5-2.3,1.8-4,4-4.9C9,7,9.1,7,9.1,7.5c0,0.7,0,1.4,0,2.2c0,0.1,0,0.1,0,0.2
		c0,0.2,0.1,0.4,0.4,0.3c0.2,0,0.3-0.1,0.3-0.4c0-0.6,0-1.2,0-1.8s0-1.2,0-1.8c0-0.4,0.3-0.7,0.6-0.7c0.4,0,0.6,0.3,0.6,0.7
		c0,1.2,0,2.3,0,3.5c0,0.3,0.1,0.4,0.3,0.5c0.2,0,0.3-0.2,0.3-0.4c0-0.7,0-1.5,0-2.2c0-0.4,0-0.4,0.4-0.2c1.5,0.6,2.5,1.6,3.3,3
		c0.3,0.6,0.5,1.2,0.6,1.8C15.9,12.3,15.9,12.4,15.7,12.4z"/>
</g>
</svg>
