<svg xmlns="http://www.w3.org/2000/svg" viewBox="0 0 20 20">
  <title>ap</title>
  <g>
    <path d="M16.73,20H3.27A.27.27,0,0,1,3,19.69V3.22A.27.27,0,0,1,3.27,3H16.73a.27.27,0,0,1,.27.27V19.69A.27.27,0,0,1,16.73,20ZM3.54,19.42H16.46V3.49H3.54Z"/>
    <path d="M12.53,3.36H7.47a.27.27,0,0,1-.27-.27V1.57a.27.27,0,0,1,.27-.27H8.6a1.41,1.41,0,0,1,2.8,0h1.13a.27.27,0,0,1,.27.27V3.09A.27.27,0,0,1,12.53,3.36Zm-4.8-.54h4.53v-1H11.13a.27.27,0,0,1-.27-.3.74.74,0,0,0,0-.09.87.87,0,1,0-1.74,0,.74.74,0,0,0,0,.09.27.27,0,0,1-.27.3H7.74Z"/>
    <path d="M6.5,8.12A.27.27,0,0,1,6.31,8L5.23,7a.27.27,0,1,1,.38-.38l.87.87L7.91,5.79a.27.27,0,0,1,.41.35L6.7,8a.27.27,0,0,1-.19.09Z"/>
    <path d="M6.5,12.42a.27.27,0,0,1-.19-.08L5.23,11.27a.27.27,0,0,1,.38-.38l.87.87,1.43-1.66a.27.27,0,0,1,.41.35L6.7,12.33a.27.27,0,0,1-.19.09Z"/>
    <path d="M6.5,16.19a.27.27,0,0,1-.19-.08L5.23,15a.27.27,0,0,1,.38-.38l.87.87,1.43-1.66a.27.27,0,0,1,.41.35L6.7,16.1a.27.27,0,0,1-.19.09Z"/>
    <path d="M13.77,7.17H10a.13.13,0,1,1,0-.27h3.77a.13.13,0,0,1,0,.27Z"/>
    <path d="M13.77,11.48H10a.13.13,0,0,1,0-.27h3.77a.13.13,0,0,1,0,.27Z"/>
    <path d="M13.77,15.25H10A.13.13,0,0,1,10,15h3.77a.13.13,0,0,1,0,.27Z"/>
  </g>
</svg>
