<svg xmlns="http://www.w3.org/2000/svg" viewBox="0 0 20 20">
  <title>ap</title>
  <g>
    <g>
      <path d="M8.55,13.49a1.28,1.28,0,0,1-.91-.38L4.36,9.84A1.29,1.29,0,0,1,6.18,8L9.46,11.3a1.29,1.29,0,0,1,0,1.82h0A1.28,1.28,0,0,1,8.55,13.49ZM5.27,8.16a.77.77,0,0,0-.55,1.32L8,12.75a.77.77,0,0,0,1.09,0h0a.77.77,0,0,0,0-1.09L5.82,8.38A.77.77,0,0,0,5.27,8.16Zm4,4.78h0Z"/>
      <path d="M8.78,11.11a.13.13,0,0,1-.09,0L6.4,8.79a.13.13,0,0,1,0-.18l.73-.73a.13.13,0,0,1,.18,0L9.6,10.16a.13.13,0,0,1,0,.18l-.73.73A.13.13,0,0,1,8.78,11.11ZM6.68,8.7l2.1,2.1.55-.55-2.1-2.1Z"/>
    </g>
    <g>
      <path d="M16.19,5.85a1.28,1.28,0,0,1-.91-.38L12,2.2A1.29,1.29,0,0,1,13.83.38L17.1,3.65a1.29,1.29,0,0,1,0,1.82h0A1.28,1.28,0,0,1,16.19,5.85ZM12.92.51a.77.77,0,0,0-.55,1.32l3.28,3.28A.77.77,0,0,0,16.74,4L13.46.74A.77.77,0,0,0,12.92.51Zm4,4.78h0Z"/>
      <path d="M14.24,5.65a.13.13,0,0,1-.09,0L11.87,3.33a.13.13,0,0,1,0-.18l.73-.73a.13.13,0,0,1,.18,0L15.06,4.7a.13.13,0,0,1,0,.18l-.73.73A.13.13,0,0,1,14.24,5.65Zm-2.1-2.41,2.1,2.1.55-.55-2.1-2.1Z"/>
    </g>
    <path d="M17.88,15.15a.26.26,0,0,1-.18-.08L12.23,9.61a.26.26,0,0,1,0-.36l1.09-1.09a.26.26,0,0,1,.36,0l5.46,5.46a.26.26,0,0,1,0,.36l-1.09,1.09A.26.26,0,0,1,17.88,15.15Zm-5.1-5.72,5.1,5.1.73-.73-5.1-5.1Z"/>
    <path d="M10.69,11.42a.26.26,0,0,1-.18-.08L6.14,7a.26.26,0,0,1,0-.36l4.55-4.55a.26.26,0,0,1,.36,0l4.37,4.37a.26.26,0,0,1,0,.36l-4.55,4.55A.26.26,0,0,1,10.69,11.42Zm-4-4.63,4,4,4.19-4.19-4-4Z"/>
  </g>
  <path d="M10.54,17.75h-8a.26.26,0,0,1-.26-.26V16.21a.26.26,0,0,1,.26-.26h8a.26.26,0,0,1,.26.26v1.29A.26.26,0,0,1,10.54,17.75Zm-7.72-.51h7.46v-.77H2.82Z"/>
  <path d="M12.34,19H.76a.26.26,0,0,1-.26-.26V17.49a.26.26,0,0,1,.26-.26H12.34a.26.26,0,0,1,.26.26v1.29A.26.26,0,0,1,12.34,19ZM1,18.52H12.08v-.77H1Z"/>
</svg>
