<svg xmlns="http://www.w3.org/2000/svg" viewBox="0 0 20 20">
  <title>ap</title>
  <g>
    <path d="M16.76,20H3.24A.27.27,0,0,1,3,19.73V3.2a.27.27,0,0,1,.27-.27H16.76A.27.27,0,0,1,17,3.2V19.73A.27.27,0,0,1,16.76,20ZM3.51,19.46h13v-16h-13Z"/>
    <g>
      <path d="M9.73,15.38a.13.13,0,0,1-.08,0,4.36,4.36,0,0,1,0-7,.14.14,0,1,1,.16.22,4.09,4.09,0,0,0,0,6.54.14.14,0,0,1-.08.24Z"/>
      <path d="M10.06,9.39H10a.13.13,0,0,1-.07-.18l.43-1-1-.43a.14.14,0,1,1,.11-.25L10.6,8a.13.13,0,0,1,.07.18l-.48,1.09A.14.14,0,0,1,10.06,9.39Z"/>
    </g>
    <path d="M12.54,3.34H7.46a.27.27,0,0,1-.27-.27V1.54a.27.27,0,0,1,.27-.27H8.59a1.42,1.42,0,0,1,2.82,0h1.14a.27.27,0,0,1,.27.27V3.07A.27.27,0,0,1,12.54,3.34ZM7.73,2.8h4.55v-1H11.14a.27.27,0,0,1-.27-.3.78.78,0,0,0,0-.09.87.87,0,1,0-1.75,0,.78.78,0,0,0,0,.09.27.27,0,0,1-.27.3H7.73Z"/>
    <path d="M10.81,18.65a1.08,1.08,0,1,1,1.08-1.08A1.08,1.08,0,0,1,10.81,18.65Zm0-1.62a.54.54,0,1,0,.54.54A.54.54,0,0,0,10.81,17Z"/>
    <path d="M13,7.57a1.08,1.08,0,1,1,1.08-1.08A1.08,1.08,0,0,1,13,7.57Zm0-1.62a.54.54,0,1,0,.54.54A.54.54,0,0,0,13,5.95Z"/>
    <g>
      <path d="M6.27,7.38H6.21A.27.27,0,0,1,6,7.06L6.44,5A.27.27,0,1,1,7,5.1L6.53,7.17A.27.27,0,0,1,6.27,7.38Z"/>
      <path d="M7.46,6.75l-.1,0-2-.8a.27.27,0,1,1,.21-.5l2,.8a.27.27,0,0,1-.1.52Z"/>
    </g>
    <g>
      <path d="M13.29,16.3h-.06A.27.27,0,0,1,13,16l.44-2.07A.27.27,0,1,1,14,14l-.44,2.07A.27.27,0,0,1,13.29,16.3Z"/>
      <path d="M14.49,15.67l-.1,0-2-.8a.27.27,0,1,1,.21-.5l2,.8a.27.27,0,0,1-.1.52Z"/>
    </g>
  </g>
</svg>
