<svg id="Layer_1" data-name="Layer 1" xmlns="http://www.w3.org/2000/svg" viewBox="0 0 20 22.07"><defs></defs><title>AP_Departments_conventional</title><path class="cls-1" d="M18.31,22.15H1.39a.31.31,0,0,1-.31-.31.3.3,0,0,1,.31-.3H18.31a.29.29,0,0,1,.3.3A.3.3,0,0,1,18.31,22.15Z"/><path class="cls-1" d="M13.18,17.23a.3.3,0,0,1-.19-.07L9.8,14.62l-3,2.24a.31.31,0,0,1-.43-.06.31.31,0,0,1,.06-.43L9.3,14.22l-3.65-2.9L1,7.94A.3.3,0,0,1,.86,7.6a.31.31,0,0,1,.29-.22H18.82a.31.31,0,0,1,.3.22.3.3,0,0,1-.12.34l-5.29,3.7L10.3,14.23l3.08,2.45a.31.31,0,0,1,0,.43A.3.3,0,0,1,13.18,17.23ZM2.1,8,6,10.83l3.78,3,3.54-2.7L17.85,8Z"/><path class="cls-1" d="M1.15,7.69a.31.31,0,0,1-.31-.31V4a.31.31,0,1,1,.62,0V7.38A.31.31,0,0,1,1.15,7.69Z"/><path class="cls-1" d="M2,4.61H.31A.3.3,0,0,1,0,4.31.31.31,0,0,1,.31,4H2a.31.31,0,0,1,.31.31A.3.3,0,0,1,2,4.61Z"/><path class="cls-1" d="M2,5.54H.31a.31.31,0,1,1,0-.62H2a.31.31,0,0,1,0,.62Z"/><path class="cls-1" d="M2,6.46H.31A.31.31,0,0,1,0,6.15a.3.3,0,0,1,.31-.3H2a.3.3,0,0,1,.31.3A.31.31,0,0,1,2,6.46Z"/><path class="cls-1" d="M18.85,7.69a.31.31,0,0,1-.31-.31V4a.31.31,0,1,1,.62,0V7.38A.31.31,0,0,1,18.85,7.69Z"/><path class="cls-1" d="M19.69,4.61H18a.3.3,0,0,1-.31-.3A.31.31,0,0,1,18,4h1.68a.31.31,0,0,1,.31.31A.3.3,0,0,1,19.69,4.61Z"/><path class="cls-1" d="M19.69,5.54H18a.31.31,0,0,1,0-.62h1.68a.31.31,0,1,1,0,.62Z"/><path class="cls-1" d="M19.69,6.46H18a.31.31,0,0,1-.31-.31.3.3,0,0,1,.31-.3h1.68a.3.3,0,0,1,.31.3A.31.31,0,0,1,19.69,6.46Z"/><path class="cls-1" d="M15.51,2.77a.31.31,0,0,1-.31-.31V.62H5.44V2.46a.31.31,0,1,1-.62,0V.31A.31.31,0,0,1,5.13,0H15.51a.31.31,0,0,1,.31.31V2.46A.31.31,0,0,1,15.51,2.77Z"/><path class="cls-1" d="M5.85,22.15h0a.3.3,0,0,1-.27-.34L8,.27a.31.31,0,1,1,.61.07L6.15,21.88A.3.3,0,0,1,5.85,22.15Z"/><path class="cls-1" d="M13.85,22.15a.31.31,0,0,1-.31-.28L11.85.33A.3.3,0,0,1,12.13,0a.3.3,0,0,1,.33.28l1.69,21.54a.3.3,0,0,1-.28.33Z"/></svg>