<svg xmlns="http://www.w3.org/2000/svg" viewBox="0 0 20 20">
  <title>ap</title>
  <path d="M4.71,4.78a1,1,0,1,1,1-1A1,1,0,0,1,4.71,4.78Zm0-1.39a.43.43,0,1,0,.43.43A.43.43,0,0,0,4.71,3.38Z"/>
  <path d="M6.45,7.3H3A.26.26,0,0,1,2.7,7a2,2,0,0,1,4,0A.26.26,0,0,1,6.45,7.3Zm-3.2-.53H6.16a1.48,1.48,0,0,0-2.91,0Z"/>
  <path d="M4.71,9.47A4.24,4.24,0,1,1,8.94,5.24,4.24,4.24,0,0,1,4.71,9.47Zm0-7.94A3.71,3.71,0,1,0,8.41,5.24,3.71,3.71,0,0,0,4.71,1.53Z"/>
  <path d="M15.29,4.78a1,1,0,1,1,1-1A1,1,0,0,1,15.29,4.78Zm0-1.39a.43.43,0,1,0,.43.43A.43.43,0,0,0,15.29,3.38Z"/>
  <path d="M17,7.3H13.55A.26.26,0,0,1,13.29,7a2,2,0,0,1,4,0A.26.26,0,0,1,17,7.3Zm-3.2-.53h2.91a1.48,1.48,0,0,0-2.91,0Z"/>
  <path d="M15.29,9.47a4.24,4.24,0,1,1,4.24-4.24A4.24,4.24,0,0,1,15.29,9.47Zm0-7.94A3.71,3.71,0,1,0,19,5.24,3.71,3.71,0,0,0,15.29,1.53Z"/>
  <g>
    <path d="M10,14.31a1,1,0,1,1,1-1A1,1,0,0,1,10,14.31Zm0-1.39a.43.43,0,1,0,.43.43A.43.43,0,0,0,10,12.91Z"/>
    <path d="M11.74,16.83H8.26A.26.26,0,0,1,8,16.57a2,2,0,1,1,4,0A.26.26,0,0,1,11.74,16.83Zm-3.2-.53h2.91a1.48,1.48,0,0,0-2.91,0Z"/>
    <path d="M10,19a4.24,4.24,0,1,1,4.24-4.24A4.24,4.24,0,0,1,10,19Zm0-7.94a3.71,3.71,0,1,0,3.71,3.71A3.71,3.71,0,0,0,10,11.06Z"/>
  </g>
  <path d="M12.49,11.94a.26.26,0,0,1-.21-.42L14.12,9a.26.26,0,1,1,.43.31l-1.84,2.53A.26.26,0,0,1,12.49,11.94Z"/>
  <path d="M7.84,11.58a.26.26,0,0,1-.21-.1L6,9.37A.26.26,0,1,1,6.41,9l1.65,2.11a.26.26,0,0,1-.21.43Z"/>
</svg>
