<svg xmlns="http://www.w3.org/2000/svg" viewBox="0 0 20 20">
  <title>ap</title>
  <g>
    <path d="M19.11,12.45H12.05a.14.14,0,0,1-.14-.14V3.67a.14.14,0,0,1,.14-.14h7.06a.14.14,0,0,1,.14.14v8.64A.14.14,0,0,1,19.11,12.45Zm-6.92-.28H19V3.81H12.19Z"/>
    <g>
      <path d="M15.44,10.11a.14.14,0,0,1-.08,0,2.35,2.35,0,0,1,0-3.75.14.14,0,0,1,.17.23,2.07,2.07,0,0,0,0,3.3.14.14,0,0,1-.08.25Z"/>
      <path d="M15.9,6.84h-.06a.14.14,0,0,1-.07-.19L16,6.19,15.52,6a.14.14,0,1,1,.11-.26L16.2,6a.14.14,0,0,1,.07.19L16,6.75A.14.14,0,0,1,15.9,6.84Z"/>
    </g>
    <path d="M16.91,3.74H14.25a.14.14,0,0,1-.14-.14v-.8a.14.14,0,0,1,.14-.14h.59a.74.74,0,0,1,1.47,0h.59a.14.14,0,0,1,.14.14v.8A.14.14,0,0,1,16.91,3.74Zm-2.52-.28h2.38V2.95h-.59A.14.14,0,0,1,16,2.79a.39.39,0,0,0,0,0,.46.46,0,1,0-.91,0,.39.39,0,0,0,0,0,.14.14,0,0,1-.14.16h-.59Z"/>
    <path d="M16,11.74a.56.56,0,1,1,.56-.56A.57.57,0,0,1,16,11.74Zm0-.85a.28.28,0,1,0,.28.28A.28.28,0,0,0,16,10.9Z"/>
    <path d="M17.14,6a.56.56,0,1,1,.56-.56A.57.57,0,0,1,17.14,6Zm0-.85a.28.28,0,1,0,.28.28A.28.28,0,0,0,17.14,5.11Z"/>
    <g>
      <path d="M13.63,5.86h0a.14.14,0,0,1-.11-.17l.23-1.08a.14.14,0,0,1,.28.06l-.23,1.08A.14.14,0,0,1,13.63,5.86Z"/>
      <path d="M14.26,5.53H14.2l-1-.42a.14.14,0,1,1,.11-.26l1,.42a.14.14,0,0,1-.05.27Z"/>
    </g>
    <g>
      <path d="M17.3,10.52h0a.14.14,0,0,1-.11-.17l.23-1.08a.14.14,0,0,1,.28.06l-.23,1.08A.14.14,0,0,1,17.3,10.52Z"/>
      <path d="M17.93,10.19h-.05l-1-.42A.14.14,0,1,1,17,9.5l1,.42a.14.14,0,0,1-.05.27Z"/>
    </g>
  </g>
  <g>
    <path d="M6.88,12.41A2.74,2.74,0,1,1,9.62,9.67,2.74,2.74,0,0,1,6.88,12.41Zm0-4.91A2.17,2.17,0,1,0,9.06,9.67,2.18,2.18,0,0,0,6.88,7.5Z"/>
    <path d="M12.81,20H1a.28.28,0,0,1-.28-.28,6.21,6.21,0,0,1,12.43,0A.28.28,0,0,1,12.81,20ZM1.24,19.44H12.53a5.65,5.65,0,0,0-11.29,0Z"/>
  </g>
</svg>
