<svg xmlns="http://www.w3.org/2000/svg" viewBox="0 0 20 20">
  <title>ap</title>
  <g>
    <path d="M8.36,20a6.6,6.6,0,0,1-6.59-6.59c0-1.89,1.7-5.4,3.12-8,.91-1.67,1.75-3,2.17-3.71C8.12,0,8.18,0,8.36,0s.22,0,1.11,1.4c.34.54,1,1.65,1.85,3.11A36.53,36.53,0,0,1,14.74,12a.28.28,0,0,1-.55.14C13.25,8.48,9.27,2.06,8.35.73c-1.09,1.55-6,9.68-6,12.68a6,6,0,0,0,8.49,5.5.28.28,0,0,1,.23.51A6.54,6.54,0,0,1,8.36,20Z"/>
    <path d="M8.36,16.25A4.16,4.16,0,0,1,4.2,12.09a.28.28,0,0,1,.56,0,3.6,3.6,0,0,0,3.59,3.59.28.28,0,1,1,0,.56Z"/>
    <path d="M15.85,19.58H14.62a.14.14,0,0,1-.14-.14V19.3c0-.1,0-.21,0-.31a1.14,1.14,0,0,0,0-.25.11.11,0,0,0-.19-.08,1.25,1.25,0,0,0-.21.17l-.21.21-.09.09a.14.14,0,0,1-.1,0,.14.14,0,0,1-.1,0l-.87-.87a.14.14,0,0,1,0-.2l.15-.15.23-.23a.71.71,0,0,0,.12-.2.06.06,0,0,0,0-.09.6.6,0,0,0-.2-.05h-.55a.16.16,0,0,1-.15-.14V16a.14.14,0,0,1,.14-.14h.45a1.1,1.1,0,0,0,.27,0,.13.13,0,0,0,.08-.06.13.13,0,0,0,0-.11.71.71,0,0,0-.11-.16l-.22-.23,0,0-.07-.06,0,0a.14.14,0,0,1,0-.21l.88-.88a.17.17,0,0,1,.1,0,.14.14,0,0,1,.1,0l.06.06.14.14.06.06a1.75,1.75,0,0,0,.2.18.2.2,0,0,0,.17.05s.06-.07.08-.15a2.62,2.62,0,0,0,0-.36c0-.06,0-.11,0-.17s0-.06,0-.08v0a.14.14,0,0,1,.14-.14h1.23a.14.14,0,0,1,.14.14v.21c0,.11,0,.23,0,.34a.63.63,0,0,0,.05.21.07.07,0,0,0,.1,0,.71.71,0,0,0,.2-.12l.23-.22.14-.14a.16.16,0,0,1,.21,0l.87.87a.14.14,0,0,1,0,.2l-.09.09-.21.22a1.19,1.19,0,0,0-.16.2.16.16,0,0,0,0,.13.16.16,0,0,0,.11.07,1.16,1.16,0,0,0,.24,0h.45a.14.14,0,0,1,.14.14v1.23a.14.14,0,0,1-.14.14h-.62a.4.4,0,0,0-.15.05c-.06,0,0,.07,0,.08a.77.77,0,0,0,.12.21,2.31,2.31,0,0,0,.19.2l.06.06.08.07,0,0a.14.14,0,0,1,0,.2l-.87.89a.14.14,0,0,1-.2,0l-.1-.1-.23-.23a1,1,0,0,0-.15-.12.2.2,0,0,0-.17,0s-.06.07-.07.15a3.79,3.79,0,0,0,0,.44c0,.07,0,.14,0,.21A.14.14,0,0,1,15.85,19.58Zm-1.09-.28h.95v-.06a4.07,4.07,0,0,1,0-.48.44.44,0,0,1,.23-.37.46.46,0,0,1,.45.06,1.27,1.27,0,0,1,.19.16l.24.24.67-.68,0,0-.06-.06a2.59,2.59,0,0,1-.21-.22,1.06,1.06,0,0,1-.17-.28.34.34,0,0,1,.17-.43.65.65,0,0,1,.27-.09H18V16.1h-.32a1.39,1.39,0,0,1-.3,0,.39.39,0,0,1-.25-.61,1.44,1.44,0,0,1,.2-.25l.21-.21-.67-.67,0,0-.25.24a1,1,0,0,1-.28.17.35.35,0,0,1-.46-.19.9.9,0,0,1-.08-.3c0-.12,0-.24,0-.36v-.07h-.95c0,.05,0,.1,0,.15a2.85,2.85,0,0,1,0,.4.44.44,0,0,1-.24.37.45.45,0,0,1-.44-.08,2,2,0,0,1-.23-.21l-.06-.06-.1-.1L13,15l0,0,.24.24a1,1,0,0,1,.15.22.4.4,0,0,1,0,.34.4.4,0,0,1-.26.22,1.38,1.38,0,0,1-.34.05h-.33V17h.44a.88.88,0,0,1,.3.08.34.34,0,0,1,.18.45,1,1,0,0,1-.17.28l-.24.25,0,0,.67.67.2-.2a1.49,1.49,0,0,1,.26-.21.38.38,0,0,1,.6.24,1.39,1.39,0,0,1,0,.32C14.76,19.08,14.76,19.19,14.76,19.3Zm.47-1.51a1.22,1.22,0,1,1,0-2.43h0a1.22,1.22,0,0,1,1.22,1.21h0a1.22,1.22,0,0,1-1.21,1.22Zm0-2.15a.93.93,0,0,0-.66,1.6,1,1,0,0,0,.66.27.94.94,0,0,0,.93-.93h0a.94.94,0,0,0-.93-.93Z"/>
  </g>
</svg>
