<svg xmlns="http://www.w3.org/2000/svg" viewBox="0 0 20 20">
  <title>ap</title>
  <path d="M11,16.9H2.28A2.29,2.29,0,0,1,0,14.61V4.26A1.93,1.93,0,0,1,1.92,2.33H17.31a1.93,1.93,0,0,1,1.92,1.92V8.32a.28.28,0,1,1-.56,0V4.26a1.36,1.36,0,0,0-1.36-1.36H1.92A1.36,1.36,0,0,0,.56,4.26V14.61a1.73,1.73,0,0,0,1.72,1.72H11a.28.28,0,0,1,0,.56Z"/>
  <rect x="0.28" y="7" width="8.06" height="0.56"/>
  <path d="M12.26,2.61H11.7V1.27A.71.71,0,0,0,11,.56H8.5a.71.71,0,0,0-.71.71V2.61H7.23V1.27A1.27,1.27,0,0,1,8.5,0H11a1.28,1.28,0,0,1,1.27,1.27Z"/>
  <path d="M10.35,9.64H9.14a1,1,0,0,1-1-1v-3a1,1,0,0,1,1-1h1.21a1,1,0,0,1,1,1v3A1,1,0,0,1,10.35,9.64ZM9.14,5.23a.41.41,0,0,0-.41.41v3a.41.41,0,0,0,.41.41h1.21a.41.41,0,0,0,.41-.41v-3a.41.41,0,0,0-.41-.41Z"/>
  <path d="M19.83,19.46H13.17a.17.17,0,0,1-.17-.17V10.68a.17.17,0,0,1,.17-.17h6.66a.17.17,0,0,1,.17.17v8.61A.17.17,0,0,1,19.83,19.46Zm-6.49-.34h6.32V10.85H13.34Z"/>
  <path d="M18.91,18.55H17.76a.17.17,0,0,1-.17-.17V14a.17.17,0,0,1,.17-.17h1.15a.17.17,0,0,1,.17.17v4.36A.17.17,0,0,1,18.91,18.55Zm-1-.34h.81v-4h-.81Z"/>
  <path d="M18.91,13.26H14.09a.17.17,0,0,1-.17-.17V11.71a.17.17,0,0,1,.17-.17h4.82a.17.17,0,0,1,.17.17v1.38A.17.17,0,0,1,18.91,13.26Zm-4.65-.34h4.48v-1H14.26Z"/>
  <path d="M17.07,16H15.93a.17.17,0,0,1-.17-.17V14a.17.17,0,0,1,.17-.17h1.15a.17.17,0,0,1,.17.17v1.84A.17.17,0,0,1,17.07,16Zm-1-.34h.81v-1.5H16.1Z"/>
  <path d="M15.24,16H14.09a.17.17,0,0,1-.17-.17V14a.17.17,0,0,1,.17-.17h1.15a.17.17,0,0,1,.17.17v1.84A.17.17,0,0,1,15.24,16Zm-1-.34h.81v-1.5h-.81Z"/>
  <path d="M17.07,18.55H15.93a.17.17,0,0,1-.17-.17V16.54a.17.17,0,0,1,.17-.17h1.15a.17.17,0,0,1,.17.17v1.84A.17.17,0,0,1,17.07,18.55Zm-1-.34h.81v-1.5H16.1Z"/>
  <path d="M15.24,18.55H14.09a.17.17,0,0,1-.17-.17V16.54a.17.17,0,0,1,.17-.17h1.15a.17.17,0,0,1,.17.17v1.84A.17.17,0,0,1,15.24,18.55Zm-1-.34h.81v-1.5h-.81Z"/>
  <rect x="11.32" y="6.94" width="7.35" height="0.68"/>
</svg>
