<svg xmlns="http://www.w3.org/2000/svg" viewBox="0 0 20 20">
  <title>ap</title>
  <path d="M4,15.84a1.38,1.38,0,0,1-.63-.24l-.18-.1a4.48,4.48,0,0,1-2-2.39,9.87,9.87,0,0,1-.65-3c0-.09,0-.18,0-.27s0-.18,0-.28a.39.39,0,0,1,.3-.44l1.66-.5,1.36-.41a.57.57,0,0,1,.32,0l1.29.39,1.72.51a.39.39,0,0,1,.3.47s0,.09,0,.13v.07a10.88,10.88,0,0,1-.66,3.34,4.39,4.39,0,0,1-2,2.4l-.19.1A1.42,1.42,0,0,1,4,15.84ZM1.06,9.59c0,.07,0,.13,0,.2s0,.17,0,.26A9.34,9.34,0,0,0,1.7,12.9,3.91,3.91,0,0,0,3.44,15l.19.1c.36.2.36.2.74,0l.19-.1A3.82,3.82,0,0,0,6.29,12.9a10.37,10.37,0,0,0,.62-3.17V9.59L5.29,9.1,4,8.72l-1.37.41Z"/>
  <path d="M19.73,20.15H6.11a.27.27,0,0,1-.27-.27V16.34a.27.27,0,0,1,.54,0v3.27H19.46V3.49H6.38v4a.27.27,0,0,1-.54,0V3.22a.27.27,0,0,1,.27-.27H19.73a.27.27,0,0,1,.27.27V19.88A.27.27,0,0,1,19.73,20.15Z"/>
  <path d="M15.48,3.36H10.36a.27.27,0,0,1-.27-.27V1.55a.27.27,0,0,1,.27-.27H11.5a1.43,1.43,0,0,1,2.84,0h1.14a.27.27,0,0,1,.27.27V3.09A.27.27,0,0,1,15.48,3.36Zm-4.85-.54h4.58v-1H14.07a.27.27,0,0,1-.27-.31.79.79,0,0,0,0-.09.88.88,0,0,0-1.76,0,.75.75,0,0,0,0,.09.27.27,0,0,1-.27.31H10.63Z"/>
  <path d="M3.66,12.8a.27.27,0,0,1-.19-.08L2.38,11.63a.27.27,0,1,1,.39-.39l.88.88,1.44-1.68a.27.27,0,0,1,.41.35L3.87,12.7a.27.27,0,0,1-.2.09Z"/>
  <path d="M16.73,7.22H8.84a.14.14,0,1,1,0-.27h7.9a.14.14,0,0,1,0,.27Z"/>
  <path d="M16.73,9.67H8.84a.14.14,0,1,1,0-.27h7.9a.14.14,0,0,1,0,.27Z"/>
  <path d="M16.73,11.85H8.84a.14.14,0,1,1,0-.27h7.9a.14.14,0,1,1,0,.27Z"/>
  <path d="M16.73,13.75H8.84a.14.14,0,1,1,0-.27h7.9a.14.14,0,0,1,0,.27Z"/>
  <path d="M16.73,16.2H8.84a.14.14,0,1,1,0-.27h7.9a.14.14,0,0,1,0,.27Z"/>
</svg>
