<svg xmlns="http://www.w3.org/2000/svg" viewBox="0 0 20 20">
  <title>ap</title>
  <path d="M8.24,19.81a7.94,7.94,0,1,1,7.94-7.94A7.94,7.94,0,0,1,8.24,19.81Zm0-15.32a7.38,7.38,0,1,0,7.38,7.38A7.39,7.39,0,0,0,8.24,4.49Z"/>
  <path d="M8.24,16.79a4.91,4.91,0,1,1,4.91-4.91A4.92,4.92,0,0,1,8.24,16.79Zm0-9.28a4.36,4.36,0,1,0,4.36,4.36A4.37,4.37,0,0,0,8.24,7.51Z"/>
  <g>
    <circle cx="8.24" cy="11.87" r="1.14"/>
    <path d="M8.24,13.15a1.28,1.28,0,1,1,1.28-1.28A1.28,1.28,0,0,1,8.24,13.15Zm0-2.28a1,1,0,1,0,1,1A1,1,0,0,0,8.24,10.87Z"/>
  </g>
  <g>
    <g>
      <path d="M7.93,12.35a.14.14,0,0,1-.1-.24L17.91,2a.14.14,0,0,1,.19.19L8,12.31A.14.14,0,0,1,7.93,12.35Z"/>
      <path d="M14.65,5.63h-.06a.14.14,0,0,1-.08-.14l.4-3.56a.14.14,0,0,1,0-.08L16.53.26a.14.14,0,0,1,.19.19L15.18,2l-.35,3.12,3.28-3.28a.14.14,0,0,1,.19.19L14.75,5.59A.14.14,0,0,1,14.65,5.63Z"/>
      <path d="M14.65,5.63a.14.14,0,0,1-.1-.24l3.56-3.56a.14.14,0,0,1,.19.19L15,5.31,18.14,5l1.62-1.78a.14.14,0,1,1,.2.19L18.31,5.19a.14.14,0,0,1-.09,0l-3.56.4Z"/>
    </g>
    <path d="M17,3.24A.28.28,0,0,1,16.78,3L16.24.53a.28.28,0,0,1,.54-.12l.54,2.49a.28.28,0,0,1-.21.33Z"/>
    <path d="M16.08,4.21A.28.28,0,0,1,15.81,4l-.54-2.49a.28.28,0,1,1,.54-.12l.54,2.49a.28.28,0,0,1-.21.33Z"/>
    <path d="M18.61,4.8h-.06l-2.49-.54a.28.28,0,0,1,.12-.54l2.49.54a.28.28,0,0,1-.06.54Z"/>
    <path d="M19.58,3.82h-.06L17,3.27a.28.28,0,0,1,.12-.54l2.49.54a.28.28,0,0,1-.06.54Z"/>
  </g>
</svg>
