<svg xmlns="http://www.w3.org/2000/svg" viewBox="0 0 20 20">
  <title>ap</title>
  <g>
    <path d="M9.33,11.45l.06-.23.35-1.3v0a.23.23,0,0,0,0,0q0-.12-.07-.14a1,1,0,0,0-.27,0V9.51l.47,0,.44-.06.25,0L10.13,11l-.08.29a1.54,1.54,0,0,0-.05.27s0,.07,0,.08l.06,0q.09,0,.22-.15a2.25,2.25,0,0,0,.23-.31l.13.08a3.93,3.93,0,0,1-.43.56.75.75,0,0,1-.52.24.45.45,0,0,1-.28-.1.35.35,0,0,1-.13-.3A1.16,1.16,0,0,1,9.33,11.45Zm1.36-3.27a.37.37,0,0,1,.11.27.38.38,0,0,1-.11.27.37.37,0,0,1-.27.11A.39.39,0,0,1,10,8.45a.37.37,0,0,1,.11-.27.38.38,0,0,1,.27-.11A.37.37,0,0,1,10.69,8.18Z"/>
    <path d="M9.71,12.23a.61.61,0,0,1-.38-.13.51.51,0,0,1-.19-.42,1.28,1.28,0,0,1,0-.26h0l.06-.24L9.6,9.85v0l-.18,0H9.26V9.35h.15l.46,0,.43-.06.5-.1L10.28,11l-.07.29,0,.07a2.13,2.13,0,0,0,.21-.28l.09-.14.4.26-.09.14a4,4,0,0,1-.45.58A.91.91,0,0,1,9.71,12.23Zm-.22-.74a1,1,0,0,0,0,.19.19.19,0,0,0,.06.17.41.41,0,0,0,.49,0l-.07,0a.24.24,0,0,1-.1-.22,1.41,1.41,0,0,1,.06-.31L10,11l.38-1.39-.44.06H9.86a.33.33,0,0,1,.07.21.38.38,0,0,1,0,.07V10l-.36,1.3ZM10.42,9A.54.54,0,0,1,10,8.84a.55.55,0,0,1,0-.78.55.55,0,0,1,.77,0h0a.55.55,0,0,1-.39.94Zm0-.77a.22.22,0,0,0-.16.07.21.21,0,0,0-.07.16.21.21,0,0,0,.07.16.22.22,0,0,0,.32,0,.22.22,0,0,0,.07-.16.22.22,0,0,0-.22-.22Z"/>
  </g>
  <g>
    <path d="M13.21,13.23H7.08a.16.16,0,0,1-.16-.16V6.94a.16.16,0,0,1,.16-.16h6.13a.16.16,0,0,1,.16.16v6.13A.16.16,0,0,1,13.21,13.23Zm-6-.32H13V7.1H7.24Z"/>
    <path d="M15.93,16.11H4.36A.32.32,0,0,1,4,15.78V4.22a.32.32,0,0,1,.32-.32H15.93a.32.32,0,0,1,.32.32V15.78A.32.32,0,0,1,15.93,16.11ZM4.68,15.46H15.61V4.54H4.68Z"/>
    <g>
      <g>
        <path d="M14,19H10.79a.32.32,0,0,1-.32-.32V16.13a.32.32,0,1,1,.65,0v2.26H14A.32.32,0,1,1,14,19Z"/>
        <path d="M15.47,20a1.45,1.45,0,1,1,1.45-1.45A1.45,1.45,0,0,1,15.47,20Zm0-2.26a.81.81,0,1,0,.81.81A.81.81,0,0,0,15.47,17.74Z"/>
      </g>
      <g>
        <path d="M9.5,19H6.27a.32.32,0,0,1,0-.65h2.9V16.13a.32.32,0,1,1,.65,0v2.58A.32.32,0,0,1,9.5,19Z"/>
        <path d="M4.82,20a1.45,1.45,0,1,1,1.45-1.45A1.45,1.45,0,0,1,4.82,20Zm0-2.26a.81.81,0,1,0,.81.81A.81.81,0,0,0,4.82,17.74Z"/>
      </g>
    </g>
    <g>
      <g>
        <path d="M18.53,9.68H16A.32.32,0,0,1,16,9h2.26V6.13a.32.32,0,1,1,.65,0V9.35A.32.32,0,0,1,18.53,9.68Z"/>
        <path d="M18.37,6.13a1.45,1.45,0,1,1,1.45-1.45A1.45,1.45,0,0,1,18.37,6.13Zm0-2.26a.81.81,0,1,0,.81.81A.81.81,0,0,0,18.37,3.87Z"/>
      </g>
      <g>
        <path d="M18.53,14.19a.32.32,0,0,1-.32-.32V11H16a.32.32,0,0,1,0-.65h2.58a.32.32,0,0,1,.32.32v3.23A.32.32,0,0,1,18.53,14.19Z"/>
        <path d="M18.37,16.77a1.45,1.45,0,1,1,1.45-1.45A1.45,1.45,0,0,1,18.37,16.77Zm0-2.26a.81.81,0,1,0,.81.81A.81.81,0,0,0,18.37,14.52Z"/>
      </g>
    </g>
    <g>
      <g>
        <path d="M1.44,14.19a.32.32,0,0,1-.32-.32V10.65a.32.32,0,0,1,.32-.32H4A.32.32,0,0,1,4,11H1.76v2.9A.32.32,0,0,1,1.44,14.19Z"/>
        <path d="M1.6,16.77A1.45,1.45,0,1,1,3,15.32,1.45,1.45,0,0,1,1.6,16.77Zm0-2.26a.81.81,0,1,0,.81.81A.81.81,0,0,0,1.6,14.52Z"/>
      </g>
      <g>
        <path d="M4,9.68H1.44a.32.32,0,0,1-.32-.32V6.13a.32.32,0,0,1,.65,0V9H4a.32.32,0,0,1,0,.65Z"/>
        <path d="M1.6,6.13A1.45,1.45,0,1,1,3,4.68,1.45,1.45,0,0,1,1.6,6.13Zm0-2.26a.81.81,0,1,0,.81.81A.81.81,0,0,0,1.6,3.87Z"/>
      </g>
    </g>
    <g>
      <g>
        <path d="M9.18,4.19a.32.32,0,0,1-.32-.32V1.61H6A.32.32,0,0,1,6,1H9.18a.32.32,0,0,1,.32.32V3.87A.32.32,0,0,1,9.18,4.19Z"/>
        <path d="M4.5,2.9A1.45,1.45,0,1,1,6,1.45,1.45,1.45,0,0,1,4.5,2.9ZM4.5.65a.81.81,0,1,0,.81.81A.81.81,0,0,0,4.5.65Z"/>
      </g>
      <g>
        <path d="M10.47,4.19a.32.32,0,0,1-.32-.32V1.29A.32.32,0,0,1,10.47,1h3.23a.32.32,0,0,1,0,.65h-2.9V3.87A.32.32,0,0,1,10.47,4.19Z"/>
        <path d="M15.15,2.9A1.45,1.45,0,1,1,16.6,1.45,1.45,1.45,0,0,1,15.15,2.9Zm0-2.26a.81.81,0,1,0,.81.81A.81.81,0,0,0,15.15.65Z"/>
      </g>
    </g>
  </g>
</svg>
