<svg xmlns="http://www.w3.org/2000/svg" viewBox="0 0 20 20">
  <title>ap</title>
  <g>
    <path d="M16.76,20H3.24A.27.27,0,0,1,3,19.73V3.2a.27.27,0,0,1,.27-.27H16.76A.27.27,0,0,1,17,3.2V19.73A.27.27,0,0,1,16.76,20ZM3.51,19.46h13v-16h-13Z"/>
    <path d="M12.54,3.34H7.46a.27.27,0,0,1-.27-.27V1.54a.27.27,0,0,1,.27-.27H8.59a1.42,1.42,0,0,1,2.82,0h1.14a.27.27,0,0,1,.27.27V3.07A.27.27,0,0,1,12.54,3.34ZM7.73,2.8h4.55v-1H11.14a.27.27,0,0,1-.27-.3.74.74,0,0,0,0-.09.87.87,0,1,0-1.75,0,.74.74,0,0,0,0,.09.27.27,0,0,1-.27.3H7.73Z"/>
    <path d="M6.49,8.11A.27.27,0,0,1,6.3,8L5.21,6.95a.27.27,0,0,1,.38-.38l.87.87L7.9,5.77a.27.27,0,0,1,.41.35L6.69,8a.27.27,0,0,1-.19.09Z"/>
    <path d="M6.49,12.43a.27.27,0,0,1-.19-.08L5.21,11.27a.27.27,0,0,1,.38-.38l.87.87L7.9,10.09a.27.27,0,0,1,.41.35L6.69,12.34a.27.27,0,0,1-.19.09Z"/>
    <path d="M6.49,16.22a.27.27,0,0,1-.19-.08L5.21,15.06a.27.27,0,0,1,.38-.38l.87.87L7.9,13.88a.27.27,0,0,1,.41.35L6.69,16.12a.27.27,0,0,1-.19.09Z"/>
    <path d="M13.78,7.16H10a.14.14,0,0,1,0-.27h3.78a.14.14,0,1,1,0,.27Z"/>
    <path d="M13.78,11.49H10a.14.14,0,0,1,0-.27h3.78a.14.14,0,1,1,0,.27Z"/>
    <path d="M13.78,15.27H10A.14.14,0,0,1,10,15h3.78a.14.14,0,1,1,0,.27Z"/>
  </g>
</svg>
