<svg xmlns="http://www.w3.org/2000/svg" viewBox="0 0 20 20">
  <title>ap</title>
  <g>
    <path d="M17.93,4.37H.71A.27.27,0,0,1,.44,4.1V.27A.27.27,0,0,1,.71,0H4.56A1.07,1.07,0,0,1,5.63,1.07v.3h12.3a.27.27,0,0,1,.27.27V4.1A.27.27,0,0,1,17.93,4.37ZM1,3.83H17.66V1.91H5.36a.27.27,0,0,1-.27-.27V1.07A.52.52,0,0,0,4.56.55H1Z"/>
    <path d="M11.87,14.49H.71a.27.27,0,0,1-.27-.27V4.1a.27.27,0,0,1,.27-.27H17.93a.27.27,0,0,1,.27.27V8.88a.27.27,0,1,1-.55,0V4.37H1v9.57H11.87a.27.27,0,1,1,0,.55Z"/>
    <path d="M17.68,16.81H16.49a.14.14,0,0,1-.14-.14v-.13c0-.1,0-.2,0-.3a1.1,1.1,0,0,0,0-.25.15.15,0,0,0-.07-.1.14.14,0,0,0-.12,0,1.22,1.22,0,0,0-.21.17l-.2.2-.09.09a.14.14,0,0,1-.1,0h0a.14.14,0,0,1-.1,0l-.84-.84a.14.14,0,0,1,0-.19l.14-.14L15,15a.69.69,0,0,0,.12-.19.06.06,0,0,0,0-.09.58.58,0,0,0-.2-.05h-.54a.15.15,0,0,1-.14-.14V13.3a.14.14,0,0,1,.14-.14h.44a1.09,1.09,0,0,0,.26,0,.13.13,0,0,0,.08-.06.13.13,0,0,0,0-.1.69.69,0,0,0-.11-.15l-.22-.22,0,0-.07-.06,0,0a.14.14,0,0,1,0-.2l.85-.85a.14.14,0,0,1,.1,0h0a.14.14,0,0,1,.1,0l.06.06.13.13.06.06a1.75,1.75,0,0,0,.19.17c.07,0,.13.07.16,0s.06-.07.07-.15a2.5,2.5,0,0,0,0-.35c0-.05,0-.11,0-.16s0-.05,0-.08v0a.14.14,0,0,1,.14-.14h1.19a.14.14,0,0,1,.14.14v.2c0,.11,0,.22,0,.33a.61.61,0,0,0,.05.2.07.07,0,0,0,.09,0,.7.7,0,0,0,.19-.12l.23-.22.14-.14a.14.14,0,0,1,.19,0l.84.84a.14.14,0,0,1,0,.19l-.09.09-.21.21a1.15,1.15,0,0,0-.16.19.15.15,0,0,0,0,.12.16.16,0,0,0,.11.07,1.09,1.09,0,0,0,.24,0h.44a.14.14,0,0,1,.14.14V14.5a.14.14,0,0,1-.14.14h-.6a.38.38,0,0,0-.15.05c-.05,0,0,.07,0,.08a.76.76,0,0,0,.12.2,2.29,2.29,0,0,0,.19.19l.06.06.08.07,0,0a.14.14,0,0,1,0,.2l-.84.86a.14.14,0,0,1-.1,0h0a.14.14,0,0,1-.1,0l-.1-.1-.22-.22-.14-.12a.2.2,0,0,0-.17,0s-.06.07-.07.15a3.69,3.69,0,0,0,0,.43c0,.07,0,.13,0,.2A.14.14,0,0,1,17.68,16.81Zm-1.06-.27h.92v-.06a4,4,0,0,1,0-.46.43.43,0,0,1,.22-.36.44.44,0,0,1,.44.06,1.22,1.22,0,0,1,.18.15l.23.23h0l.65-.66,0,0-.06-.06a2.51,2.51,0,0,1-.21-.22,1,1,0,0,1-.16-.28.33.33,0,0,1,.16-.42.62.62,0,0,1,.26-.08h.48v-.92h-.31a1.32,1.32,0,0,1-.3,0,.38.38,0,0,1-.25-.59,1.39,1.39,0,0,1,.19-.24l.21-.21-.65-.65,0,0-.24.23a1,1,0,0,1-.27.16.34.34,0,0,1-.44-.18.87.87,0,0,1-.07-.29c0-.12,0-.23,0-.35v-.07h-.92c0,.05,0,.1,0,.15a2.76,2.76,0,0,1,0,.38.39.39,0,0,1-.67.28,1.93,1.93,0,0,1-.23-.2l-.06-.06-.1-.1-.65.65,0,0,.23.24a1,1,0,0,1,.15.21.39.39,0,0,1,0,.33.38.38,0,0,1-.25.21,1.32,1.32,0,0,1-.33,0h-.32v.92h.42a.84.84,0,0,1,.29.08.33.33,0,0,1,.18.44,1,1,0,0,1-.16.27l-.23.24,0,0,.65.65.2-.2a1.47,1.47,0,0,1,.26-.2.37.37,0,0,1,.58.24,1.33,1.33,0,0,1,0,.31C16.63,16.33,16.63,16.44,16.63,16.54Zm.45-1.46a1.18,1.18,0,1,1,0-2.36h0a1.18,1.18,0,0,1,1.18,1.18h0a1.18,1.18,0,0,1-1.18,1.18Zm0-2.09a.91.91,0,0,0,0,1.81h0A.91.91,0,0,0,18,13.9h0a.91.91,0,0,0-.91-.9Z"/>
  </g>
</svg>
