<svg xmlns="http://www.w3.org/2000/svg" viewBox="0 0 20 20"><title>ap</title><path d="M10,20a6.92,6.92,0,0,1-6.92-6.92c0-1.58,1.12-4.24,3.31-7.91.87-1.46,1.71-2.73,2.27-3.55C9.77,0,9.79,0,10,0s.23,0,1.33,1.63c.55.81,1.4,2.09,2.27,3.55,2.2,3.67,3.31,6.33,3.31,7.91A6.92,6.92,0,0,1,10,20ZM10,.9C8.78,2.59,3.77,10,3.77,13.08a6.23,6.23,0,0,0,12.47,0C16.23,10,11.22,2.59,10,.9Z"/><path d="M10,16.52a3.68,3.68,0,0,1-2-.6.34.34,0,1,1,.37-.57A3,3,0,0,0,13,12.82a3,3,0,0,0-.19-.9.34.34,0,0,1,.65-.22,3.57,3.57,0,0,1,.22,1.11A3.7,3.7,0,0,1,10,16.52Z"/></svg>