<svg xmlns="http://www.w3.org/2000/svg" viewBox="0 0 20 20">
  <title>ap</title>
  <path d="M11.79,18.39H2.25A2.25,2.25,0,0,1,0,16.14V5.95A1.89,1.89,0,0,1,1.89,4.06H17a1.89,1.89,0,0,1,1.89,1.89v5.27a.28.28,0,1,1-.55,0V5.95A1.34,1.34,0,0,0,17,4.61H1.89A1.34,1.34,0,0,0,.55,5.95V16.14a1.7,1.7,0,0,0,1.7,1.7h9.54a.28.28,0,0,1,0,.55Z"/>
  <rect x="10.78" y="8.65" width="7.87" height="0.55"/>
  <rect x="0.28" y="8.65" width="7.93" height="0.55"/>
  <path d="M12.07,4.33h-.55V3a.7.7,0,0,0-.7-.7H8.37a.7.7,0,0,0-.7.7V4.33H7.11V3A1.25,1.25,0,0,1,8.37,1.76h2.45A1.26,1.26,0,0,1,12.07,3Z"/>
  <path d="M10.19,11.24H9a1,1,0,0,1-1-1v-3a1,1,0,0,1,1-1h1.19a1,1,0,0,1,1,1v3A1,1,0,0,1,10.19,11.24ZM9,6.91a.4.4,0,0,0-.4.4v3a.4.4,0,0,0,.4.4h1.19a.4.4,0,0,0,.4-.4v-3a.4.4,0,0,0-.4-.4Z"/>
  <path d="M17.16,19.19h-1.4a.28.28,0,0,1-.28-.27v-.16c0-.12,0-.23,0-.35a1.21,1.21,0,0,0,0-.26v0l0,0a1.35,1.35,0,0,0-.22.18l-.24.24-.1.1a.28.28,0,0,1-.2.08h0a.28.28,0,0,1-.19-.08l-1-1a.28.28,0,0,1,0-.39l.17-.17.25-.26a.69.69,0,0,0,.11-.17l-.16,0h-.63a.3.3,0,0,1-.28-.28v-1.4a.28.28,0,0,1,.28-.28h.51a1.18,1.18,0,0,0,.28,0h0v0a.7.7,0,0,0-.11-.15l-.25-.25,0,0-.07-.06,0,0a.28.28,0,0,1,0-.4l1-1a.28.28,0,0,1,.2-.08h0a.28.28,0,0,1,.2.08l.07.07.15.15.08.07a1.94,1.94,0,0,0,.21.19l.09,0s0,0,0-.08a2.92,2.92,0,0,0,0-.39c0-.06,0-.13,0-.19s0-.06,0-.09v0a.28.28,0,0,1,.28-.28h1.4a.28.28,0,0,1,.28.28v.24c0,.13,0,.26,0,.38a.59.59,0,0,0,0,.17.68.68,0,0,0,.17-.11l.26-.25.16-.16a.3.3,0,0,1,.4,0l1,1a.28.28,0,0,1,0,.39l-.1.1-.24.25a1.25,1.25,0,0,0-.17.21l0,0h0a1.23,1.23,0,0,0,.25,0h.51a.28.28,0,0,1,.27.28v1.4a.28.28,0,0,1-.27.28H19l-.1,0a.8.8,0,0,0,.11.17,2.64,2.64,0,0,0,.21.21l.08.07.09.08,0,0a.28.28,0,0,1,0,.4l-1,1a.29.29,0,0,1-.2.08.28.28,0,0,1-.2-.08L18,18.54l-.27-.26a1.08,1.08,0,0,0-.15-.13.23.23,0,0,0-.09,0s0,0,0,.08a4.29,4.29,0,0,0,0,.49c0,.08,0,.16,0,.24A.28.28,0,0,1,17.16,19.19ZM16,18.64h.85a4.38,4.38,0,0,1,0-.51.6.6,0,0,1,.33-.52.63.63,0,0,1,.62.08,1.56,1.56,0,0,1,.23.19l.19.19.6-.61h0a3,3,0,0,1-.25-.26,1.34,1.34,0,0,1-.21-.36.5.5,0,0,1,.24-.64.84.84,0,0,1,.36-.11h.45v-.85h-.25a1.68,1.68,0,0,1-.37,0,.56.56,0,0,1-.36-.87A1.7,1.7,0,0,1,18.7,14l.16-.17-.6-.6-.26.25a1.23,1.23,0,0,1-.35.21.51.51,0,0,1-.67-.28,1.15,1.15,0,0,1-.1-.38c0-.13,0-.26,0-.39H16v.06a3.36,3.36,0,0,1,0,.47.61.61,0,0,1-.35.51.61.61,0,0,1-.62-.11,2.36,2.36,0,0,1-.28-.24l-.07-.07,0,0-.6.6.23.24a1.25,1.25,0,0,1,.19.28.58.58,0,0,1,0,.49.56.56,0,0,1-.36.31,1.67,1.67,0,0,1-.41.06h-.26v.85h.39a1.11,1.11,0,0,1,.39.1.51.51,0,0,1,.27.66,1.24,1.24,0,0,1-.21.35l-.25.26.6.6.16-.15a1.81,1.81,0,0,1,.32-.25A.55.55,0,0,1,16,18a1.69,1.69,0,0,1,.05.39C16,18.47,16,18.56,16,18.64Zm.42-1.49a1.5,1.5,0,1,1,0-3h0a1.51,1.51,0,0,1,1.5,1.5h0a1.51,1.51,0,0,1-1.5,1.51Zm0-2.46a1,1,0,0,0,0,1.9h0a1,1,0,0,0,1-1h0a1,1,0,0,0-1-1Z"/>
</svg>
