<svg xmlns="http://www.w3.org/2000/svg" viewBox="0 0 20 20">
  <title>ap</title>
  <g>
    <path d="M10,18.85H.27A.26.26,0,0,1,0,18.58V1.28A.26.26,0,0,1,.27,1H10a.26.26,0,0,1,.27.27v17.3A.26.26,0,0,1,10,18.85ZM.54,18.31H9.73V1.55H.54Z"/>
    <path d="M19.73,5.88H10a.26.26,0,0,0-.27.27V18.58a.26.26,0,0,0,.27.27h3.38a.27.27,0,0,0,.22-.43h0a.25.25,0,0,0-.22-.11H10.27V6.42h9.19v6.16a.28.28,0,0,0,.14.22h0a.27.27,0,0,0,.41-.22V6.15A.26.26,0,0,0,19.73,5.88Z"/>
    <path d="M9.73,4H.27a.27.27,0,1,1,0-.54H9.73a.27.27,0,1,1,0,.54Z"/>
    <path d="M9.73,6.42H.27a.27.27,0,0,1,0-.54H9.73a.27.27,0,0,1,0,.54Z"/>
    <path d="M9.73,8.85H.27a.27.27,0,1,1,0-.54H9.73a.27.27,0,1,1,0,.54Z"/>
    <path d="M9.73,11.28H.27a.27.27,0,1,1,0-.54H9.73a.27.27,0,1,1,0,.54Z"/>
    <path d="M9.73,13.72H.27a.27.27,0,1,1,0-.54H9.73a.27.27,0,1,1,0,.54Z"/>
    <g>
      <path d="M19.73,8.85H10.27a.27.27,0,0,1,0-.54h9.46a.27.27,0,0,1,0,.54Z"/>
      <path d="M19.73,11.28H10.27a.27.27,0,0,1,0-.54h9.46a.27.27,0,0,1,0,.54Z"/>
      <g>
        <path d="M10.27,13.18h3.3a.29.29,0,0,1,.24.41h0a.28.28,0,0,1-.24.14h-3.3a.27.27,0,1,1,0-.54Z"/>
        <path d="M17.59,19H16.41a.13.13,0,0,1-.14-.14v-.43a.75.75,0,0,0,0-.24c0-.05,0-.08-.05-.11a.16.16,0,0,0-.11,0l-.22.16a1.25,1.25,0,0,0-.19.19l-.08.08c-.05.05-.08.05-.11.05h0l-.11,0-.84-.84a.13.13,0,0,1,0-.19l.14-.14a1.63,1.63,0,0,0,.22-.22A.68.68,0,0,0,15,17c0-.05,0-.08,0-.08a.5.5,0,0,0-.19-.05h-.51a.13.13,0,0,1-.14-.14V15.55a.13.13,0,0,1,.14-.14h.43a.75.75,0,0,0,.24,0s.05,0,.08-.05a.2.2,0,0,0,0-.11.57.57,0,0,0-.11-.16l-.22-.22,0,0-.05-.05,0,0a.14.14,0,0,1-.05-.11.16.16,0,0,1,0-.11l.84-.84s.05,0,.11,0l.11,0,.05.05.14.14.05.05a1,1,0,0,0,.19.16.23.23,0,0,0,.16.05.59.59,0,0,0,.08-.14,1.43,1.43,0,0,0,0-.35v-.3a.13.13,0,0,1,.14-.14h1.19a.13.13,0,0,1,.14.14v.51a.5.5,0,0,0,.05.19c0,.05.05.05.08,0a1.18,1.18,0,0,0,.19-.11.82.82,0,0,0,.22-.22l.14-.14c.05-.05.16-.05.19,0l.84.84a.13.13,0,0,1,0,.19l-.08.08a1.63,1.63,0,0,0-.22.22l-.16.19a.2.2,0,0,0,0,.11s.05.05.11.05a.75.75,0,0,0,.24,0h.43a.13.13,0,0,1,.14.14v1.22a.13.13,0,0,1-.14.14h-.59a.46.46,0,0,0-.14.05c-.05,0,0,.05,0,.08a.44.44,0,0,0,.11.19.63.63,0,0,0,.19.19l.05.05.08.08,0,0a.14.14,0,0,1,.05.11.16.16,0,0,1,0,.11l-.84.84s-.05,0-.11,0l-.11,0-.11-.11a1.63,1.63,0,0,0-.22-.22c-.05,0-.08-.08-.14-.11a.27.27,0,0,0-.16-.05.21.21,0,0,0-.05.14,1.16,1.16,0,0,0,0,.43v.19Q17.72,19,17.59,19Zm-1.05-.27h.92v-.05a2.62,2.62,0,0,1,0-.46.47.47,0,0,1,.22-.35.51.51,0,0,1,.43.05,1.18,1.18,0,0,1,.19.16,1.63,1.63,0,0,1,.22.22l.65-.65,0,0-.05-.05-.22-.22a1.43,1.43,0,0,1-.16-.27.32.32,0,0,1,.16-.41.6.6,0,0,1,.27-.08h.46v-.92h-.3a1.21,1.21,0,0,1-.3,0,.55.55,0,0,1-.3-.22.36.36,0,0,1,.05-.35,1.49,1.49,0,0,1,.19-.24,1.63,1.63,0,0,1,.22-.22L18.54,14l-.05,0-.24.24a.9.9,0,0,1-.27.16.31.31,0,0,1-.43-.19,1,1,0,0,1-.08-.3V13.5h-.92v.16a1.78,1.78,0,0,1,0,.38.43.43,0,0,1-.24.35.44.44,0,0,1-.43-.08,1.54,1.54,0,0,1-.22-.19l-.05-.05L15.46,14l-.65.65,0,0a1.75,1.75,0,0,1,.22.24.59.59,0,0,1,.14.22.45.45,0,0,1,0,.32.48.48,0,0,1-.24.22,1.62,1.62,0,0,1-.32.05h-.32v.92h.43a.62.62,0,0,1,.3.08.33.33,0,0,1,.16.43.9.9,0,0,1-.16.27l-.24.24-.05,0,.65.65.19-.19a1.49,1.49,0,0,1,.24-.19.41.41,0,0,1,.35-.05.37.37,0,0,1,.22.27,1.21,1.21,0,0,1,0,.3C16.54,18.5,16.54,18.61,16.54,18.72ZM17,17.26a1.07,1.07,0,0,1-.81-.35,1.17,1.17,0,0,1-.35-.81,1.12,1.12,0,0,1,.35-.84,1.19,1.19,0,0,1,.84-.35h0a1.15,1.15,0,0,1,1.16,1.16h0A1.2,1.2,0,0,1,17,17.26Zm0-2.05a.78.78,0,0,0-.62.27.94.94,0,0,0-.27.65.88.88,0,0,0,.27.62A.93.93,0,0,0,17,17h0a.9.9,0,0,0,.89-.89h0A.91.91,0,0,0,17,15.2Z"/>
      </g>
    </g>
    <path d="M9.73,16.15H.27a.27.27,0,1,1,0-.54H9.73a.27.27,0,0,1,0,.54Z"/>
    <path d="M13.78,15.88a.27.27,0,0,1-.27.27H10a.27.27,0,0,1,0-.54h3.54a.24.24,0,0,1,.24.27Z"/>
    <path d="M12.43,18.58a.26.26,0,0,1-.27-.27V6.42a.27.27,0,0,1,.54,0V18.31A.26.26,0,0,1,12.43,18.58Z"/>
    <path d="M15.14,6.42v6.27a.28.28,0,0,1-.14.24h0a.27.27,0,0,1-.41-.24V6.42a.27.27,0,0,1,.54,0Z"/>
    <path d="M17.57,6.42v6.24a.27.27,0,0,1-.27.27h0a.27.27,0,0,1-.27-.27V6.42a.27.27,0,0,1,.54,0Z"/>
    <g>
      <rect x="7.57" y="1.28" width="2.43" height="17.3"/>
      <path d="M10.14,18.72H7.43V1.15h2.7ZM7.7,18.45H9.86v-17H7.7Z"/>
    </g>
  </g>
</svg>
