<svg xmlns="http://www.w3.org/2000/svg" viewBox="0 0 20 20">
  <title>ap</title>
  <g>
    <path d="M6.62,11.65A2.66,2.66,0,1,1,9.32,9,2.66,2.66,0,0,1,6.62,11.65Zm.06-4.77A2.11,2.11,0,1,0,8.77,9,2.11,2.11,0,0,0,6.69,6.89Z"/>
    <path d="M12.29,19.1.77,19a.27.27,0,0,1-.27-.28,6,6,0,0,1,12.07.15A.27.27,0,0,1,12.29,19.1ZM1.06,18.41l11,.14a5.49,5.49,0,0,0-11-.14Z"/>
  </g>
  <path d="M17.64,6.2h0l-1.19,0A.14.14,0,0,1,16.31,6V5.91c0-.1,0-.2,0-.3a1.1,1.1,0,0,0,0-.25.11.11,0,0,0-.18-.08,1.22,1.22,0,0,0-.21.16l-.2.2-.09.09a.11.11,0,0,1-.1,0,.14.14,0,0,1-.1,0l-.83-.85a.14.14,0,0,1,0-.19l.14-.14.22-.23a.69.69,0,0,0,.12-.19A.06.06,0,0,0,15,4a.59.59,0,0,0-.2-.06H14.3a.15.15,0,0,1-.14-.14l0-1.19a.14.14,0,0,1,.14-.13h.44a1.06,1.06,0,0,0,.26,0,.13.13,0,0,0,.08-.05.13.13,0,0,0,0-.1.69.69,0,0,0-.1-.15l-.22-.23,0,0-.07-.06,0,0a.14.14,0,0,1,0-.2l.86-.84a.12.12,0,0,1,.1,0,.14.14,0,0,1,.1,0l.06.06.13.13.06.06a1.71,1.71,0,0,0,.19.17c.07,0,.13.07.16.05s.06-.07.08-.15a2.54,2.54,0,0,0,0-.35c0-.05,0-.11,0-.16s0-.05,0-.08v0a.14.14,0,0,1,0-.1.12.12,0,0,1,.1,0l1.19,0a.14.14,0,0,1,.13.14v.2c0,.11,0,.22,0,.33a.6.6,0,0,0,0,.2.06.06,0,0,0,.09,0,.68.68,0,0,0,.19-.11L18.41,1l.13-.12a.16.16,0,0,1,.21,0l.83.85a.14.14,0,0,1,0,.19L19.48,2l-.21.2a1.14,1.14,0,0,0-.16.19.15.15,0,0,0,0,.12.15.15,0,0,0,.11.07,1.12,1.12,0,0,0,.24,0h.44a.14.14,0,0,1,.13.14L20,3.9a.15.15,0,0,1-.14.15h-.6a.38.38,0,0,0-.15,0c-.05,0,0,.07,0,.08a.75.75,0,0,0,.12.2,2.16,2.16,0,0,0,.18.19l.06.06.08.07,0,0a.14.14,0,0,1,0,.2l-.85.85a.11.11,0,0,1-.1,0,.14.14,0,0,1-.1,0l-.09-.1-.23-.23L18,5.33a.2.2,0,0,0-.17,0s-.06.07-.07.14a3.7,3.7,0,0,0,0,.43c0,.07,0,.13,0,.2A.14.14,0,0,1,17.64,6.2Zm-1.05-.29h.92V5.86a4,4,0,0,1,0-.46A.43.43,0,0,1,17.76,5a.45.45,0,0,1,.43.07,1.21,1.21,0,0,1,.18.15l.23.23.65-.65,0,0-.06-.06a2.46,2.46,0,0,1-.2-.21,1,1,0,0,1-.16-.28A.33.33,0,0,1,19,3.85a.65.65,0,0,1,.26-.08h.48V2.85h-.31a1.36,1.36,0,0,1-.3,0,.4.4,0,0,1-.29-.23.4.4,0,0,1,0-.36A1.36,1.36,0,0,1,19.08,2l.21-.21-.64-.66,0,0-.24.23a.94.94,0,0,1-.27.16.34.34,0,0,1-.44-.19.86.86,0,0,1-.07-.29c0-.12,0-.23,0-.35V.64h-.92s0,.1,0,.15a2.83,2.83,0,0,1,0,.39.43.43,0,0,1-.24.36A.44.44,0,0,1,16,1.43a1.9,1.9,0,0,1-.22-.2l-.06-.06-.1-.1-.66.64,0,0,.23.24a1,1,0,0,1,.14.21.39.39,0,0,1,0,.33.38.38,0,0,1-.25.21,1.32,1.32,0,0,1-.33,0h-.31V3.7h.42a.85.85,0,0,1,.29.08.33.33,0,0,1,.17.44,1,1,0,0,1-.17.27l-.24.24,0,0,.64.66.2-.19A1.45,1.45,0,0,1,16,5a.37.37,0,0,1,.58.24,1.33,1.33,0,0,1,0,.31C16.59,5.7,16.59,5.81,16.59,5.91Zm.49-1.46h0a1.18,1.18,0,0,1-.81-2,1.18,1.18,0,0,1,2,.86h0A1.18,1.18,0,0,1,17.08,4.45Zm0-2.08a.91.91,0,1,0,.91.92.9.9,0,0,0-.91-.92Zm1,.92h0Z"/>
  <path d="M15.91,13.53h0l-1.48,0a.14.14,0,0,1-.13-.14v-.17c0-.13,0-.25,0-.38a1.38,1.38,0,0,0,0-.31A.16.16,0,0,0,14,12.4a1.55,1.55,0,0,0-.27.21l-.26.25-.11.1a.1.1,0,0,1-.1,0,.14.14,0,0,1-.1,0l-1-1.06a.14.14,0,0,1,0-.19l.18-.17c.1-.09.19-.18.28-.28a.89.89,0,0,0,.15-.25.11.11,0,0,0-.06-.16.76.76,0,0,0-.26-.07h-.66a.16.16,0,0,1-.15-.14l0-1.48a.14.14,0,0,1,0-.1.13.13,0,0,1,.1,0h.55a1.36,1.36,0,0,0,.33,0,.18.18,0,0,0,.12-.09.19.19,0,0,0,0-.16.89.89,0,0,0-.13-.2l-.27-.28,0,0-.08-.07,0,0a.14.14,0,0,1,0-.2l1.07-1a.13.13,0,0,1,.1,0,.14.14,0,0,1,.1,0l.07.07.16.17.08.08A2.13,2.13,0,0,0,14,7.4a.27.27,0,0,0,.23.07.26.26,0,0,0,.11-.21,3.15,3.15,0,0,0,0-.44c0-.07,0-.13,0-.2s0-.07,0-.1V6.47a.14.14,0,0,1,.14-.13h0l1.48,0a.14.14,0,0,1,.13.14v.26c0,.14,0,.27,0,.41a.8.8,0,0,0,.06.26.11.11,0,0,0,.16.07.9.9,0,0,0,.25-.15l.29-.27.17-.16a.16.16,0,0,1,.21,0l1,1.06a.14.14,0,0,1,0,.19l-.11.11-.26.26a1.47,1.47,0,0,0-.2.24.22.22,0,0,0,0,.18.22.22,0,0,0,.15.11,1.41,1.41,0,0,0,.3,0h.54a.14.14,0,0,1,.13.14l0,1.48a.14.14,0,0,1-.14.13H17.9a.5.5,0,0,0-.2.06.1.1,0,0,0-.06.14,1,1,0,0,0,.15.26,2.87,2.87,0,0,0,.23.24l.07.07.1.09,0,0a.14.14,0,0,1,0,.2L17.19,13a.14.14,0,0,1-.1,0h0a.14.14,0,0,1-.1,0l-.11-.12-.28-.29a1.25,1.25,0,0,0-.18-.15.27.27,0,0,0-.24-.06.25.25,0,0,0-.11.21,4.65,4.65,0,0,0,0,.54c0,.08,0,.17,0,.25A.14.14,0,0,1,15.91,13.53Zm-1.34-.29,1.21,0v-.11a5,5,0,0,1,0-.57.5.5,0,0,1,.26-.42.52.52,0,0,1,.51.08,1.49,1.49,0,0,1,.22.19l.29.29,0,0,.86-.85-.05,0-.07-.07a3,3,0,0,1-.25-.27,1.23,1.23,0,0,1-.19-.34.38.38,0,0,1,.19-.48.75.75,0,0,1,.31-.09h.62l0-1.21h-.42a1.65,1.65,0,0,1-.36,0,.43.43,0,0,1-.28-.69,1.69,1.69,0,0,1,.24-.29L18,8.07h0l-.84-.86-.08.07c-.1.1-.2.2-.3.29a1.16,1.16,0,0,1-.33.19.39.39,0,0,1-.51-.22,1.05,1.05,0,0,1-.08-.35c0-.14,0-.29,0-.43V6.63l-1.21,0v0c0,.06,0,.13,0,.19a3.45,3.45,0,0,1,0,.47.51.51,0,0,1-.28.42.51.51,0,0,1-.5-.1,2.33,2.33,0,0,1-.27-.25l-.08-.07-.14-.15L12.47,8l0,0,0,0,.28.29a1.15,1.15,0,0,1,.17.26A.45.45,0,0,1,13,9a.44.44,0,0,1-.29.24,1.61,1.61,0,0,1-.4.05H11.9l0,1.21h.56a1,1,0,0,1,.35.1.38.38,0,0,1,.2.51,1.15,1.15,0,0,1-.2.33c-.09.1-.19.2-.29.3l-.08.07.84.86h0l.27-.26a1.8,1.8,0,0,1,.32-.24.43.43,0,0,1,.67.28,1.63,1.63,0,0,1,0,.38c0,.13,0,.26,0,.39Zm.64-1.88h0a1.43,1.43,0,0,1-1-2.46,1.43,1.43,0,0,1,2.43,1h0A1.44,1.44,0,0,1,15.21,11.37Zm0-2.59a1.16,1.16,0,0,0,0,2.32h0a1.16,1.16,0,0,0,0-2.32Zm1.3,1.17h0Z"/>
</svg>
