<svg xmlns="http://www.w3.org/2000/svg" viewBox="0 0 20 20">
  <title>ap</title>
  <g>
    <path d="M9.59,12.65a2.9,2.9,0,0,1-2.9-2.9c0-1.51,2.45-5.35,2.55-5.51a.27.27,0,0,1,.5.17c-.1,1.09,0,2.9.73,3.14,1.34.45,2,1.19,2,2.2A2.9,2.9,0,0,1,9.59,12.65ZM9.17,5.4C8.37,6.76,7.24,8.85,7.24,9.75a2.35,2.35,0,0,0,4.7,0c0-.76-.54-1.31-1.64-1.68C9.41,7.77,9.2,6.39,9.17,5.4Z"/>
    <path d="M10.14,15.89a.27.27,0,0,1-.23-.43,2.9,2.9,0,0,0,.27-3c-1.26-1-1.86-2.67-1.75-4.95A13.81,13.81,0,0,1,9,4.3a.27.27,0,1,1,.52.17c0,.05-1.73,5.52,1,7.56l.07.08a3.4,3.4,0,0,1-.26,3.67A.27.27,0,0,1,10.14,15.89Z"/>
    <path d="M9,10.56a.27.27,0,0,1-.24-.41l1.37-2.48a.27.27,0,0,1,.48.27L9.26,10.42A.27.27,0,0,1,9,10.56Z"/>
    <path d="M8.56,8.54a.27.27,0,0,1-.24-.15L7.7,7.18a.27.27,0,0,1,.49-.25l.62,1.21a.27.27,0,0,1-.12.37A.27.27,0,0,1,8.56,8.54Z"/>
    <path d="M10.11,16.08H7.68a.89.89,0,0,1-.88-.74l0-.18c0-.12,0-.24-.07-.36A6.17,6.17,0,0,0,6,13.05c-.37-.65-.76-1.28-1.14-1.89l-.05-.08a14,14,0,0,1-1-1.71,7.34,7.34,0,0,1-.59-1.9c0-.1,0-.2,0-.31l0-.14a.3.3,0,0,1,0,0V6.43l0-.16,0-.28A6.42,6.42,0,0,1,3.7,4.33,6.74,6.74,0,0,1,6.9.76,6.49,6.49,0,0,1,9.25,0l.42,0h.76l.28,0c.21,0,.42,0,.63.09a6.47,6.47,0,0,1,2.34,1,6.75,6.75,0,0,1,2.59,3.14,6.36,6.36,0,0,1,.43,1.65c0,.13,0,.26,0,.38l0,.17V7a.27.27,0,0,1,0,.06v0l0,.28c0,.21-.06.42-.11.64a8.85,8.85,0,0,1-1.08,2.51l-.42.68c-.27.44-.55.9-.82,1.36a7.32,7.32,0,0,0-1,2.76.89.89,0,0,1-.88.77ZM3.79,7l0,.13c0,.1,0,.19,0,.29a6.81,6.81,0,0,0,.55,1.76,13.56,13.56,0,0,0,.92,1.64l.05.08c.38.62.78,1.26,1.15,1.91a6.72,6.72,0,0,1,.73,1.9c0,.13,0,.26.07.39l0,.18a.35.35,0,0,0,.34.29h4.73a.34.34,0,0,0,.34-.29,7.85,7.85,0,0,1,1-3c.27-.46.55-.93.82-1.37l.42-.68a8.31,8.31,0,0,0,1-2.35c0-.19.07-.38.1-.59l0-.29V6.48l0-.15c0-.12,0-.25,0-.37a5.79,5.79,0,0,0-.4-1.51,6.21,6.21,0,0,0-2.38-2.89A5.93,5.93,0,0,0,11.23.67c-.19,0-.38-.06-.59-.08l-.29,0H9.6l-.3,0a6,6,0,0,0-2.15.65,6.2,6.2,0,0,0-3,3.29,5.88,5.88,0,0,0-.37,1.52l0,.27V7Z"/>
    <path d="M12.33,18.08H7.95a.82.82,0,0,1,0-1.64h4.38a.82.82,0,0,1,0,1.64ZM7.95,17a.27.27,0,0,0,0,.55h4.38a.27.27,0,1,0,0-.55Z"/>
    <path d="M11.23,20H9a.82.82,0,0,1,0-1.64h2.19a.82.82,0,1,1,0,1.64ZM9,18.9a.27.27,0,1,0,0,.55h2.19a.27.27,0,1,0,0-.55Z"/>
  </g>
</svg>
