<svg xmlns="http://www.w3.org/2000/svg" viewBox="0 0 20 20">
  <title>ap</title>
  <g>
    <path d="M11.87,18H2.26A2.27,2.27,0,0,1,0,15.77V5.51A1.91,1.91,0,0,1,1.91,3.6H17.15a1.91,1.91,0,0,1,1.91,1.91v5.31a.28.28,0,1,1-.56,0V5.51a1.35,1.35,0,0,0-1.35-1.35H1.91A1.35,1.35,0,0,0,.56,5.51V15.77a1.71,1.71,0,0,0,1.71,1.71h9.61a.28.28,0,1,1,0,.56Z"/>
    <rect x="10.85" y="8.23" width="7.92" height="0.56"/>
    <rect x="0.28" y="8.23" width="7.99" height="0.56"/>
    <path d="M12.15,3.88h-.56V2.56a.71.71,0,0,0-.71-.71H8.42a.71.71,0,0,0-.71.71V3.88H7.16V2.55A1.26,1.26,0,0,1,8.42,1.29h2.46a1.26,1.26,0,0,1,1.26,1.26Z"/>
    <path d="M10.26,10.84H9.05a1,1,0,0,1-1-1v-3a1,1,0,0,1,1-1h1.2a1,1,0,0,1,1,1v3A1,1,0,0,1,10.26,10.84ZM9.05,6.47a.41.41,0,0,0-.41.41v3a.41.41,0,0,0,.41.41h1.2a.41.41,0,0,0,.41-.41v-3a.41.41,0,0,0-.41-.41Z"/>
    <path d="M17.28,18.71H15.86a.14.14,0,0,1-.14-.14v-.16c0-.12,0-.24,0-.36a1.32,1.32,0,0,0,0-.3.19.19,0,0,0-.09-.13.19.19,0,0,0-.16,0,1.46,1.46,0,0,0-.25.2l-.24.24-.1.1a.14.14,0,0,1-.1,0h0a.14.14,0,0,1-.1,0l-1-1a.14.14,0,0,1,0-.19l.17-.17.26-.27a.84.84,0,0,0,.14-.24.1.1,0,0,0-.06-.14.71.71,0,0,0-.24-.06h-.63a.16.16,0,0,1-.15-.14V14.57a.14.14,0,0,1,.14-.14h.52a1.3,1.3,0,0,0,.31,0,.17.17,0,0,0,.11-.08.18.18,0,0,0,0-.14.84.84,0,0,0-.13-.19l-.26-.26,0,0-.08-.07,0,0a.14.14,0,0,1,0-.2l1-1a.14.14,0,0,1,.1,0h0a.14.14,0,0,1,.1,0l.07.07.16.16.08.07a2,2,0,0,0,.23.21.24.24,0,0,0,.22.06s.09-.09.1-.19a3,3,0,0,0,0-.42c0-.06,0-.13,0-.19s0-.06,0-.1v0a.14.14,0,0,1,.14-.14h1.41a.14.14,0,0,1,.14.14v.24c0,.13,0,.26,0,.4a.74.74,0,0,0,.06.25.1.1,0,0,0,.14.06.83.83,0,0,0,.24-.14l.27-.26.16-.15a.16.16,0,0,1,.21,0l1,1a.14.14,0,0,1,0,.2l-.1.1-.25.25a1.36,1.36,0,0,0-.19.23.2.2,0,0,0,0,.17.2.2,0,0,0,.14.09,1.34,1.34,0,0,0,.29,0h.52a.14.14,0,0,1,.14.14V16a.14.14,0,0,1-.14.14h-.71a.47.47,0,0,0-.18.06.09.09,0,0,0-.05.12.92.92,0,0,0,.14.25,2.71,2.71,0,0,0,.22.23l.07.07.1.09,0,0a.14.14,0,0,1,0,.2l-1,1a.14.14,0,0,1-.1,0h0a.14.14,0,0,1-.1,0l-.12-.12-.26-.26a1.19,1.19,0,0,0-.17-.14.25.25,0,0,0-.22-.05.23.23,0,0,0-.09.19,4.41,4.41,0,0,0,0,.51c0,.08,0,.16,0,.24A.14.14,0,0,1,17.28,18.71ZM16,18.43h1.14v-.1a4.7,4.7,0,0,1,0-.55.49.49,0,0,1,.25-.41.5.5,0,0,1,.49.07,1.43,1.43,0,0,1,.21.18l.27.27,0,0,.8-.81,0,0L19.09,17a2.93,2.93,0,0,1-.24-.25,1.2,1.2,0,0,1-.19-.32.37.37,0,0,1,.18-.47.72.72,0,0,1,.3-.1h.59V14.71h-.39a1.58,1.58,0,0,1-.35,0,.42.42,0,0,1-.28-.67,1.61,1.61,0,0,1,.22-.28l.25-.26h0l-.8-.8-.07.07L18,13a1.11,1.11,0,0,1-.32.19.38.38,0,0,1-.5-.2,1,1,0,0,1-.09-.34c0-.14,0-.28,0-.41v-.1H16c0,.06,0,.12,0,.19a3.26,3.26,0,0,1,0,.45.49.49,0,0,1-.27.41.5.5,0,0,1-.49-.09,2.27,2.27,0,0,1-.27-.23l-.07-.07-.13-.13-.8.81h0l0,0,.27.28a1.12,1.12,0,0,1,.17.25.44.44,0,0,1,0,.37.43.43,0,0,1-.28.23,1.55,1.55,0,0,1-.38.06h-.4v1.13h.52a1,1,0,0,1,.34.09.37.37,0,0,1,.2.49,1.11,1.11,0,0,1-.19.32c-.09.1-.18.19-.28.28l-.07.07.8.8.25-.25a1.71,1.71,0,0,1,.3-.24.42.42,0,0,1,.66.27A1.57,1.57,0,0,1,16,18c0,.12,0,.25,0,.37Zm.56-1.78a1.38,1.38,0,1,1,0-2.75h0a1.38,1.38,0,0,1,1.38,1.37h0a1.38,1.38,0,0,1-1.37,1.38Zm0-2.47a1.1,1.1,0,0,0,0,2.19h0a1.1,1.1,0,0,0,1.1-1.1h0a1.1,1.1,0,0,0-1.1-1.1Z"/>
  </g>
</svg>
