<svg xmlns="http://www.w3.org/2000/svg" viewBox="0 0 20 20">
  <title>ap</title>
  <g>
    <path d="M3,9.65A1.76,1.76,0,1,1,4.79,7.89,1.76,1.76,0,0,1,3,9.65ZM3,6.73A1.16,1.16,0,1,0,4.2,7.89,1.16,1.16,0,0,0,3,6.73Z"/>
    <path d="M5.77,13.66H.3a.3.3,0,0,1-.3-.3v-.55a3,3,0,1,1,6.07,0v.55A.3.3,0,0,1,5.77,13.66ZM.59,13.07H5.47v-.25a2.44,2.44,0,0,0-4.88,0Z"/>
    <path d="M16.69,3.51a1.76,1.76,0,1,1,1.76-1.76A1.76,1.76,0,0,1,16.69,3.51Zm0-2.92a1.16,1.16,0,1,0,1.16,1.16A1.16,1.16,0,0,0,16.69.59Z"/>
    <path d="M19.42,7.53H13.95a.3.3,0,0,1-.3-.3V6.68a3,3,0,0,1,6.07,0v.55A.3.3,0,0,1,19.42,7.53Zm-5.18-.59h4.88V6.68a2.44,2.44,0,0,0-4.88,0Z"/>
    <path d="M16.59,15.68a1.76,1.76,0,1,1,1.76-1.76A1.76,1.76,0,0,1,16.59,15.68Zm0-2.92a1.16,1.16,0,1,0,1.16,1.16A1.16,1.16,0,0,0,16.59,12.76Z"/>
    <path d="M19.32,19.69H13.85a.3.3,0,0,1-.3-.3v-.55a3,3,0,1,1,6.07,0v.55A.3.3,0,0,1,19.32,19.69Zm-5.18-.59H19v-.25a2.44,2.44,0,0,0-4.88,0Z"/>
    <path d="M12.31,17.71H9.14a.3.3,0,0,1-.3-.3V3.76a.3.3,0,0,1,.3-.3h2.67a.3.3,0,0,1,0,.59H9.44V17.11h2.87a.3.3,0,0,1,0,.59Z"/>
    <path d="M9.14,10.5H6.27a.3.3,0,0,1,0-.59H9.14a.3.3,0,0,1,0,.59Z"/>
  </g>
</svg>
