<svg xmlns="http://www.w3.org/2000/svg" viewBox="0 0 20 20">
  <title>ap</title>
  <g>
    <path d="M4.49,14.05A1.75,1.75,0,1,1,6.24,12.3,1.76,1.76,0,0,1,4.49,14.05Zm0-3A1.22,1.22,0,1,0,5.71,12.3,1.23,1.23,0,0,0,4.49,11.08Z"/>
    <path d="M8.09,19H.89a.26.26,0,0,1-.26-.26v-.49A3.37,3.37,0,0,1,4,14.87H5a3.37,3.37,0,0,1,3.37,3.37v.49A.26.26,0,0,1,8.09,19Zm-6.93-.53H7.82v-.23A2.84,2.84,0,0,0,5,15.4H4a2.84,2.84,0,0,0-2.84,2.84Z"/>
    <path d="M4.49,14.05A1.75,1.75,0,1,1,6.24,12.3,1.76,1.76,0,0,1,4.49,14.05Zm0-3A1.22,1.22,0,1,0,5.71,12.3,1.23,1.23,0,0,0,4.49,11.08Z"/>
    <path d="M8.09,19H.89a.26.26,0,0,1-.26-.26v-.49A3.37,3.37,0,0,1,4,14.87H5a3.37,3.37,0,0,1,3.37,3.37v.49A.26.26,0,0,1,8.09,19Zm-6.93-.53H7.82v-.23A2.84,2.84,0,0,0,5,15.4H4a2.84,2.84,0,0,0-2.84,2.84Z"/>
  </g>
  <g>
    <path d="M9.78,14.05a1.75,1.75,0,1,1,1.75-1.75A1.76,1.76,0,0,1,9.78,14.05Zm0-3A1.22,1.22,0,1,0,11,12.3,1.23,1.23,0,0,0,9.78,11.08Z"/>
    <path d="M12.31,16.16a.26.26,0,0,1-.17-.06,2.84,2.84,0,0,0-1.86-.7h-1a2.81,2.81,0,0,0-1.3.31.26.26,0,1,1-.24-.47,3.38,3.38,0,0,1,1.54-.37h1a3.37,3.37,0,0,1,2.21.83.26.26,0,0,1-.17.46Z"/>
    <path d="M9.78,14.05a1.75,1.75,0,1,1,1.75-1.75A1.76,1.76,0,0,1,9.78,14.05Zm0-3A1.22,1.22,0,1,0,11,12.3,1.23,1.23,0,0,0,9.78,11.08Z"/>
    <path d="M11.57,19H9.14a.26.26,0,1,1,0-.53h2.44a.26.26,0,0,1,0,.53Z"/>
  </g>
  <g>
    <path d="M16.14,14.05a1.75,1.75,0,1,1,1.75-1.75A1.76,1.76,0,0,1,16.14,14.05Zm0-3a1.22,1.22,0,1,0,1.22,1.22A1.23,1.23,0,0,0,16.14,11.08Z"/>
    <path d="M19.74,19h-7.2a.26.26,0,0,1-.26-.26v-.49a3.37,3.37,0,0,1,3.37-3.37h1A3.37,3.37,0,0,1,20,18.24v.49A.26.26,0,0,1,19.74,19Zm-6.93-.53h6.67v-.23a2.84,2.84,0,0,0-2.84-2.84h-1a2.84,2.84,0,0,0-2.84,2.84Z"/>
    <path d="M16.14,14.05a1.75,1.75,0,1,1,1.75-1.75A1.76,1.76,0,0,1,16.14,14.05Zm0-3a1.22,1.22,0,1,0,1.22,1.22A1.23,1.23,0,0,0,16.14,11.08Z"/>
    <path d="M19.74,19h-7.2a.26.26,0,0,1-.26-.26v-.49a3.37,3.37,0,0,1,3.37-3.37h1A3.37,3.37,0,0,1,20,18.24v.49A.26.26,0,0,1,19.74,19Zm-6.93-.53h6.67v-.23a2.84,2.84,0,0,0-2.84-2.84h-1a2.84,2.84,0,0,0-2.84,2.84Z"/>
  </g>
  <path d="M16.29,9.21a.26.26,0,0,1-.19-.08L14.33,7.29H11.25L9.89,9.1a.26.26,0,0,1-.22.11.27.27,0,0,1-.21-.12L8.32,7.29H6.13L4.31,9.13a.26.26,0,0,1-.45-.18l0-1.66H1.74A.26.26,0,0,1,1.47,7V1.26A.26.26,0,0,1,1.74,1H18.4a.26.26,0,0,1,.26.26V7a.26.26,0,0,1-.26.26H16.5l.06,1.64a.26.26,0,0,1-.16.25ZM6,6.76H8.47a.26.26,0,0,1,.22.12l1,1.59,1.21-1.61a.26.26,0,0,1,.21-.11h3.32a.26.26,0,0,1,.19.08L16,8.26,16,7a.26.26,0,0,1,.26-.27h1.91V1.53H2V6.76H4.06A.26.26,0,0,1,4.33,7l0,1.3L5.83,6.84A.26.26,0,0,1,6,6.76Z"/>
  <g>
    <path d="M7.83,4.79A.81.81,0,1,1,8.64,4,.81.81,0,0,1,7.83,4.79Zm0-1.36A.55.55,0,1,0,8.38,4,.55.55,0,0,0,7.83,3.43Z"/>
    <path d="M10.21,4.79A.81.81,0,1,1,11,4,.81.81,0,0,1,10.21,4.79Zm0-1.36a.55.55,0,1,0,.55.55A.55.55,0,0,0,10.21,3.43Z"/>
    <path d="M12.58,4.79A.81.81,0,1,1,13.39,4,.81.81,0,0,1,12.58,4.79Zm0-1.36a.55.55,0,1,0,.55.55A.55.55,0,0,0,12.58,3.43Z"/>
  </g>
</svg>
