<svg xmlns="http://www.w3.org/2000/svg" viewBox="0 0 20 20">
  <title>ap</title>
  <g>
    <path d="M10,20a3.41,3.41,0,0,1-1.5-.6L8,19.13a11.78,11.78,0,0,1-5.22-6.29A26.42,26.42,0,0,1,1.05,4.75C1,4.51,1,4.26,1,4s0-.51,0-.76a.65.65,0,0,1,.51-.75L5.92,1.17,9.69,0a1.14,1.14,0,0,1,.63,0l3.48,1L18.51,2.5a.65.65,0,0,1,.52.8c0,.13,0,.26,0,.39v.18a29.2,29.2,0,0,1-1.76,8.95A11.53,11.53,0,0,1,12,19.13l-.51.27A3.49,3.49,0,0,1,10,20ZM1.58,3.13s0,0,0,.08c0,.26,0,.52,0,.78s0,.48,0,.72a25.82,25.82,0,0,0,1.68,7.9,11.18,11.18,0,0,0,4.94,6l.51.28c1.2.66,1.2.66,2.41,0l.51-.28a10.79,10.79,0,0,0,4.9-6,28.61,28.61,0,0,0,1.72-8.76V3.65c0-.15,0-.29,0-.44a.36.36,0,0,0,0-.08h0l-.08,0L13.62,1.69l-3.47-1a.52.52,0,0,0-.27,0L6.1,1.77,1.65,3.11Z"/>
    <path d="M10.74,15.05a.31.31,0,0,1-.31-.26L9.14,7.6,8.22,12a.31.31,0,0,1-.59.08l-1.48-3H3.52a.31.31,0,0,1,0-.63H6.35a.31.31,0,0,1,.28.17L7.79,11,8.86,5.89a.31.31,0,0,1,.31-.25h0a.31.31,0,0,1,.3.26l1.15,6.42.74-8.9a.31.31,0,0,1,.62,0l1.2,5.09h1.95a.31.31,0,1,1,0,.63h-2.2a.31.31,0,0,1-.31-.24l-.8-3.4L11,14.76a.31.31,0,0,1-.3.29Z"/>
  </g>
</svg>
