<svg xmlns="http://www.w3.org/2000/svg" viewBox="0 0 20 20">
  <title>ap</title>
  <path d="M19.31,20H.57a.26.26,0,0,1,0-.53H19V1.26a.26.26,0,1,1,.53,0V19.74A.26.26,0,0,1,19.31,20Z"/>
  <path d="M7.69,20H5.32a.26.26,0,0,1-.26-.26V12.61a.26.26,0,0,1,.26-.26H7.69a.26.26,0,0,1,.26.26v7.13A.26.26,0,0,1,7.69,20Zm-2.11-.53H7.43v-6.6H5.58Z"/>
  <path d="M12.71,20H10.33a.26.26,0,0,1-.26-.26V7.86a.26.26,0,0,1,.26-.26h2.38a.26.26,0,0,1,.26.26V19.74A.26.26,0,0,1,12.71,20Zm-2.11-.53h1.85V8.13H10.6Z"/>
  <path d="M17.19,20H14.82a.26.26,0,0,1-.26-.26V3.11a.26.26,0,0,1,.26-.26h2.38a.26.26,0,0,1,.26.26V19.74A.26.26,0,0,1,17.19,20Zm-2.11-.53h1.85V3.38H15.08Z"/>
  <g>
    <path d="M2.54,5.49l.28-.43a1,1,0,0,0,.62.26c.25,0,.36-.1.36-.3,0-.45-1.15-.44-1.15-1.23A.81.81,0,0,1,3.55,3a1.08,1.08,0,0,1,.83.37l-.32.37a.67.67,0,0,0-.48-.22c-.21,0-.32.08-.32.28,0,.42,1.15.38,1.15,1.21a.85.85,0,0,1-1,.86A1.45,1.45,0,0,1,2.54,5.49Zm.77-3h.43v.63H3.3Zm0,3h.43v.69H3.3Z"/>
    <path d="M3.47,7.29a2.9,2.9,0,1,1,2.9-2.9A2.91,2.91,0,0,1,3.47,7.29ZM3.47,2A2.37,2.37,0,1,0,5.85,4.39,2.38,2.38,0,0,0,3.47,2Z"/>
  </g>
</svg>
