<svg xmlns="http://www.w3.org/2000/svg" viewBox="0 0 20 20">
  <title>ap</title>
  <g>
    <path d="M14.38,13.43a.31.31,0,0,1-.25-.12l-2-2.6c-.52.27-1.61.77-2.23.51A2.57,2.57,0,0,1,8.06,9.14L5.83,11A1.22,1.22,0,0,1,4.24,9.12c1.09-1,3-2.76,3.67-3.41,1-1,3.88.53,4.86,1.08l3.58-3.58a.31.31,0,0,1,.44,0l3.12,3.12a.31.31,0,0,1,0,.47l-1.34,1a2.37,2.37,0,0,0-.92,1.61,5.32,5.32,0,0,1-.12.65c-.33,1.32-2.66,3.1-2.93,3.3A.31.31,0,0,1,14.38,13.43ZM12.19,10a.31.31,0,0,1,.25.12l2,2.57c.78-.62,2.24-1.92,2.45-2.76A4.7,4.7,0,0,0,17,9.34a3,3,0,0,1,1.17-2l1-.79L16.56,3.87,13,7.4a.31.31,0,0,1-.38,0c-1.47-.86-3.78-1.83-4.31-1.3S5.75,8.59,4.66,9.58a.59.59,0,0,0,.78.9l2.8-2.29a.31.31,0,0,1,.49.36c0,.05-.47,1.3,1.4,2.1.34.15,1.34-.28,1.91-.61A.31.31,0,0,1,12.19,10Z"/>
    <path d="M13.6,15.19h-.15a1.35,1.35,0,0,1-.91-.5l-.6-.75a.31.31,0,1,1,.49-.39l.6.75a.73.73,0,0,0,1.18-.86l-.09-.14a.31.31,0,1,1,.52-.35l.09.14a1.36,1.36,0,0,1-1.13,2.11Z"/>
    <path d="M12.32,16.26a1.09,1.09,0,0,1-.85-.41l-.78-1a.31.31,0,1,1,.49-.39l.78,1a.47.47,0,0,0,.73-.59l-.75-.93a.31.31,0,1,1,.49-.39l.75.93a1.1,1.1,0,0,1-.85,1.78Z"/>
    <path d="M10.76,16.88a1.09,1.09,0,0,1-.85-.41l-.78-1a.31.31,0,1,1,.49-.39l.78,1a.47.47,0,0,0,.73-.59l-.75-.93a.31.31,0,1,1,.49-.39l.75.93a1.1,1.1,0,0,1-.85,1.78Z"/>
    <path d="M9.2,17.51a1.09,1.09,0,0,1-.85-.41l-.78-1a.31.31,0,1,1,.49-.39l.78,1a.47.47,0,0,0,.73-.59l-.75-.93a.31.31,0,1,1,.49-.39l.75.93a1.1,1.1,0,0,1-.85,1.78Z"/>
    <path d="M5.83,16a.88.88,0,0,1-.57-1.55l1.3-1.1A.88.88,0,0,1,7.7,14.68l-1.3,1.1A.88.88,0,0,1,5.83,16Zm1.3-2.24a.25.25,0,0,0-.17.06l-1.3,1.1a.26.26,0,1,0,.33.39l1.3-1.1h0a.26.26,0,0,0-.17-.45Z"/>
    <path d="M3.8,13.61a.88.88,0,0,1-.57-1.55L4.53,11A.88.88,0,0,1,5.67,12.3l-1.3,1.1A.88.88,0,0,1,3.8,13.61Zm1.3-2.24a.25.25,0,0,0-.17.06l-1.3,1.1a.26.26,0,1,0,.33.39l1.3-1.1h0a.26.26,0,0,0-.17-.45Z"/>
    <path d="M4.73,14.69a.88.88,0,0,1-.57-1.55l1.73-1.47A.88.88,0,0,1,7,13H7L5.3,14.48A.88.88,0,0,1,4.73,14.69Zm1.73-2.61a.25.25,0,0,0-.16.06L4.56,13.62a.26.26,0,1,0,.33.39l1.73-1.47a.25.25,0,0,0-.15-.45Zm.37.69h0Z"/>
    <path d="M6.84,17.18H6.77a.88.88,0,0,1-.5-1.55l.43-.37A.88.88,0,0,1,7.85,16.6L7.41,17A.87.87,0,0,1,6.84,17.18Zm.43-1.5a.25.25,0,0,0-.16.06l-.43.37a.26.26,0,0,0,0,.36h0a.25.25,0,0,0,.17.09A.26.26,0,0,0,7,16.49l.43-.37a.26.26,0,0,0,0-.36.25.25,0,0,0-.17-.09Z"/>
    <path d="M3.75,12.18a.31.31,0,0,1-.3-.21L2.54,9.22.09,6.78a.31.31,0,0,1,0-.46L4.8,2.56a.31.31,0,0,1,.46.08L6.44,4.53A.45.45,0,0,0,7,4.7C8.52,4,9.77,4,10.53,4.77L12.1,6.33a.31.31,0,0,1-.44.44L10.09,5.21c-.76-.76-2.08-.3-2.8,0a1.08,1.08,0,0,1-1.38-.4l-1-1.59L.78,6.58,3,8.83A.31.31,0,0,1,3.11,9L4,11.77a.31.31,0,0,1-.2.4Z"/>
  </g>
</svg>
