<svg xmlns="http://www.w3.org/2000/svg" viewBox="0 0 20 20">
  <title>ap</title>
  <g>
    <path d="M17.5,20H2.22a.28.28,0,0,1,0-.56H17.5a.28.28,0,0,1,0,.56Z"/>
    <g>
      <g>
        <path d="M12.88,15.56a.28.28,0,0,1-.17-.06L9.82,13.2l-2.66,2a.28.28,0,1,1-.34-.44l2.55-1.94L6.08,10.22l-4.23-3A.28.28,0,0,1,2,6.67H18a.28.28,0,0,1,.16.51l-4.77,3.33-3.08,2.34L13,15.06a.28.28,0,0,1-.17.5Zm-10-8.33L6.41,9.77l3.41,2.72L13,10.06l4.06-2.83Z"/>
        <g>
          <path d="M2,6.94a.28.28,0,0,1-.28-.28V3.61a.28.28,0,0,1,.56,0V6.67A.28.28,0,0,1,2,6.94Z"/>
          <g>
            <path d="M2.77,4.17H1.25a.28.28,0,0,1,0-.56H2.77a.28.28,0,1,1,0,.56Z"/>
            <path d="M2.77,5H1.25a.28.28,0,0,1,0-.56H2.77a.28.28,0,0,1,0,.56Z"/>
            <path d="M2.77,5.83H1.25a.28.28,0,0,1,0-.56H2.77a.28.28,0,0,1,0,.56Z"/>
          </g>
        </g>
        <g>
          <path d="M18,6.94a.28.28,0,0,1-.28-.28V3.61a.28.28,0,0,1,.56,0V6.67A.28.28,0,0,1,18,6.94Z"/>
          <g>
            <path d="M18.75,4.17H17.23a.28.28,0,1,1,0-.56h1.52a.28.28,0,1,1,0,.56Z"/>
            <path d="M18.75,5H17.23a.28.28,0,1,1,0-.56h1.52a.28.28,0,1,1,0,.56Z"/>
            <path d="M18.75,5.83H17.23a.28.28,0,1,1,0-.56h1.52a.28.28,0,1,1,0,.56Z"/>
          </g>
        </g>
        <path d="M15,2.5a.28.28,0,0,1-.28-.28V.56H5.88V2.22a.28.28,0,0,1-.56,0V.28A.28.28,0,0,1,5.6,0H15a.28.28,0,0,1,.28.28V2.22A.28.28,0,0,1,15,2.5Z"/>
      </g>
      <path d="M6.25,20h0A.28.28,0,0,1,6,19.69L8.2.25a.28.28,0,0,1,.55.06L6.53,19.75A.28.28,0,0,1,6.25,20Z"/>
      <path d="M13.47,20a.28.28,0,0,1-.28-.26L11.67.3a.28.28,0,1,1,.55,0L13.75,19.7a.28.28,0,0,1-.26.3Z"/>
    </g>
  </g>
</svg>
