<svg xmlns="http://www.w3.org/2000/svg" viewBox="0 0 20 20">
  <title>ap</title>
  <g>
    <path d="M13.23,13.23H7.1a.16.16,0,0,1-.16-.16V6.94a.16.16,0,0,1,.16-.16h6.13a.16.16,0,0,1,.16.16v6.13A.16.16,0,0,1,13.23,13.23Zm-6-.32h5.81V7.1H7.26Z"/>
    <path d="M15.95,16.11H4.38a.32.32,0,0,1-.32-.32V4.22a.32.32,0,0,1,.32-.32H15.95a.32.32,0,0,1,.32.32V15.78A.32.32,0,0,1,15.95,16.11ZM4.7,15.46H15.62V4.54H4.7Z"/>
    <g>
      <g>
        <path d="M14,19H10.81a.32.32,0,0,1-.32-.32V16.13a.32.32,0,1,1,.65,0v2.26H14A.32.32,0,1,1,14,19Z"/>
        <path d="M15.48,20a1.45,1.45,0,1,1,1.45-1.45A1.45,1.45,0,0,1,15.48,20Zm0-2.26a.81.81,0,1,0,.81.81A.81.81,0,0,0,15.48,17.74Z"/>
      </g>
      <g>
        <path d="M9.52,19H6.29a.32.32,0,1,1,0-.65h2.9V16.13a.32.32,0,1,1,.65,0v2.58A.32.32,0,0,1,9.52,19Z"/>
        <path d="M4.84,20a1.45,1.45,0,1,1,1.45-1.45A1.45,1.45,0,0,1,4.84,20Zm0-2.26a.81.81,0,1,0,.81.81A.81.81,0,0,0,4.84,17.74Z"/>
      </g>
    </g>
    <g>
      <g>
        <path d="M18.55,9.68H16A.32.32,0,1,1,16,9h2.26V6.13a.32.32,0,1,1,.65,0V9.35A.32.32,0,0,1,18.55,9.68Z"/>
        <path d="M18.39,6.13a1.45,1.45,0,1,1,1.45-1.45A1.45,1.45,0,0,1,18.39,6.13Zm0-2.26a.81.81,0,1,0,.81.81A.81.81,0,0,0,18.39,3.87Z"/>
      </g>
      <g>
        <path d="M18.55,14.19a.32.32,0,0,1-.32-.32V11H16a.32.32,0,1,1,0-.65h2.58a.32.32,0,0,1,.32.32v3.23A.32.32,0,0,1,18.55,14.19Z"/>
        <path d="M18.39,16.77a1.45,1.45,0,1,1,1.45-1.45A1.45,1.45,0,0,1,18.39,16.77Zm0-2.26a.81.81,0,1,0,.81.81A.81.81,0,0,0,18.39,14.52Z"/>
      </g>
    </g>
    <g>
      <g>
        <path d="M1.45,14.19a.32.32,0,0,1-.32-.32V10.65a.32.32,0,0,1,.32-.32H4A.32.32,0,1,1,4,11H1.77v2.9A.32.32,0,0,1,1.45,14.19Z"/>
        <path d="M1.61,16.77a1.45,1.45,0,1,1,1.45-1.45A1.45,1.45,0,0,1,1.61,16.77Zm0-2.26a.81.81,0,1,0,.81.81A.81.81,0,0,0,1.61,14.52Z"/>
      </g>
      <g>
        <path d="M4,9.68H1.45a.32.32,0,0,1-.32-.32V6.13a.32.32,0,0,1,.65,0V9H4a.32.32,0,1,1,0,.65Z"/>
        <path d="M1.61,6.13A1.45,1.45,0,1,1,3.06,4.68,1.45,1.45,0,0,1,1.61,6.13Zm0-2.26a.81.81,0,1,0,.81.81A.81.81,0,0,0,1.61,3.87Z"/>
      </g>
    </g>
    <g>
      <g>
        <path d="M9.19,4.19a.32.32,0,0,1-.32-.32V1.61H6A.32.32,0,0,1,6,1H9.19a.32.32,0,0,1,.32.32V3.87A.32.32,0,0,1,9.19,4.19Z"/>
        <path d="M4.52,2.9A1.45,1.45,0,1,1,6,1.45,1.45,1.45,0,0,1,4.52,2.9Zm0-2.26a.81.81,0,1,0,.81.81A.81.81,0,0,0,4.52.65Z"/>
      </g>
      <g>
        <path d="M10.48,4.19a.32.32,0,0,1-.32-.32V1.29A.32.32,0,0,1,10.48,1h3.23a.32.32,0,0,1,0,.65h-2.9V3.87A.32.32,0,0,1,10.48,4.19Z"/>
        <path d="M15.16,2.9a1.45,1.45,0,1,1,1.45-1.45A1.45,1.45,0,0,1,15.16,2.9Zm0-2.26a.81.81,0,1,0,.81.81A.81.81,0,0,0,15.16.65Z"/>
      </g>
    </g>
  </g>
</svg>
