<svg xmlns="http://www.w3.org/2000/svg" viewBox="0 0 20 20">
  <title>ap</title>
  <path d="M16.85,20H2.95a2.53,2.53,0,0,1-1.38-.42.29.29,0,0,1-.06-.43l5.93-6.88a.29.29,0,0,1,.41,0l1.87,1.69a.28.28,0,0,0,.38,0L12,12.25a.28.28,0,0,1,.21-.07.29.29,0,0,1,.2.1l5.93,6.88a.29.29,0,0,1-.06.43A2.53,2.53,0,0,1,16.85,20ZM2.18,19.26a1.92,1.92,0,0,0,.77.16H16.85a1.92,1.92,0,0,0,.77-.16l-5.5-6.39-1.65,1.49a.85.85,0,0,1-1.15,0l-1.65-1.5ZM.93,18.75h0a.29.29,0,0,1-.22-.15,2.72,2.72,0,0,1-.33-1.29V7.69a2.75,2.75,0,0,1,.4-1.43.29.29,0,0,1,.44-.06L7,11.46a.29.29,0,0,1,0,.4l-5.85,6.8A.29.29,0,0,1,.93,18.75ZM1.08,6.88a2.15,2.15,0,0,0-.16.81v9.62a2.08,2.08,0,0,0,.09.62l5.37-6.23ZM18.87,18.75a.29.29,0,0,1-.22-.1L12.8,11.86a.29.29,0,0,1,0-.4L18.61,6.2a.29.29,0,0,1,.44.06,2.75,2.75,0,0,1,.4,1.43v9.62a2.73,2.73,0,0,1-.33,1.29.29.29,0,0,1-.22.15Zm-5.45-7.06,5.37,6.23a2.08,2.08,0,0,0,.09-.62V7.69a2.15,2.15,0,0,0-.16-.81ZM9.9,13.19a.29.29,0,0,1-.19-.07L1.65,5.8a.29.29,0,0,1,.05-.46A2.49,2.49,0,0,1,2.95,5h13.9a2.5,2.5,0,0,1,1.25.34.29.29,0,0,1,.05.46l-8.06,7.31A.29.29,0,0,1,9.9,13.19ZM2.36,5.67,9.9,12.51l7.54-6.84a1.84,1.84,0,0,0-.59-.1H2.95A1.84,1.84,0,0,0,2.36,5.67Z"/>
</svg>
