<svg xmlns="http://www.w3.org/2000/svg" viewBox="0 0 20 20">
  <title>ap</title>
  <g>
    <path d="M.54,19.84a.31.31,0,0,1-.28-.46L2.8,14.44l.06-.08L17,.26a.31.31,0,0,1,.44,0l2.4,2.4a.31.31,0,0,1,0,.44L5.7,17.21l-.08.06L.69,19.8A.31.31,0,0,1,.54,19.84Zm2.79-5.06-2.07,4,4-2.07L19.14,2.88l-2-2Z"/>
    <g>
      <polygon points="3.67 17.91 2.28 16.52 0.54 19.52 3.67 17.91"/>
      <path d="M.41,19.65l1.86-3.22,1.49,1.49Zm1.88-3L.68,19.4l2.91-1.5Z"/>
    </g>
    <path d="M17.73,5A.31.31,0,0,1,17.51,5l-2.4-2.4a.31.31,0,1,1,.44-.44L18,4.51a.31.31,0,0,1-.22.53Z"/>
    <path d="M5.69,17h0a.16.16,0,0,1-.15-.16l.09-2.66a.16.16,0,0,1,0-.1l10.7-10.7a.16.16,0,0,1,.22.22L5.94,14.25l-.09,2.59A.16.16,0,0,1,5.69,17Z"/>
    <path d="M3.08,14.74a.16.16,0,0,1,0-.31l2.61-.49a.16.16,0,0,1,.06.31l-2.61.49Z"/>
  </g>
</svg>
