<svg xmlns="http://www.w3.org/2000/svg" viewBox="0 0 20 20">
  <title>ap</title>
  <g>
    <path d="M16,19.83a.3.3,0,0,1-.22-.09L13,16.81H6.92a.3.3,0,0,1-.3-.3V9.07a.3.3,0,0,1,.3-.3H19.43a.3.3,0,0,1,.3.3v7.44a.3.3,0,0,1-.3.3H16.24l0,2.72a.3.3,0,0,1-.19.28ZM7.22,16.22h6a.3.3,0,0,1,.22.09l2.28,2.46,0-2.25a.3.3,0,0,1,.3-.3h3.19V9.37H7.22Z"/>
    <g>
      <circle cx="10.34" cy="12.72" r="0.81"/>
      <circle cx="13.36" cy="12.72" r="0.81"/>
      <circle cx="16.29" cy="12.72" r="0.81"/>
    </g>
    <path d="M3.68,10.19l-.11,0a.3.3,0,0,1-.19-.28l0-2.42H.57a.3.3,0,0,1-.3-.3V.47a.3.3,0,0,1,.3-.3H11.85a.3.3,0,0,1,.3.3V7.18a.3.3,0,0,1-.3.3H6.34L3.9,10.1A.3.3,0,0,1,3.68,10.19ZM.87,6.88H3.71a.3.3,0,0,1,.3.3l0,2L6,7a.3.3,0,0,1,.22-.09h5.34V.77H.87Z"/>
    <g>
      <circle cx="8.76" cy="3.76" r="0.73"/>
      <circle cx="6.04" cy="3.76" r="0.73"/>
      <circle cx="3.4" cy="3.76" r="0.73"/>
    </g>
  </g>
</svg>
