<svg id="Layer_1" data-name="Layer 1" xmlns="http://www.w3.org/2000/svg" viewBox="0 0 20 20"><defs><style>.cls-1{fill:#044c7e;}</style></defs><title>Gas</title><path class="cls-1" d="M16.26,8.7a6.16,6.16,0,0,1-3.83,7.13,26.48,26.48,0,0,0-4.06,2.11,19.22,19.22,0,0,0-1.51,1.25,6.48,6.48,0,0,1,.39-3.1,7.19,7.19,0,0,1,1.6-2.37,3.15,3.15,0,0,0,.79-1.18.67.67,0,0,0-1-.9,2.5,2.5,0,0,0-1.19,1.19,10.52,10.52,0,0,0-1.12,5.72c0,.46.06.92.09,1.45a8.66,8.66,0,0,1-2.21-3C3,14,3.68,11.36,5.73,9a22,22,0,0,1,3-2.63,14.2,14.2,0,0,0,2.53-2.55,4.49,4.49,0,0,0,1-3.19,3.84,3.84,0,0,1,0-.48.45.45,0,0,1,0-.11,6.39,6.39,0,0,1,2,1.86A6,6,0,0,1,14.27,9a8.85,8.85,0,0,1-.63.88c-.2.25-.05.27.16.29A1.81,1.81,0,0,0,15,9.8C15.47,9.49,15.81,9.08,16.26,8.7Zm-4.1,1.81c-.22-.2-.22-.31,0-.53a8.69,8.69,0,0,0,1.91-2.92,4.69,4.69,0,0,0-.81-4.88c-.17.4-.28.8-.48,1.17A11.91,11.91,0,0,1,10.1,6.56C9,7.53,7.79,8.31,6.8,9.38a7.08,7.08,0,0,0-2.1,4.41,6,6,0,0,0,.56,2.82l.07-.16c0-.1,0-.21,0-.31a10.26,10.26,0,0,1,1.19-3.82,3.46,3.46,0,0,1,1.81-1.68,1.68,1.68,0,0,1,1.83.25,1.74,1.74,0,0,1,.47,1.94,3.73,3.73,0,0,1-1,1.58,6.51,6.51,0,0,0-1.55,2.36c.06.05.1,0,.15,0a29.74,29.74,0,0,1,4-2A5.31,5.31,0,0,0,14,13.54,4.74,4.74,0,0,0,15.24,11,2.72,2.72,0,0,1,12.16,10.51Z"/></svg>