<svg xmlns="http://www.w3.org/2000/svg" viewBox="0 0 20 20">
<path d="M20.5,9.8c0,3.3,0,6.6,0,9.9c0,0.2-0.1,0.3-0.3,0.3c-6.6,0-13.3,0-19.9,0C0.1,20,0,20,0,19.7C0,13.1,0,6.4,0-0.2
	c0-0.2,0.1-0.3,0.3-0.3c6.6,0,13.3,0,19.9,0c0.3,0,0.3,0.1,0.3,0.3C20.5,3.1,20.5,6.4,20.5,9.8z M0.7,19c0,0.3,0.1,0.3,0.3,0.3
	c6.2,0,12.3,0,18.5,0c0.3,0,0.4,0,0.4-0.3c0-6.2,0-12.4,0-18.5c0-0.2,0-0.3-0.3-0.3c-6.2,0-12.4,0-18.6,0c-0.2,0-0.3,0.1-0.3,0.3
	c0,3.1,0,6.2,0,9.3C0.7,12.8,0.7,15.9,0.7,19z"/>
<path d="M14.5,8.8c0.3,1.6-0.1,3-1.2,4.1c-0.4,0.4-0.9,0.7-1.5,0.9c-1,0.4-2,0.9-2.9,1.5c-0.4,0.2-0.7,0.6-1.1,0.9
	c-0.1-0.8,0-1.5,0.3-2.2c0.3-0.6,0.6-1.2,1.1-1.7c0.2-0.2,0.4-0.5,0.6-0.8c0.1-0.2,0.1-0.4-0.1-0.6c-0.2-0.2-0.4-0.1-0.6,0
	c-0.4,0.2-0.6,0.5-0.8,0.8c-0.7,1.3-0.9,2.6-0.8,4c0,0.3,0,0.6,0.1,1c-0.7-0.6-1.2-1.3-1.6-2.1c-0.9-2.1-0.4-4,1-5.7
	C7.6,8.2,8.4,7.6,9.1,7c0.7-0.5,1.3-1.1,1.8-1.8s0.8-1.4,0.7-2.3c0-0.1,0-0.2,0-0.3c0,0,0,0,0-0.1c0.6,0.3,1.1,0.8,1.4,1.3
	c1.1,1.5,1.1,3.3,0,5c-0.1,0.2-0.3,0.4-0.4,0.6c-0.1,0.2,0,0.2,0.1,0.2c0.3,0,0.6-0.1,0.9-0.3C13.9,9.3,14.2,9.1,14.5,8.8z
	 M11.6,10.1c-0.2-0.1-0.2-0.2,0-0.4c0.6-0.6,1.1-1.3,1.3-2.1c0.5-1.2,0.3-2.4-0.6-3.5C12.2,4.5,12.1,4.7,12,5
	c-0.5,0.9-1.2,1.6-1.9,2.3C9.4,8,8.5,8.5,7.8,9.3c-0.8,0.9-1.4,1.9-1.5,3.1c0,0.7,0.1,1.3,0.4,2c0-0.1,0-0.1,0-0.1
	c0-0.1,0-0.1,0-0.2c0.1-0.9,0.4-1.9,0.8-2.7c0.3-0.5,0.7-1,1.3-1.2c0.5-0.2,0.9-0.2,1.3,0.2c0.4,0.4,0.5,0.8,0.3,1.4
	c-0.1,0.4-0.4,0.8-0.7,1.1c-0.5,0.5-0.9,1-1.1,1.7h0.1c0.9-0.6,1.9-1,2.8-1.4c0.5-0.2,0.9-0.5,1.2-0.9c0.5-0.5,0.8-1.1,0.9-1.8
	C12.9,10.7,12.2,10.6,11.6,10.1z"/>
</svg>
