<svg version="1.1" id="Layer_1" xmlns="http://www.w3.org/2000/svg" xmlns:xlink="http://www.w3.org/1999/xlink" x="0px" y="0px"
	 viewBox="0 0 20 20" style="enable-background:new 0 0 20 20;" xml:space="preserve">

<g>
	<g>
		<path class="st0" d="M12,18.4H8.4C8.2,18.4,8,18.2,8,18v0c0-0.2,0.2-0.4,0.4-0.4H12c0.2,0,0.4,0.2,0.4,0.4v0
			C12.5,18.2,12.3,18.4,12,18.4z"/>
		<path class="st0" d="M11.2,20H9.3c-0.2,0-0.4-0.2-0.4-0.4v0c0-0.2,0.2-0.4,0.4-0.4h1.9c0.2,0,0.4,0.2,0.4,0.4v0
			C11.6,19.8,11.4,20,11.2,20z"/>
	</g>
	<g>
		<path class="st0" d="M15.8,8c0-1.4-0.7-2.7-1.8-3.7s-2.6-1.5-4.1-1.4C6.9,3,4.5,5.3,4.5,8c0,1.2,0.5,2.4,1.3,3.3
			c1.2,1.3,1.9,3,1.9,4.7c0,0-0.1,0.8,0.5,0.8h3.9c0.6,0,0.5-0.8,0.5-0.8c0-1.7,0.7-3.3,2-4.8C15.4,10.3,15.8,9.2,15.8,8z
			 M10.5,15.8H10l-0.5-3.9l0.2-0.2l0.4,0.3l0.5-0.3l0.3,0.3c0,0,0.1,0,0.1,0L10.5,15.8z M11.6,15.8H11l0.6-4.4
			c0-0.2-0.1-0.3-0.2-0.3c-0.2,0-0.3,0.1-0.3,0.2l0,0.3L11,11.7l-0.3-0.3c-0.1,0-0.2,0-0.2,0l-0.4,0.3l-0.3-0.3H9.6l-0.2,0.2l0-0.3
			c0-0.1-0.2-0.2-0.3-0.2c-0.1,0-0.2,0.2-0.2,0.3l0,0.2l0.5,4.2H8.7c0-1.9-0.8-3.7-2.1-5.2C5.8,9.9,5.5,9,5.5,8c0-2.2,2-4.1,4.5-4.2
			c1.3,0,2.5,0.4,3.4,1.2c0.9,0.8,1.4,1.9,1.4,3c0,1-0.4,1.9-1,2.6C12.4,12.2,11.6,14,11.6,15.8z"/>
	</g>
</g>
<g>
	<path class="st1" d="M8.9,11.6L8.9,11.6c0-0.1,0-0.1,0-0.2L8.9,11.6z"/>
</g>
<path class="st1" d="M9.9,2.4L9.9,2.4c-0.2,0-0.3-0.1-0.3-0.3V0.3C9.6,0.1,9.8,0,9.9,0h0c0.2,0,0.3,0.1,0.3,0.3v1.8
	C10.2,2.2,10.1,2.4,9.9,2.4z"/>
<path class="st1" d="M13.8,3L13.8,3c-0.1-0.1-0.2-0.3-0.1-0.4l1-1.5C14.9,1,15.1,1,15.2,1.1v0c0.1,0.1,0.2,0.3,0.1,0.4l-1,1.5
	C14.2,3.1,14,3.1,13.8,3z"/>
<path class="st1" d="M16.3,5.9L16.3,5.9c0-0.2,0.1-0.3,0.2-0.4l1.7-0.4c0.2,0,0.3,0.1,0.4,0.2v0c0,0.2-0.1,0.3-0.2,0.4l-1.7,0.4
	C16.5,6.2,16.3,6.1,16.3,5.9z"/>
<path class="st1" d="M5.9,3L5.9,3C6,2.9,6.1,2.8,6,2.6L5,1.2C4.9,1,4.7,1,4.5,1.1l0,0C4.4,1.2,4.4,1.4,4.5,1.5l1,1.5
	C5.6,3.1,5.8,3.1,5.9,3z"/>
<path class="st1" d="M3.5,5.9L3.5,5.9c0-0.2-0.1-0.3-0.2-0.4L1.5,5.2c-0.2,0-0.3,0.1-0.4,0.2l0,0c0,0.2,0.1,0.3,0.2,0.4l1.7,0.4
	C3.3,6.2,3.4,6.1,3.5,5.9z"/>
</svg>
