<svg xmlns="http://www.w3.org/2000/svg" viewBox="0 0 20 20">
  <title>ap</title>
  <g>
    <path d="M16.74,9.25l0,0-.06.08-.36-.52a.26.26,0,0,0-.33,0c.32.47.55.79.58.83a.13.13,0,0,0,.08.05h0a.14.14,0,0,0,.11-.06h0l.14-.19Z"/>
    <path d="M16.89,9.43l-.15-.18,0,0-.39-.41,0,0a.26.26,0,0,0-.33,0h0a.25.25,0,0,0-.07.14l.39.56h0l.15.21a.29.29,0,0,0,.48,0l0,0L17,9.6A.25.25,0,0,0,16.89,9.43Z"/>
  </g>
  <g>
    <path d="M16.74,9.25l0,0-.06.08-.36-.52a.26.26,0,0,0-.33,0c.32.47.55.79.58.83a.13.13,0,0,0,.08.05h0a.14.14,0,0,0,.11-.06h0l.14-.19Z"/>
    <path d="M16.89,9.43l-.15-.18,0,0-.39-.41,0,0a.26.26,0,0,0-.33,0h0a.25.25,0,0,0-.07.14l.39.56h0l.15.21a.29.29,0,0,0,.48,0l0,0L17,9.6A.25.25,0,0,0,16.89,9.43Z"/>
    <path d="M16.65.28a3.36,3.36,0,0,0-3.35,3.35c0,1.34,1.67,4,2.58,5.3a.25.25,0,0,1,.07-.14h0a.26.26,0,0,1,.33,0l0,0,.39.41,0,0,.15.18A.25.25,0,0,1,17,9.6c.55-.77,3-4.33,3-6A3.36,3.36,0,0,0,16.65.28Zm0,8.74c-.68-1-2.76-4.08-2.76-5.39a2.77,2.77,0,1,1,5.53,0C19.41,4.95,17.33,8.05,16.65,9Z"/>
  </g>
  <path d="M16.65,2.47a1.27,1.27,0,1,0,1.27,1.27A1.27,1.27,0,0,0,16.65,2.47Zm0,1.95a.68.68,0,1,1,.68-.68A.68.68,0,0,1,16.65,4.42Z"/>
  <g>
    <path d="M3.71,19.42a.25.25,0,0,0-.23.11l.05.07a.14.14,0,0,0,.22,0l.12-.17Z"/>
    <path d="M3.64,10.27A3.36,3.36,0,0,0,.29,13.62c0,1.73,2.8,5.63,3.12,6.07l0,0a.27.27,0,0,1,0-.07.26.26,0,0,1,0-.14.25.25,0,0,1,.23-.11h.35c.71-1,2.93-4.27,2.93-5.82A3.36,3.36,0,0,0,3.64,10.27Zm0,8.74C3,18,.88,14.93.88,13.62a2.77,2.77,0,1,1,5.53,0C6.41,14.93,4.32,18,3.64,19Z"/>
    <path d="M3.88,19.43H3.71a.25.25,0,0,0-.23.11.26.26,0,0,0,0,.14.27.27,0,0,0,0,.07.29.29,0,0,0,.44,0l.18-.26Z"/>
  </g>
  <path d="M3.64,12.45a1.27,1.27,0,1,0,1.27,1.27A1.27,1.27,0,0,0,3.64,12.45Zm0,1.95a.68.68,0,1,1,.68-.68A.68.68,0,0,1,3.64,14.4Z"/>
  <path d="M8.28,2.77a6.14,6.14,0,0,0-3.39-.51A.26.26,0,0,0,5,2.77a5.64,5.64,0,0,1,3.1.48l.1,0a.26.26,0,0,0,.1-.5Zm5.6,3.72a29.81,29.81,0,0,0-2.65-2.07.26.26,0,0,0-.29.43,29.26,29.26,0,0,1,2.6,2,.26.26,0,0,0,.34-.39Zm-11,.87a2.37,2.37,0,0,1-.63-1.53,2.52,2.52,0,0,1,.37-1.24.26.26,0,1,0-.45-.26,3,3,0,0,0-.43,1.5,2.9,2.9,0,0,0,.75,1.86.26.26,0,0,0,.2.09.26.26,0,0,0,.17-.06A.26.26,0,0,0,2.85,7.36Zm5.59,3.28a33,33,0,0,1-3-1.38.26.26,0,1,0-.25.46c.81.43,1.78.88,3.05,1.4l.1,0a.26.26,0,0,0,.1-.5Zm6.19,2.52c-.95-.44-2-.88-3.09-1.29a.26.26,0,0,0-.19.48c1,.41,2.13.84,3.06,1.28l.11,0a.26.26,0,0,0,.11-.5ZM17.5,15a.26.26,0,0,0-.39.34,1.43,1.43,0,0,1,.42.94,1.78,1.78,0,0,1-.92,1.47.26.26,0,0,0,.3.43A2.29,2.29,0,0,0,18,16.3,2,2,0,0,0,17.5,15Zm-3.59,4.06a.26.26,0,0,0-.31-.2,27,27,0,0,1-3.27.45.26.26,0,0,0,0,.52h0a27.39,27.39,0,0,0,3.33-.46A.26.26,0,0,0,13.91,19.08ZM7,19.47H7c-1.33,0-2.42,0-3,0H3.71a.25.25,0,0,0-.23.11.26.26,0,0,0,0,.14.27.27,0,0,0,0,.07.26.26,0,0,0,.24.21S4.75,20,6.27,20H7a.26.26,0,0,0,0-.52Z"/>
</svg>
