<svg xmlns="http://www.w3.org/2000/svg" viewBox="0 0 20 20">
  <title>ap</title>
  <g>
    <path d="M15.45,19.5a6.87,6.87,0,0,1-4.77-2.24L2.75,9.33A7.33,7.33,0,0,1,.53,5.17,5,5,0,0,1,2.06.93a1.49,1.49,0,0,1,2.1,0l1.5,1.5A2.23,2.23,0,0,1,6.12,4.9c-.24.53-.57,1.5-.1,2l7,6.93a1.92,1.92,0,0,0,2.43.14,1.71,1.71,0,0,1,2,.31l1.59,1.59a1.49,1.49,0,0,1,0,2.1A5.05,5.05,0,0,1,15.45,19.5ZM3.11,1.15a.83.83,0,0,0-.59.24,4.35,4.35,0,0,0-1.34,3.7,6.68,6.68,0,0,0,2,3.78l7.93,7.93c3,3,5.91,2.25,7.47.68a.84.84,0,0,0,0-1.18L17,14.71a1.06,1.06,0,0,0-1.25-.2,2.56,2.56,0,0,1-3.19-.25l-7-6.93c-.39-.39-.71-1.17,0-2.69A1.58,1.58,0,0,0,5.2,2.89L3.7,1.39A.83.83,0,0,0,3.11,1.15Z"/>
    <path d="M18.57,18.27a.32.32,0,0,1-.23-.09l-3.49-3.49a.32.32,0,0,1,.46-.46l3.49,3.49a.32.32,0,0,1-.23.55Z"/>
    <path d="M5.63,5.32a.32.32,0,0,1-.23-.09L1.91,1.74a.32.32,0,0,1,.46-.46L5.85,4.77a.32.32,0,0,1-.23.55Z"/>
  </g>
</svg>
