<svg id="Layer_1" data-name="Layer 1" xmlns="http://www.w3.org/2000/svg" viewBox="0 0 20 20"><defs><style>.cls-1{fill:#f1ce2a;}.cls-2{fill:#e5e5e5;}</style></defs><title>ap_map_pin</title><path class="cls-1" d="M15.06,4.85A5.17,5.17,0,0,0,9.23.75,5.07,5.07,0,0,0,5.22,4a5.62,5.62,0,0,0,0,4.19A15.06,15.06,0,0,0,6.74,11.1c.74,1.22,1.49,2.43,2.18,3.68.42.75.73,1.55,1.1,2.33.17-.4.34-.81.52-1.22a31.36,31.36,0,0,1,2.38-4.13A17.76,17.76,0,0,0,14.6,8.83,6.57,6.57,0,0,0,15.06,4.85ZM10,8.22a2.35,2.35,0,1,1,0-4.7,2.35,2.35,0,1,1,0,4.7Z"/><path class="cls-2" d="M9.86,18.31a13,13,0,0,1,2.61.23,1.6,1.6,0,0,1,.33.11c.06,0,.14.11.14.17s-.08.13-.15.16a6,6,0,0,1-.7.18,12.3,12.3,0,0,1-2.5.14A8.34,8.34,0,0,1,7.37,19a1.27,1.27,0,0,1-.31-.2,1,1,0,0,1,.31-.22c.4-.09.79-.16,1.19-.21S9.54,18.33,9.86,18.31Z"/></svg>