<svg xmlns="http://www.w3.org/2000/svg" viewBox="0 0 20 20">
  <title>ap</title>
  <g>
    <path d="M10.07,8.78a4.37,4.37,0,1,1,4.37-4.37A4.37,4.37,0,0,1,10.07,8.78Zm0-8.13a3.76,3.76,0,1,0,3.76,3.76A3.77,3.77,0,0,0,10.07.65Z"/>
    <path d="M17.7,20H2.45a.3.3,0,0,1-.3-.3V16.79a6.59,6.59,0,0,1,6.58-6.58h2.68A6.59,6.59,0,0,1,18,16.79v2.87A.3.3,0,0,1,17.7,20Zm-14.95-.6H17.4V16.79a6,6,0,0,0-6-6H8.73a6,6,0,0,0-6,6Z"/>
    <path d="M11,13H9.44a.3.3,0,0,1-.27-.17L8.32,11a.3.3,0,0,1,.55-.26l.77,1.66h1.19l.66-1.64A.3.3,0,1,1,12,11l-.73,1.83A.3.3,0,0,1,11,13Z"/>
    <path d="M8.77,19.75h0a.3.3,0,0,1-.27-.33L9.2,12.7a.3.3,0,0,1,.6.07l-.73,6.71A.3.3,0,0,1,8.77,19.75Z"/>
    <path d="M12.13,19.81a.3.3,0,0,1-.3-.25l-1.1-6.84a.3.3,0,0,1,.6-.1l1.1,6.84a.3.3,0,0,1-.25.35Z"/>
  </g>
</svg>
