<svg xmlns="http://www.w3.org/2000/svg" viewBox="0 0 20 20">
  <title>ap</title>
  <g>
    <path d="M10,19.4a.3.3,0,0,1-.21-.09s-3.6-3.7-5.19-5.55c-.35-.4-.72-.8-1.11-1.22C1.85,10.79,0,8.81,0,6.28a5.68,5.68,0,0,1,10-3.7,5.68,5.68,0,0,1,10,3.7c0,2.76-1.39,4.22-3.16,6.07l-.67.71c-2,2.18-5.92,6.21-6,6.25a.3.3,0,0,1-.21.09ZM5.68,1.19A5.1,5.1,0,0,0,.59,6.28c0,2.29,1.69,4.11,3.33,5.86.4.43.77.83,1.13,1.24,1.36,1.58,4.16,4.49,5,5.3.84-.88,4-4.15,5.74-6l.68-.71c1.74-1.82,3-3.14,3-5.66a5.09,5.09,0,0,0-9.17-3,.3.3,0,0,1-.47,0A5.05,5.05,0,0,0,5.68,1.19Z"/>
    <path d="M13.43,11.79a.3.3,0,0,1-.22-.5l.41-.44.42-.44C15.1,9.31,15.86,8.5,15.86,7a3,3,0,0,0-3-3,.3.3,0,0,1,0-.59A3.63,3.63,0,0,1,16.45,7c0,1.75-.92,2.72-2,3.83l-.41.44-.41.44A.29.29,0,0,1,13.43,11.79Z"/>
  </g>
</svg>
