<svg xmlns="http://www.w3.org/2000/svg" viewBox="0 0 20 20">
  <title>ap</title>
  <path d="M14.14,15.29a12.23,12.23,0,0,1,2.64,1.33,9.47,9.47,0,0,1-5.54,2.78,12.94,12.94,0,0,0,2.9-4.11m0-.6a.6.6,0,0,0-.55.36A12.29,12.29,0,0,1,10.82,19a.6.6,0,0,0,.42,1h.08a10.12,10.12,0,0,0,5.9-3,.6.6,0,0,0-.1-.93,12.87,12.87,0,0,0-2.77-1.39.6.6,0,0,0-.2,0Z"/>
  <path d="M19.47,10.35a9.43,9.43,0,0,1-2.21,5.74,13,13,0,0,0-2.85-1.45,12.94,12.94,0,0,0,.85-4.29h4.21m0-.6H15.26a.6.6,0,0,0-.6.59,12.32,12.32,0,0,1-.81,4.09.6.6,0,0,0,.36.78,12.38,12.38,0,0,1,2.72,1.38.6.6,0,0,0,.8-.11,10,10,0,0,0,2.35-6.11.6.6,0,0,0-.6-.63Zm0,1.21h0Z"/>
  <path d="M17.06,3.69a9.44,9.44,0,0,1,2.41,6H15.26a12.93,12.93,0,0,0-1-4.6,12.94,12.94,0,0,0,2.77-1.36m0-.6a.6.6,0,0,0-.33.1,12.36,12.36,0,0,1-2.64,1.3.6.6,0,0,0-.36.8,12.29,12.29,0,0,1,.92,4.38.6.6,0,0,0,.6.59h4.21a.6.6,0,0,0,.6-.63,10.08,10.08,0,0,0-2.56-6.34.6.6,0,0,0-.45-.2Z"/>
  <path d="M11.24.6a9.44,9.44,0,0,1,5.33,2.57A12.18,12.18,0,0,1,14,4.41,13,13,0,0,0,11.24.6m0-.6a.6.6,0,0,0-.42,1,12.32,12.32,0,0,1,2.64,3.63A.6.6,0,0,0,14.2,5a12.81,12.81,0,0,0,2.69-1.29.6.6,0,0,0,.1-.95A10,10,0,0,0,11.31,0Z"/>
  <path d="M8.76.6A13,13,0,0,0,6,4.41,12.18,12.18,0,0,1,3.43,3.17,9.44,9.44,0,0,1,8.76.6m0-.6H8.69A10,10,0,0,0,3,2.74a.6.6,0,0,0,.1.95A12.81,12.81,0,0,0,5.8,5a.6.6,0,0,0,.74-.31A12.32,12.32,0,0,1,9.18,1a.6.6,0,0,0-.42-1Zm0,1.21h0Z"/>
  <path d="M9.65.75V5.07a12.32,12.32,0,0,1-3-.45,12.28,12.28,0,0,1,3-3.87m0-.6a.6.6,0,0,0-.4.15A12.83,12.83,0,0,0,6.13,4.36a.6.6,0,0,0,.38.85,13,13,0,0,0,3.12.47h0a.6.6,0,0,0,.6-.6V.75a.6.6,0,0,0-.6-.6Z"/>
  <path d="M10.35.75a12.28,12.28,0,0,1,3,3.87,12.32,12.32,0,0,1-3,.45V.75m0-.6a.6.6,0,0,0-.6.6V5.07a.6.6,0,0,0,.6.6h0a13,13,0,0,0,3.12-.47.6.6,0,0,0,.38-.85A12.83,12.83,0,0,0,10.75.29a.6.6,0,0,0-.4-.15Z"/>
  <path d="M13.62,5.27a12.26,12.26,0,0,1,.94,4.38h-4.2V5.77a12.94,12.94,0,0,0,3.27-.51m0-.6-.17,0a12.36,12.36,0,0,1-3.12.48.6.6,0,0,0-.59.6V9.65a.6.6,0,0,0,.6.6h4.2a.6.6,0,0,0,.6-.62,12.83,12.83,0,0,0-1-4.6.6.6,0,0,0-.56-.37Z"/>
  <path d="M6.38,5.27a12.94,12.94,0,0,0,3.27.51V9.65H5.45a12.26,12.26,0,0,1,.94-4.38m0-.6A.6.6,0,0,0,5.82,5a12.83,12.83,0,0,0-1,4.6.6.6,0,0,0,.6.62h4.2a.6.6,0,0,0,.6-.6V5.77a.6.6,0,0,0-.59-.6,12.36,12.36,0,0,1-3.12-.48l-.17,0Z"/>
  <path d="M14.55,10.35a12.24,12.24,0,0,1-.81,4.07,12.93,12.93,0,0,0-3.39-.54V10.35h4.2m0-.6h-4.2a.6.6,0,0,0-.6.6v3.52a.6.6,0,0,0,.59.6,12.35,12.35,0,0,1,3.23.52l.17,0a.6.6,0,0,0,.56-.39,12.82,12.82,0,0,0,.85-4.27.6.6,0,0,0-.6-.62Zm0,1.21h0Z"/>
  <path d="M10.35,14.58a12.21,12.21,0,0,1,3.12.49,12.27,12.27,0,0,1-3.12,4.18V14.58m0-.6a.6.6,0,0,0-.6.6v4.68a.6.6,0,0,0,1,.46A12.8,12.8,0,0,0,14,15.32a.6.6,0,0,0-.38-.83A12.83,12.83,0,0,0,10.37,14Z"/>
  <path d="M9.65,14.58v4.68a12.27,12.27,0,0,1-3.12-4.18,12.26,12.26,0,0,1,3.12-.49m0-.6h0a12.89,12.89,0,0,0-3.27.52.6.6,0,0,0-.38.83,12.8,12.8,0,0,0,3.27,4.39.6.6,0,0,0,1-.46V14.58a.6.6,0,0,0-.6-.6Z"/>
  <path d="M5.86,15.29a12.94,12.94,0,0,0,2.9,4.11,9.47,9.47,0,0,1-5.54-2.78,12.23,12.23,0,0,1,2.64-1.33m0-.6a.6.6,0,0,0-.2,0,12.87,12.87,0,0,0-2.77,1.39.6.6,0,0,0-.1.93,10.12,10.12,0,0,0,5.9,3h.08a.6.6,0,0,0,.42-1A12.29,12.29,0,0,1,6.41,15a.6.6,0,0,0-.55-.36Z"/>
  <path d="M9.65,10.35v3.52a13,13,0,0,0-3.39.54,12.27,12.27,0,0,1-.81-4.07h4.2m0-.6H5.45a.6.6,0,0,0-.6.62,12.85,12.85,0,0,0,.85,4.27.6.6,0,0,0,.56.39l.17,0a12.36,12.36,0,0,1,3.23-.52.6.6,0,0,0,.59-.6V10.35a.6.6,0,0,0-.6-.6Z"/>
  <path d="M4.74,10.35a12.94,12.94,0,0,0,.85,4.29,13,13,0,0,0-2.85,1.45A9.43,9.43,0,0,1,.53,10.35H4.74m0-.6H.53a.6.6,0,0,0-.6.63,10,10,0,0,0,2.35,6.11.6.6,0,0,0,.8.11A12.38,12.38,0,0,1,5.8,15.21a.6.6,0,0,0,.36-.78,12.32,12.32,0,0,1-.81-4.09.6.6,0,0,0-.6-.59Z"/>
  <path d="M2.94,3.69A12.94,12.94,0,0,0,5.71,5.05a12.93,12.93,0,0,0-1,4.6H.53a9.44,9.44,0,0,1,2.41-6m0-.6a.6.6,0,0,0-.45.2A10.08,10.08,0,0,0-.07,9.63a.6.6,0,0,0,.6.63H4.74a.6.6,0,0,0,.6-.59,12.29,12.29,0,0,1,.92-4.38.6.6,0,0,0-.36-.8,12.36,12.36,0,0,1-2.64-1.3.6.6,0,0,0-.33-.1Z"/>
</svg>
