<svg xmlns="http://www.w3.org/2000/svg" viewBox="0 0 20 20">
  <title>ap</title>
  <g>
    <path d="M18.15,20H1.85a.3.3,0,0,1-.3-.3V.3a.3.3,0,0,1,.3-.3h16.3a.3.3,0,0,1,.3.3V19.7A.3.3,0,0,1,18.15,20Zm-16-.6h15.7V.6H2.15Z"/>
    <path d="M18,11.55H1.85a.3.3,0,1,1,0-.6H18a.3.3,0,1,1,0,.6Z"/>
    <path d="M10.17,5.55A1.78,1.78,0,1,1,12,3.77,1.78,1.78,0,0,1,10.17,5.55Zm0-3a1.18,1.18,0,1,0,1.18,1.18A1.18,1.18,0,0,0,10.17,2.59Z"/>
    <path d="M13,9.62H7.4a.3.3,0,0,1-.3-.3v-.8A2.83,2.83,0,0,1,9.93,5.69h.49a2.83,2.83,0,0,1,2.83,2.83v.8A.3.3,0,0,1,13,9.62ZM7.7,9h5v-.5a2.23,2.23,0,0,0-2.23-2.23H9.93A2.23,2.23,0,0,0,7.7,8.52Z"/>
    <path d="M16,14.6H4.35a.3.3,0,0,1,0-.6H16a.3.3,0,0,1,0,.6Z"/>
    <path d="M11.85,16.9H4.35a.3.3,0,0,1,0-.6h7.5a.3.3,0,1,1,0,.6Z"/>
  </g>
</svg>
