<svg xmlns="http://www.w3.org/2000/svg" viewBox="0 0 20 20">
  <title>ap</title>
  <g>
    <g>
      <path d="M19.7,19.9H.3a.3.3,0,0,1-.3-.3V.4A.3.3,0,0,1,.3.1H19.7a.3.3,0,0,1,.3.3V19.6A.3.3,0,0,1,19.7,19.9ZM.6,19.3H19.4V.7H.6Z"/>
      <path d="M17.76,8.86H2.64a.3.3,0,0,1-.3-.3V2.49a.3.3,0,0,1,.3-.3H17.76a.3.3,0,0,1,.3.3V8.56A.3.3,0,0,1,17.76,8.86ZM2.94,8.26H17.46V2.79H2.94Z"/>
      <path d="M17.37,16.76H10a.3.3,0,0,1-.3-.3V11.2a.3.3,0,0,1,.3-.3h7.36a.3.3,0,0,1,.3.3v5.26A.3.3,0,0,1,17.37,16.76Zm-7.06-.6h6.76V11.5H10.31Z"/>
      <path d="M7.23,12.62H2.69a.3.3,0,0,1,0-.6H7.23a.3.3,0,0,1,0,.6Z"/>
      <path d="M7.23,14.49H2.69a.3.3,0,0,1,0-.6H7.23a.3.3,0,0,1,0,.6Z"/>
      <path d="M5.41,16.36H2.69a.3.3,0,0,1,0-.6H5.41a.3.3,0,1,1,0,.6Z"/>
    </g>
    <g>
      <path d="M19.7,19.9H.3a.3.3,0,0,1-.3-.3V.4A.3.3,0,0,1,.3.1H19.7a.3.3,0,0,1,.3.3V19.6A.3.3,0,0,1,19.7,19.9ZM.6,19.3H19.4V.7H.6Z"/>
      <path d="M17.76,8.86H2.64a.3.3,0,0,1-.3-.3V2.49a.3.3,0,0,1,.3-.3H17.76a.3.3,0,0,1,.3.3V8.56A.3.3,0,0,1,17.76,8.86ZM2.94,8.26H17.46V2.79H2.94Z"/>
      <path d="M17.37,16.76H10a.3.3,0,0,1-.3-.3V11.2a.3.3,0,0,1,.3-.3h7.36a.3.3,0,0,1,.3.3v5.26A.3.3,0,0,1,17.37,16.76Zm-7.06-.6h6.76V11.5H10.31Z"/>
      <path d="M7.23,12.62H2.69a.3.3,0,0,1,0-.6H7.23a.3.3,0,0,1,0,.6Z"/>
      <path d="M7.23,14.49H2.69a.3.3,0,0,1,0-.6H7.23a.3.3,0,0,1,0,.6Z"/>
      <path d="M5.41,16.36H2.69a.3.3,0,0,1,0-.6H5.41a.3.3,0,1,1,0,.6Z"/>
    </g>
  </g>
</svg>
