<svg xmlns="http://www.w3.org/2000/svg" viewBox="0 0 20 20">
  <title>ap</title>
  <g>
    <path d="M12.7,16.47a.31.31,0,0,1-.22-.53l5.16-5.16a5.94,5.94,0,1,0-8.4-8.4L4.08,7.54a.31.31,0,0,1-.44-.44L8.8,1.94a6.56,6.56,0,1,1,9.28,9.28l-5.16,5.16A.31.31,0,0,1,12.7,16.47Z"/>
    <path d="M12.8,16.37a.31.31,0,0,1-.22-.53l5-5a5.94,5.94,0,0,0-8.4-8.4l-5,5A.31.31,0,0,1,3.74,7l5-5A6.56,6.56,0,1,1,18,11.32l-5,5A.31.31,0,0,1,12.8,16.37Z"/>
    <path d="M6.81,16.18A3.1,3.1,0,0,1,4,11.73a.31.31,0,0,1,.56.27,2.48,2.48,0,0,0,3.31,3.31.31.31,0,1,1,.27.56A3.09,3.09,0,0,1,6.81,16.18Z"/>
    <path d="M15.59,10a.31.31,0,0,1-.22-.53,3.31,3.31,0,0,0,0-4.67.31.31,0,0,1,.44-.44,3.93,3.93,0,0,1,0,5.55A.31.31,0,0,1,15.59,10Z"/>
    <path d="M12.34,19.9a.47.47,0,0,1-.33-.14L.12,7.88a.47.47,0,0,1,0-.67l1.6-1.6a.47.47,0,0,1,.67,0L14.27,17.49a.47.47,0,0,1,0,.67l-1.6,1.6A.47.47,0,0,1,12.34,19.9Zm.11-.58h0ZM.66,7.55,12.34,19.22l1.39-1.39L2.05,6.15Z"/>
  </g>
</svg>
