<svg xmlns="http://www.w3.org/2000/svg" viewBox="0 0 20 20">
<path d="M20,10c0,3.2,0,6.5,0,9.7c0,0.2,0,0.3-0.3,0.3c-6.5,0-12.9,0-19.4,0C0.1,20,0,19.9,0,19.7C0,13.2,0,6.8,0,0.3
	C0,0.1,0,0,0.3,0c6.5,0,12.9,0,19.4,0C19.9,0,20,0,20,0.3C20,3.5,20,6.8,20,10z M19,19.4c0.3,0,0.3,0,0.3-0.3c0-6,0-12,0-18.1
	c0-0.2,0-0.3-0.3-0.3c-6,0-12.1,0-18.1,0c-0.2,0-0.3,0-0.3,0.3c0,6.1,0,12.1,0,18.2c0,0.2,0.1,0.3,0.3,0.3c3,0,6,0,9.1,0
	C13,19.4,16,19.3,19,19.4z"/>
<path d="M6.3,9.9c0-1.6,0-3.3,0-4.9c0-0.1,0-0.3,0-0.4C6.4,4.3,6.7,4.2,7,4.3c0.1,0,0.2,0.1,0.3,0.2c2.5,1.6,5,3.3,7.4,4.9
	c0.1,0,0.1,0.1,0.2,0.1c0.4,0.3,0.4,0.7,0,1c-0.3,0.2-0.6,0.4-0.8,0.6c-2.2,1.5-4.4,2.9-6.7,4.4c-0.1,0.1-0.2,0.1-0.3,0.2
	c-0.4,0.2-0.8,0-0.8-0.4c0-0.1,0-0.2,0-0.4C6.3,13.2,6.3,11.6,6.3,9.9z M7,5.1c0,3.3,0,6.5,0,9.8c2.5-1.6,4.9-3.2,7.4-4.9
	C11.9,8.3,9.5,6.7,7,5.1z"/>
</svg>
