<svg xmlns="http://www.w3.org/2000/svg" viewBox="0 0 20 20">
<path d="M10,0c3.2,0,6.5,0,9.7,0C19.9,0,20,0,20,0.3c0,6.5,0,12.9,0,19.4c0,0.2-0.1,0.3-0.3,0.3c-6.5,0-12.9,0-19.4,0
	C0.1,20,0,20,0,19.7C0,13.2,0,6.8,0,0.3C0,0.1,0.1,0,0.3,0C3.5,0,6.8,0,10,0z M1,0.7c-0.2,0-0.3,0-0.3,0.3c0,6,0,12,0,18.1
	c0,0.3,0.1,0.3,0.3,0.3c6,0,12,0,18,0c0.3,0,0.4,0,0.4-0.3c0-6,0-12,0-18c0-0.2,0-0.3-0.3-0.3c-3,0-6,0-9.1,0C7,0.7,4,0.7,1,0.7z"/>
<path d="M10.4,3.4c0.4,0.8,0.7,1.6,1,2.4C12,7,12.7,8.1,13.5,9.3c1.6,2.3,0.4,5.3-2.3,6c-2.5,0.6-5-1.6-4.7-4.2
	c0.1-0.7,0.3-1.3,0.7-1.9c1.2-1.7,2.2-3.5,3-5.5C10.3,3.6,10.3,3.5,10.4,3.4z M10.3,5.6C9.7,7,8.8,8.4,7.9,9.7
	c-0.5,0.7-0.7,1.5-0.5,2.4c0.3,1.2,1.1,2,2.3,2.3s2.3-0.1,3.1-1.1c0.8-1,0.9-2.1,0.3-3.3c-0.2-0.4-0.5-0.7-0.7-1.1
	C11.6,7.9,10.9,6.7,10.3,5.6C10.3,5.5,10.3,5.5,10.3,5.6z"/>
<path d="M10.3,13.6c-1.8,0-2.5-1.5-2-3c0.1-0.2,0.3-0.3,0.5-0.3C9,10.4,9.1,10.6,9,10.8c0,0.3,0,0.6,0,0.8c0,0.9,0.9,1.4,1.8,1.1
	c0,0,0.1,0,0.1-0.1c0.3-0.1,0.5,0,0.6,0.2s0,0.4-0.2,0.6C10.9,13.6,10.6,13.6,10.3,13.6z"/>
</svg>
