<svg xmlns="http://www.w3.org/2000/svg" viewBox="0 0 20 20">
<g>
	<path d="M20,0.3C20,0,19.9,0,19.7,0c-3.2,0-6.5,0-9.7,0S3.5,0,0.3,0C0,0,0,0.1,0,0.3c0,6.5,0,12.9,0,19.4C0,20,0.1,20,0.3,20
		c6.5,0,12.9,0,19.4,0c0.2,0,0.3-0.1,0.3-0.3C20,13.2,20,6.8,20,0.3z M19,19.4c-3,0-6,0-9,0s-6.1,0-9.1,0c-0.2,0-0.3,0-0.3-0.3
		c0-6.1,0-12.1,0-18.2c0-0.2,0.1-0.3,0.3-0.3c6,0,12.1,0,18.1,0c0.2,0,0.3,0.1,0.3,0.3c0,6,0,12,0,18.1C19.4,19.3,19.3,19.4,19,19.4
		z"/>
	<path d="M3.2,15.4c0,0.1,0,0.1,0,0.2c0,0.2,0.1,0.3,0.3,0.3s0.3-0.1,0.3-0.3c0-0.1,0-0.2,0-0.2c0-1.7,0-3.4,0-5.1
		c0-0.2,0-0.3,0.2-0.3c0.5-0.2,1-0.4,1.5-0.6C5.8,9.3,6.1,9.1,6.4,9c0,0.1,0,0.2,0,0.3c0,2,0,4.1,0,6.1c0,0.1,0,0.1,0,0.2
		c0,0.2,0.1,0.3,0.3,0.3c0.2,0,0.3-0.1,0.4-0.3c0-0.1,0-0.2,0-0.3c0-2.1,0-4.1,0-6.2c0-0.2,0-0.3,0.3-0.2c1,0.3,2,0.6,3,0.9
		c0.2,0.1,0.2,0.1,0.2,0.3c0,1.8,0,3.6,0,5.3c0,0.3,0.1,0.4,0.3,0.4s0.3-0.2,0.3-0.4c0-1.9,0-3.9,0-5.8c0-0.2-0.1-0.4-0.3-0.4
		C10.5,9.1,10,9,9.4,8.8c-0.1,0-0.2-0.1-0.2-0.3c0-1.2,0-2.4,0-3.6c0-0.2,0.1-0.2,0.2-0.3c0.7-0.3,1.4-0.6,2.2-0.9
		c0.3-0.1,0.3-0.1,0.3,0.2c0,3.8,0,7.6,0,11.3c0,0.1,0,0.2,0,0.3c0,0.2,0.1,0.3,0.3,0.3s0.3-0.1,0.3-0.3c0-0.1,0-0.2,0-0.2
		c0-3.8,0-7.5,0-11.3c0-0.1,0-0.2,0-0.3c0.1,0,0.1,0,0.2,0.1c0.9,0.4,1.8,0.8,2.7,1.2c0.2,0.1,0.3,0.2,0.3,0.4c0,3.3,0,6.6,0,9.9
		c0,0.1,0,0.2,0,0.3c0,0.2,0.1,0.3,0.3,0.3c0.2,0,0.3-0.1,0.3-0.3c0-0.1,0-0.1,0-0.2c0-3.4,0-6.8,0-10.3c0-0.3-0.1-0.4-0.3-0.6
		c-1.2-0.5-2.4-1.1-3.6-1.6c-0.2-0.1-0.3-0.1-0.5,0C11,3.3,10,3.7,8.9,4.1C8.7,4.2,8.6,4.4,8.6,4.7c0,1.2,0,2.4,0,3.7
		c0,0.2,0,0.2-0.2,0.2C8,8.3,7.5,8.2,7.1,8.1c-0.2-0.1-0.3,0-0.5,0c-1,0.4-2,0.9-3,1.3C3.3,9.6,3.2,9.7,3.2,10
		C3.2,11.8,3.2,13.6,3.2,15.4z"/>
	<path d="M17.8,16.4c-0.1,0-0.1,0-0.2,0c-5.1,0-10.1,0-15.2,0c-0.1,0-0.1,0-0.2,0c-0.2,0-0.4,0.1-0.4,0.3S1.9,17,2.1,17
		c0.1,0,0.1,0,0.2,0c2.5,0,5,0,7.6,0c2.5,0,5.1,0,7.6,0c0.1,0,0.1,0,0.2,0c0.2,0,0.3-0.1,0.3-0.3C18.1,16.6,18,16.5,17.8,16.4z"/>
</g>
</svg>
