<svg id="Layer_1" data-name="Layer 1" xmlns="http://www.w3.org/2000/svg" viewBox="0 0 20 20"><defs><style>.cls-1{fill:#064d7e;}</style></defs><title>Office</title><path class="cls-1" d="M1.73,16.64a1.31,1.31,0,0,0,0,.28.37.37,0,0,0,.4.34.39.39,0,0,0,.42-.35,1.58,1.58,0,0,0,0-.31c0-2.07,0-4.14,0-6.22A.37.37,0,0,1,2.84,10c.6-.25,1.19-.54,1.79-.8l1.12-.5v7.93a2.43,2.43,0,0,0,0,.27.4.4,0,0,0,.38.4.41.41,0,0,0,.46-.37,1.79,1.79,0,0,0,0-.33c0-2.55,0-5.1,0-7.65,0-.29.07-.33.34-.24,1.21.39,2.44.77,3.67,1.14.23.06.29.17.28.4v6.56c0,.33.16.53.42.53s.41-.19.41-.51q0-3.55,0-7.11a.49.49,0,0,0-.4-.53c-.65-.2-1.31-.41-2-.6-.17-.06-.25-.12-.25-.32,0-1.47,0-3,0-4.43a.31.31,0,0,1,.24-.34Q10.68,3,12,2.41c.35-.14.35-.14.35.24V16.58a1.9,1.9,0,0,0,0,.34.39.39,0,0,0,.42.36.38.38,0,0,0,.41-.36,1.63,1.63,0,0,0,0-.31V2.75a.89.89,0,0,1,0-.42l.22.09c1.1.5,2.2,1,3.32,1.5a.46.46,0,0,1,.32.5V16.56a1.2,1.2,0,0,0,0,.33.4.4,0,0,0,.42.37.42.42,0,0,0,.42-.37,1.22,1.22,0,0,0,0-.27Q18,10.32,18,4a.65.65,0,0,0-.43-.68l-4.45-2a.66.66,0,0,0-.58,0L8.72,2.81a.58.58,0,0,0-.43.63c0,1.5,0,3,0,4.49,0,.22,0,.3-.27.22C7.53,8,7,7.84,6.52,7.68a.88.88,0,0,0-.71,0c-1.2.54-2.41,1.09-3.63,1.61a.66.66,0,0,0-.44.7C1.74,12.23,1.73,14.44,1.73,16.64Z"/><path class="cls-1" d="M19.6,17.91a2.43,2.43,0,0,0-.27,0H.43a.42.42,0,1,0,0,.84H19.6a.39.39,0,0,0,.4-.41A.41.41,0,0,0,19.6,17.91Z"/></svg>