<svg id="Layer_1" data-name="Layer 1" xmlns="http://www.w3.org/2000/svg" viewBox="0 0 20 20"><defs><style>.cls-1{fill:#044c7e;}</style></defs><title>Oil_Diesel</title><path class="cls-1" d="M10,0c.6,1.38,1.1,2.69,1.7,4a46,46,0,0,0,3.56,5.9A6.42,6.42,0,1,1,4.82,9.71a40.2,40.2,0,0,0,5-9.19C9.85.38,9.92.24,10,0Zm-.1,3.64a41.18,41.18,0,0,1-4.09,7,4.83,4.83,0,0,0-.79,4,4.86,4.86,0,0,0,3.81,3.87A4.79,4.79,0,0,0,14,16.71a4.9,4.9,0,0,0,.57-5.47,13.37,13.37,0,0,0-1.21-1.85A36.93,36.93,0,0,1,10,3.52C10,3.59,9.93,3.61,9.92,3.64Z"/><path class="cls-1" d="M10.84,17.13c-3.06-.06-4.19-2.55-3.32-5a.66.66,0,1,1,1.26.42,3.63,3.63,0,0,0-.2,1.22,2.13,2.13,0,0,0,3,1.86,2,2,0,0,1,.22-.09.66.66,0,0,1,.93.31.68.68,0,0,1-.41.93A3.12,3.12,0,0,1,10.84,17.13Z"/></svg>