<svg xmlns="http://www.w3.org/2000/svg" viewBox="0 0 20 20">
  <title>ap</title>
  <g>
    <path d="M13.53,19.95H.3a.3.3,0,0,1-.3-.3V.3A.3.3,0,0,1,.3,0H13.53a.3.3,0,0,1,.3.3V7.72a.3.3,0,0,1-.6,0V.6H.6V19.35H13.23v-1a.3.3,0,0,1,.6,0v1.25A.3.3,0,0,1,13.53,19.95Z"/>
    <path d="M11.48,19.95H8.67a.3.3,0,0,1-.3-.3V15.14a.3.3,0,0,1,.3-.3h2.81a.3.3,0,0,1,.3.3v4.51A.3.3,0,0,1,11.48,19.95ZM9,19.35h2.21V15.44H9Z"/>
    <path d="M6.37,4.41H1.75a.3.3,0,0,1-.3-.3V1.7a.3.3,0,0,1,.3-.3H6.37a.3.3,0,0,1,.3.3V4.11A.3.3,0,0,1,6.37,4.41Zm-4.31-.6h4V2h-4Z"/>
    <path d="M12.18,4.41H7.77a.3.3,0,0,1-.3-.3V1.7a.3.3,0,0,1,.3-.3h4.41a.3.3,0,0,1,.3.3V4.11A.3.3,0,0,1,12.18,4.41Zm-4.11-.6h3.81V2H8.07Z"/>
    <path d="M6.37,8H1.75a.3.3,0,0,1-.3-.3V5.31a.3.3,0,0,1,.3-.3H6.37a.3.3,0,0,1,.3.3V7.72A.3.3,0,0,1,6.37,8Zm-4.31-.6h4V5.61h-4Z"/>
    <path d="M12.18,8H7.77a.3.3,0,0,1-.3-.3V5.31a.3.3,0,0,1,.3-.3h4.41a.3.3,0,0,1,.3.3V7.72A.3.3,0,0,1,12.18,8Zm-4.11-.6h3.81V5.61H8.07Z"/>
    <path d="M6.37,11.83H1.75a.3.3,0,0,1-.3-.3V9.12a.3.3,0,0,1,.3-.3H6.37a.3.3,0,0,1,.3.3v2.41A.3.3,0,0,1,6.37,11.83Zm-4.31-.6h4V9.42h-4Z"/>
    <path d="M6.37,15.74H1.75a.3.3,0,0,1-.3-.3V13a.3.3,0,0,1,.3-.3H6.37a.3.3,0,0,1,.3.3v2.41A.3.3,0,0,1,6.37,15.74Zm-4.31-.6h4v-1.8h-4Z"/>
    <g>
      <path d="M16.14,20h0a.3.3,0,0,1-.24-.12s-.91-1.25-1.79-2.71c-1.21-2-1.82-3.45-1.82-4.32a3.86,3.86,0,0,1,7.72,0c0,.87-.61,2.33-1.82,4.32-.89,1.46-1.78,2.7-1.79,2.71A.3.3,0,0,1,16.14,20Zm0-10.42a3.26,3.26,0,0,0-3.26,3.26c0,1.42,2.16,4.79,3.26,6.34,1.09-1.56,3.26-4.93,3.26-6.34A3.26,3.26,0,0,0,16.14,9.57Z"/>
      <path d="M16.14,14.37a1.43,1.43,0,1,1,1.43-1.43A1.44,1.44,0,0,1,16.14,14.37Zm0-2.27a.83.83,0,1,0,.83.83A.83.83,0,0,0,16.14,12.11Z"/>
    </g>
  </g>
</svg>
