<svg xmlns="http://www.w3.org/2000/svg" viewBox="0 0 20 20">
<path d="M10,20c-3.3,0-6.5,0-9.8,0C0,20,0,20,0,19.8C0,13.3,0,6.7,0,0.2C0,0,0,0,0.2,0c6.5,0,13.1,0,19.6,0C20,0,20,0,20,0.2
	c0,6.5,0,13.1,0,19.6c0,0.2,0,0.2-0.2,0.2C16.5,20,13.3,20,10,20z M19.1,19.4c0.2,0,0.2,0,0.2-0.2c0-6.1,0-12.2,0-18.3
	c0-0.2-0.1-0.2-0.2-0.2c-6.1,0-12.2,0-18.2,0c-0.2,0-0.2,0-0.2,0.2c0,6.1,0,12.2,0,18.3c0,0.2,0.1,0.2,0.2,0.2c3,0,6.1,0,9.1,0
	S16.1,19.4,19.1,19.4z"/>
<path d="M13.3,8.3c0.3,0,0.6,0,0.9,0c0.3,0,0.4,0.1,0.4,0.4c0.1,0.7,0.2,1.3,0.3,2c0,0.1,0,0.2,0,0.3c-0.1,0.2-0.2,0.2-0.4,0.2
	s-0.3-0.2-0.3-0.3c-0.1-0.5-0.2-1-0.2-1.5C14,9,13.9,9,13.7,9c-0.4,0-0.9,0-1.3,0c-0.1,0-0.2,0-0.1,0.2c0.3,2.4,0.6,4.8,0.8,7.2
	c0.1,0.5,0.1,1.1,0.2,1.6c0,0.1,0,0.1-0.1,0.1c-0.5,0-0.6,0-0.6-0.5c-0.2-1.5-0.3-3-0.5-4.4c-0.2-1.3-0.3-2.6-0.5-4
	C11.5,9,11.5,9,11.3,9c-1,0-1.9,0-2.9,0C8.3,9,8.2,9,8.2,9.2C8,10.8,7.7,12.4,7.4,14c-0.2,1.3-0.4,2.6-0.6,3.9C6.8,18,6.7,18,6.6,18
	C6,18,6,18,6.1,17.5c0.4-2.8,0.9-5.6,1.4-8.4C7.5,9,7.5,9,7.3,9C7,9,6.7,9,6.4,9C6.2,9,6.2,9,6.1,9.1C6,9.7,5.9,10.3,5.8,10.8v0.1
	c-0.1,0.2-0.2,0.4-0.4,0.3c-0.2,0-0.3-0.2-0.3-0.5c0.1-0.3,0.1-0.7,0.2-1C5.4,9.4,5.5,9,5.6,8.6c0-0.2,0.2-0.3,0.4-0.3
	c0.5,0,1,0,1.5,0c0.2,0,0.2,0,0.2-0.2C7.8,7,8,5.9,8.2,4.8c0-0.1,0-0.1-0.1-0.1c-0.3,0-0.6,0-1,0C7,4.6,7,4.7,7,4.8
	C6.9,5.2,6.8,5.7,6.7,6.1c0,0,0,0.1,0,0.2C6.6,6.4,6.4,6.5,6.2,6.5C6,6.5,5.9,6.3,6,6.1c0-0.2,0.1-0.5,0.2-0.7
	c0-0.4,0.1-0.8,0.2-1.2c0-0.2,0.2-0.3,0.4-0.3c0.1,0,0.1,0,0.2,0c2.1,0,4.2,0,6.3,0c0.4,0,0.5,0,0.6,0.5s0.2,1,0.2,1.5
	c0,0.2-0.1,0.4-0.3,0.4s-0.4-0.1-0.4-0.4c-0.1-0.4-0.1-0.8-0.2-1.2c0-0.1-0.1-0.2-0.2-0.2c-0.3,0-0.7,0-1,0c-0.1,0-0.2,0-0.2,0.2
	C11.9,5.9,12,7,12.1,8.1c0,0.1,0.1,0.2,0.2,0.2C12.6,8.3,12.9,8.3,13.3,8.3z M11.3,8.3c0.1,0,0.2,0,0.2-0.2C11.3,7,11.2,5.9,11,4.8
	c0-0.1-0.1-0.2-0.2-0.2c-0.6,0-1.1,0-1.7,0C9,4.6,8.9,4.7,8.9,4.9C8.7,5.9,8.6,7,8.4,8.1c0,0.2,0,0.2,0.2,0.2c0.5,0,0.9,0,1.4,0
	C10.3,8.3,10.8,8.3,11.3,8.3z"/>
</svg>
