<svg xmlns="http://www.w3.org/2000/svg" viewBox="0 0 20 20"><title>ap</title><path d="M19.69,17.63H.31A.31.31,0,0,1,0,17.32V4.62a.31.31,0,0,1,.31-.31H19.69a.31.31,0,0,1,.31.31V17.32A.31.31,0,0,1,19.69,17.63ZM.62,17H19.38V4.93H.62Z"/><path d="M19.69,11H.42a.31.31,0,1,1,0-.62H19.69a.31.31,0,1,1,0,.62Z"/><rect x="4.94" y="8.71" width="1.72" height="3.88" rx="0.65" ry="0.65"/><rect x="13.23" y="8.71" width="1.72" height="3.88" rx="0.65" ry="0.65"/><path d="M13.66,4.6a.31.31,0,0,1-.31-.31V3h-7V4.29a.31.31,0,0,1-.62,0V2.68A.31.31,0,0,1,6,2.37h7.64a.31.31,0,0,1,.31.31V4.29A.31.31,0,0,1,13.66,4.6Z"/></svg>