<svg xmlns="http://www.w3.org/2000/svg" viewBox="0 0 20 20">
  <title>ap</title>
  <g>
    <path d="M19.31,19.91H.69a.29.29,0,0,1-.29-.29V.38A.29.29,0,0,1,.69.09H7.21a.29.29,0,0,1,.21.09l3.25,3.39h8.61a.29.29,0,0,1,.29.29l0,15.76a.29.29,0,0,1-.29.29ZM1,19.33H19L19,4.15H10.55a.29.29,0,0,1-.21-.09L7.09.67H1Z"/>
    <path d="M19.31,5.17A.29.29,0,0,1,19,4.88V1.52H8.58a.29.29,0,0,1,0-.58H19.31a.29.29,0,0,1,.29.29V4.88A.29.29,0,0,1,19.31,5.17Z"/>
    <path d="M16.87,13.17H3.13a.29.29,0,0,1,0-.58H16.87a.29.29,0,0,1,0,.58Z"/>
    <path d="M16.87,16H3.13a.29.29,0,0,1,0-.58H16.87a.29.29,0,0,1,0,.58Z"/>
  </g>
</svg>
