<svg id="Layer_1" data-name="Layer 1" xmlns="http://www.w3.org/2000/svg" viewBox="0 0 200 200"><defs><style>.cls-1{fill:#005e98;}</style></defs><title>AP_promotions</title><path class="cls-1" d="M100,198.39h0a9.63,9.63,0,0,1-7.53-3.6l-9.23-11.43a17.93,17.93,0,0,0-14-6.68,18.48,18.48,0,0,0-4.67.61l-14.19,3.82a9.69,9.69,0,0,1-12.18-8.85l-.75-14.67A18,18,0,0,0,25.9,141.7l-13.73-5.25a9.69,9.69,0,0,1-4.65-14.32l8-12.31a18,18,0,0,0,0-19.64l-8-12.31a9.68,9.68,0,0,1,4.65-14.32L25.9,58.3A18,18,0,0,0,37.44,42.41l.75-14.67a9.69,9.69,0,0,1,12.18-8.86L64.56,22.7a18,18,0,0,0,18.68-6.06L92.47,5.21A9.63,9.63,0,0,1,100,1.61h0a9.63,9.63,0,0,1,7.53,3.6l9.23,11.43a18,18,0,0,0,18.68,6.06l14.19-3.81a9.68,9.68,0,0,1,12.18,8.84l.76,14.68A18,18,0,0,0,174.11,58.3l13.72,5.25a9.69,9.69,0,0,1,4.65,14.32l-8,12.31a18,18,0,0,0,0,19.63l8,12.32a9.69,9.69,0,0,1-4.65,14.32L174.1,141.7a18,18,0,0,0-11.53,15.89l-.76,14.67a9.69,9.69,0,0,1-12.18,8.85l-14.19-3.82a18.05,18.05,0,0,0-18.68,6.07l-9.23,11.43A9.63,9.63,0,0,1,100,198.39ZM69.23,170.68a23.91,23.91,0,0,1,18.67,8.91L97.14,191a3.65,3.65,0,0,0,2.86,1.37h0a3.65,3.65,0,0,0,2.86-1.37l9.24-11.43A24,24,0,0,1,137,171.5l14.19,3.82a3.68,3.68,0,0,0,4.63-3.36l.75-14.68A24,24,0,0,1,172,136.1l13.72-5.25h0a3.66,3.66,0,0,0,1.77-5.44l-8-12.31a24,24,0,0,1,0-26.18l8-12.32a3.67,3.67,0,0,0-1.77-5.44L172,63.9a24,24,0,0,1-15.39-21.18L155.82,28a3.69,3.69,0,0,0-4.64-3.36L137,28.5a24,24,0,0,1-24.9-8.09L102.86,9a3.67,3.67,0,0,0-5.72,0L87.9,20.41A24,24,0,0,1,63,28.5L48.82,24.68A3.69,3.69,0,0,0,44.18,28l-.75,14.68A24,24,0,0,1,28,63.9L14.32,69.15a3.67,3.67,0,0,0-1.77,5.44l8,12.32a24,24,0,0,1,0,26.18l-8,12.31a3.68,3.68,0,0,0,1.77,5.45L28,136.1a24,24,0,0,1,15.39,21.18L44.18,172a3.69,3.69,0,0,0,4.64,3.36L63,171.5A23.77,23.77,0,0,1,69.23,170.68Z"/><path class="cls-1" d="M67.78,91.53a16.79,16.79,0,1,1,23.75,0A16.81,16.81,0,0,1,67.78,91.53ZM87.53,71.78a11.14,11.14,0,1,0,0,15.75A11.15,11.15,0,0,0,87.53,71.78Z"/><path class="cls-1" d="M108.47,132.22a16.79,16.79,0,1,1,23.75,0A16.81,16.81,0,0,1,108.47,132.22Zm19.75-19.75a11.14,11.14,0,1,0,0,15.75A11.15,11.15,0,0,0,128.22,112.47Z"/><path class="cls-1" d="M63.49,139.86a3,3,0,0,1-2.12-5.12l73.37-73.37A3,3,0,1,1,139,65.61L65.61,139A3,3,0,0,1,63.49,139.86Z"/></svg>