<svg xmlns="http://www.w3.org/2000/svg" viewBox="0 0 20 20">
<g>
	<path d="M19.9,0.3C19.9,0,19.8,0,19.6,0C13.2,0,6.7,0,0.3,0C0.1,0,0,0,0,0.3c0,6.4,0,12.9,0,19.3c0,0.2,0.1,0.3,0.3,0.3
		c3.2,0,6.4,0,9.7,0c3.2,0,6.4,0,9.6,0c0.2,0,0.3,0,0.3-0.3C19.9,13.2,19.9,6.7,19.9,0.3z M0.6,1c0-0.3,0-0.3,0.3-0.3
		c5.8,0,11.7,0,17.5,0c0.1,0,0.2,0,0.2,0C15.3,4.1,11.8,7.5,8.4,11c0-0.4-0.1-0.9-0.2-1.5C8.1,8.5,8,7.4,7.9,6.3
		c0-0.2,0-0.3,0.2-0.3c0.3,0,0.7,0,1,0c0.1,0,0.2,0,0.2,0.2C9.4,6.6,9.4,7,9.5,7.5c0,0.2,0.1,0.4,0.4,0.3c0.2,0,0.3-0.2,0.2-0.4
		c-0.1-0.5-0.2-1-0.3-1.6c0-0.2-0.2-0.3-0.4-0.3c-0.5,0-1,0-1.5,0c-0.1,0-0.2,0-0.2-0.2C7.6,4.4,7.5,3.6,7.4,2.7
		c0-0.2,0-0.2,0.2-0.2c0.3,0,0.6-0.1,0.9,0C8.7,2.7,8.6,3,8.7,3.3c0,0.1,0,0.2,0.1,0.4c0,0.2,0.2,0.2,0.3,0.2s0.3-0.1,0.3-0.3
		C9.3,3.1,9.3,2.6,9.2,2c0-0.2-0.2-0.2-0.4-0.2c-1.5,0-2.9,0-4.4,0c-0.3,0-0.6,0-1,0C3.2,1.9,3,2,3,2.2c-0.1,0.5-0.2,1-0.3,1.4
		c0,0.2,0,0.3,0.2,0.4c0.2,0,0.3-0.1,0.4-0.2c0.1-0.4,0.2-0.7,0.2-1.1c0-0.2,0.1-0.2,0.3-0.2c0.2,0,0.4,0,0.6,0s0.2,0.1,0.2,0.2
		C4.4,3.6,4.2,4.5,4.1,5.3c0,0.1-0.1,0.1-0.2,0.1c-0.4,0-0.8,0-1.2,0c-0.2,0-0.3,0.1-0.4,0.3C2.2,6.4,2.1,7,1.9,7.6
		c0,0.2,0,0.4,0.2,0.4s0.3-0.1,0.4-0.3c0.1-0.5,0.2-0.9,0.3-1.4C2.8,6.1,2.9,6,3.1,6s0.4,0,0.7,0C3.9,6,4,6,4,6.2
		C3.6,8.6,3.2,11,2.8,13.4c-0.2,1.2-0.4,2.4-0.6,3.6c0,0.2-0.1,0.4-0.2,0.5c-0.4,0.4-0.8,0.8-1.3,1.3c0-0.2,0-0.3,0-0.3
		C0.6,12.7,0.7,6.8,0.6,1z M4.8,6.1c0.7,0,1.5,0,2.2,0c0.2,0,0.3,0.1,0.3,0.2c0.1,1.2,0.3,2.4,0.4,3.6c0.1,0.5,0.1,1.1,0.2,1.6
		c0,0.1,0,0.2-0.1,0.3c-1.6,1.6-3.2,3.2-4.9,4.9c0,0,0,0-0.1,0c0.4-2.4,0.8-4.9,1.2-7.3c0.2-1,0.3-2,0.5-2.9C4.5,6.1,4.6,6,4.8,6.1z
		 M4.7,5.3C4.8,4.4,5,3.5,5.1,2.7c0-0.1,0.1-0.2,0.2-0.2c0.5,0,0.9,0,1.4,0c0.1,0,0.2,0.1,0.2,0.2C7,3.6,7.1,4.4,7.2,5.3
		c0,0.1,0,0.2-0.2,0.2c-0.4,0-0.7,0-1.1,0s-0.7,0-1.1,0C4.7,5.5,4.6,5.4,4.7,5.3z M19,19.3h-0.1c-5.8,0-11.6,0-17.4,0
		c-0.1,0-0.2,0-0.2,0c6-6,12-12,18-18c0,5.3,0,10.7,0,16.1c-0.2-0.1-0.4-0.2-0.5-0.4c-0.3-0.5-0.5-0.5-0.8,0c-0.5,0.7-1.3,0.7-1.9,0
		c0,0-0.1-0.1-0.1-0.2c-0.2-0.3-0.3-0.3-0.5,0c0,0-0.1,0.1-0.1,0.2c-0.6,0.7-1.4,0.7-1.9,0c0,0-0.1-0.1-0.1-0.2
		c-0.2-0.2-0.3-0.2-0.5,0c-0.1,0.1-0.1,0.1-0.2,0.2c-0.5,0.6-1.3,0.6-1.8,0c-0.4-0.5-0.4-0.5-0.8,0c-0.2,0.3-0.5,0.5-0.9,0.5
		c-0.1,0-0.3,0.1-0.3,0.2c0,0.2,0.1,0.2,0.3,0.2c0.4,0,0.8-0.2,1.1-0.5c0.1-0.1,0.2-0.1,0.3,0c0.7,0.7,1.6,0.7,2.3,0
		c0.1-0.1,0.2-0.1,0.3,0c0.7,0.7,1.6,0.7,2.4,0c0.1-0.1,0.2-0.1,0.3,0c0.7,0.7,1.6,0.7,2.4,0c0.1-0.1,0.2-0.1,0.3,0
		c0.2,0.2,0.4,0.3,0.6,0.4c0.1,0,0.2,0.1,0.2,0.2c0,0.3,0,0.7,0,1C19.3,19.2,19.2,19.3,19,19.3z"/>
	<path d="M15.1,15.9c1.9-0.5,2.6-2.7,1.5-4.3c-0.7-0.9-1.3-1.9-1.7-2.9c-0.2-0.3-0.3-0.7-0.4-1l0,0c-0.6,1.5-1.4,2.8-2.3,4.1
		c-0.7,1-0.6,2.2,0.1,3.2C12.8,15.8,14,16.2,15.1,15.9z M12.4,12.2c0.7-1.1,1.4-2.1,2-3.4c0.1,0.3,0.3,0.5,0.4,0.8
		c0.4,0.8,1,1.6,1.5,2.4c0.9,1.4,0.2,3.2-1.4,3.5c-0.9,0.2-1.7-0.1-2.3-0.8C12,13.9,11.9,13,12.4,12.2z"/>
</g>
</svg>
