<svg xmlns="http://www.w3.org/2000/svg" viewBox="0 0 20 20">
<title>ACWA_Power_iconography_expanded_grey_v2</title>
<path d="M18.1,19.9H1.9c-0.2,0-0.3-0.1-0.3-0.3V0.3C1.6,0.1,1.7,0,1.9,0h16.2c0.2,0,0.3,0.1,0.3,0.3v19.3
	C18.4,19.7,18.2,19.9,18.1,19.9z M2.2,19.3h15.6V0.6H2.2V19.3z"/>
<path d="M15.7,12.4H4.9c-0.2,0-0.3-0.1-0.3-0.3s0.1-0.3,0.3-0.3h10.8c0.2,0,0.3,0.1,0.3,0.3C16,12.3,15.9,12.4,15.7,12.4z"/>
<path d="M15.7,14.7H4.9c-0.2,0-0.3-0.1-0.3-0.3s0.1-0.3,0.3-0.3h10.8c0.2,0,0.3,0.1,0.3,0.3C16,14.6,15.9,14.7,15.7,14.7z"/>
<path d="M15.7,17H4.9c-0.2,0-0.3-0.1-0.3-0.3s0.1-0.3,0.3-0.3h10.8c0.2,0,0.3,0.1,0.3,0.3S15.9,17,15.7,17z"/>
<path d="M12.9,6.5c-1,0-1.8-0.8-1.8-1.8S12,3,12.9,3c1,0,1.8,0.8,1.8,1.8l0,0C14.7,5.7,13.9,6.5,12.9,6.5z M12.9,3.6
	c-0.6,0-1.2,0.5-1.2,1.2c0,0.6,0.5,1.2,1.2,1.2s1.2-0.5,1.2-1.2l0,0C14.1,4.1,13.6,3.6,12.9,3.6z"/>
<path d="M15.7,10.6h-5.5c-0.2,0-0.3-0.1-0.3-0.3V9.5c0-1.6,1.3-2.8,2.8-2.8h0.5C14.7,6.7,16,8,16,9.5v0.8
	C16,10.4,15.9,10.6,15.7,10.6L15.7,10.6z M10.5,10h4.9V9.5c0-1.2-1-2.2-2.2-2.2h-0.5c-1.2,0-2.2,1-2.2,2.2V10z"/>
<path d="M7.9,4.3H4.7C4.5,4.3,4.4,4.1,4.4,4c0-0.2,0.1-0.3,0.3-0.3H8c0.2,0,0.3,0.1,0.3,0.3C8.2,4.1,8.1,4.3,7.9,4.3z"/>
<path d="M7.9,6.2H4.7C4.5,6.2,4.4,6,4.4,5.9c0-0.2,0.1-0.3,0.3-0.3H8c0.2,0,0.3,0.1,0.3,0.3C8.2,6,8.1,6.2,7.9,6.2z"/>
<path d="M7.9,8.1H4.7C4.5,8.1,4.4,8,4.4,7.8s0.1-0.3,0.3-0.3H8c0.2,0,0.3,0.1,0.3,0.3C8.3,8,8.1,8.1,7.9,8.1z"/>
</svg>
