<svg xmlns="http://www.w3.org/2000/svg" viewBox="0 0 20 20">
  <title>ap</title>
  <g>
    <path d="M7.35,9.66A4.06,4.06,0,1,1,11.41,5.6,4.06,4.06,0,0,1,7.35,9.66Zm0-7.52A3.46,3.46,0,1,0,10.81,5.6,3.46,3.46,0,0,0,7.35,2.15Z"/>
    <path d="M14.4,20H.3a.3.3,0,0,1-.3-.3V17.84a6.9,6.9,0,0,1,6.9-6.9H7.8a6.9,6.9,0,0,1,6.9,6.9V19.7A.3.3,0,0,1,14.4,20ZM.6,19.4H14.1V17.84A6.3,6.3,0,0,0,7.8,11.54H6.9A6.3,6.3,0,0,0,.6,17.84Z"/>
    <path d="M14.81,5.78A2.89,2.89,0,1,1,17.7,2.89,2.9,2.9,0,0,1,14.81,5.78Zm0-5.18A2.29,2.29,0,1,0,17.1,2.89,2.29,2.29,0,0,0,14.81.6Z"/>
    <path d="M19.67,12.91H15.12a.3.3,0,0,1,0-.6h4.25v-.67A4.56,4.56,0,0,0,13,7.47a.3.3,0,1,1-.24-.55A5.16,5.16,0,0,1,20,11.64v1A.3.3,0,0,1,19.67,12.91Z"/>
  </g>
</svg>
