<svg xmlns="http://www.w3.org/2000/svg" viewBox="0 0 20 20">
  <title>ap</title>
  <g>
    <path d="M18.1,19.88H1.9a.3.3,0,0,1-.3-.3V.3A.3.3,0,0,1,1.9,0H18.1a.3.3,0,0,1,.3.3V19.58A.3.3,0,0,1,18.1,19.88Zm-15.9-.6H17.8V.6H2.2Z"/>
    <path d="M15.3,17.82a.3.3,0,0,1-.26-.16l-.57-1.11-.57,1.11a.3.3,0,0,1-.56-.14V12.18a1.85,1.85,0,1,1,2.27,0v5.39a.3.3,0,0,1-.23.29Zm-.84-2.22a.3.3,0,0,1,.27.16l.27.53V12a.3.3,0,0,1,.13-.25,1.26,1.26,0,1,0-1.35,0,.3.3,0,0,1,.14.25v4.27l.27-.53A.3.3,0,0,1,14.46,15.6Z"/>
    <path d="M14.43,12.47a1.78,1.78,0,1,1,1.78-1.78A1.78,1.78,0,0,1,14.43,12.47Zm0-3a1.18,1.18,0,1,0,1.18,1.18A1.18,1.18,0,0,0,14.43,9.51Z"/>
    <path d="M15.52,3H4.68a.3.3,0,0,1,0-.6H15.52a.3.3,0,1,1,0,.6Z"/>
    <path d="M15.52,5.27H4.68a.3.3,0,1,1,0-.6H15.52a.3.3,0,1,1,0,.6Z"/>
    <path d="M15.52,7.55H4.68a.3.3,0,1,1,0-.6H15.52a.3.3,0,1,1,0,.6Z"/>
    <path d="M10,9.94H4.68a.3.3,0,1,1,0-.6H10a.3.3,0,0,1,0,.6Z"/>
    <path d="M10,11.93H4.68a.3.3,0,1,1,0-.6H10a.3.3,0,0,1,0,.6Z"/>
    <path d="M10,13.91H4.68a.3.3,0,0,1,0-.6H10a.3.3,0,0,1,0,.6Z"/>
    <path d="M10,15.9H4.68a.3.3,0,0,1,0-.6H10a.3.3,0,0,1,0,.6Z"/>
  </g>
</svg>
