<svg xmlns="http://www.w3.org/2000/svg" viewBox="0 0 20 20">
  <title>ap</title>
  <g>
    <path d="M17.65,20H1.35a.3.3,0,0,1-.3-.3V.3a.3.3,0,0,1,.3-.3h16.3a.3.3,0,0,1,.3.3V19.7A.3.3,0,0,1,17.65,20Zm-16-.6h15.7V.6H1.65Z"/>
    <g>
      <path d="M11.15,17.35h0a.45.45,0,0,1-.33-.18L9.19,15a.45.45,0,0,1,.73-.53l1.29,1.77,3.53-3.53a.45.45,0,1,1,.64.64l-3.9,3.9A.45.45,0,0,1,11.15,17.35Z"/>
      <path d="M15.05,4H4.15a.3.3,0,0,1,0-.6h10.9a.3.3,0,0,1,0,.6Z"/>
      <path d="M15.05,6.3H4.15a.3.3,0,1,1,0-.6h10.9a.3.3,0,1,1,0,.6Z"/>
      <path d="M15.05,8.6H4.15a.3.3,0,0,1,0-.6h10.9a.3.3,0,1,1,0,.6Z"/>
      <path d="M15.05,10.9H4.15a.3.3,0,0,1,0-.6h10.9a.3.3,0,0,1,0,.6Z"/>
      <path d="M7.43,13.2H4.15a.3.3,0,0,1,0-.6H7.43a.3.3,0,0,1,0,.6Z"/>
      <path d="M7.43,15.1H4.15a.3.3,0,0,1,0-.6H7.43a.3.3,0,1,1,0,.6Z"/>
      <path d="M7.43,17H4.15a.3.3,0,1,1,0-.6H7.43a.3.3,0,0,1,0,.6Z"/>
    </g>
  </g>
</svg>
