<svg xmlns="http://www.w3.org/2000/svg" viewBox="0 0 20 20">
  <title>ap</title>
  <g>
    <g>
      <path d="M9,9.42a4.71,4.71,0,1,1,4.71-4.71A4.72,4.72,0,0,1,9,9.42ZM9,.61a4.1,4.1,0,1,0,4.1,4.1A4.11,4.11,0,0,0,9,.61Z"/>
      <path d="M16.11,20h-15a.3.3,0,0,1-.3-.3V18.37a7.8,7.8,0,0,1,10.55-7.3.3.3,0,1,1-.21.57,7.19,7.19,0,0,0-9.73,6.73v1H15.81v-.47a.3.3,0,0,1,.61,0v.77A.3.3,0,0,1,16.11,20Z"/>
    </g>
    <path d="M15.77,18h-.92a.3.3,0,0,1-.3-.24l-.23-1.16-.12-.05-1,.65a.3.3,0,0,1-.38,0l-.65-.65a.3.3,0,0,1,0-.38l.65-1L12.76,15l-1.16-.23a.3.3,0,0,1-.24-.3V13.6a.3.3,0,0,1,.24-.3l1.16-.23.05-.12-.65-1a.3.3,0,0,1,0-.38l.65-.65a.3.3,0,0,1,.38,0l1,.65.12-.05.23-1.16a.3.3,0,0,1,.3-.24h.92a.3.3,0,0,1,.3.24l.23,1.16.12.05,1-.65a.3.3,0,0,1,.38,0l.65.65a.3.3,0,0,1,0,.38l-.65,1,.05.12L19,13.3a.3.3,0,0,1,.24.3v.92a.3.3,0,0,1-.24.3L17.87,15l-.05.12.65,1a.3.3,0,0,1,0,.38l-.65.65a.3.3,0,0,1-.38,0l-1-.65-.12.05-.23,1.16A.3.3,0,0,1,15.77,18Zm-.67-.61h.42l.22-1.08a.3.3,0,0,1,.21-.23,1.92,1.92,0,0,0,.35-.15.3.3,0,0,1,.31,0l.92.61.29-.29-.61-.92a.3.3,0,0,1,0-.31,1.91,1.91,0,0,0,.15-.35.3.3,0,0,1,.23-.21l1.08-.22v-.42l-1.08-.22a.3.3,0,0,1-.23-.21,1.92,1.92,0,0,0-.15-.35.3.3,0,0,1,0-.31l.61-.92-.29-.29-.92.61a.3.3,0,0,1-.31,0,1.92,1.92,0,0,0-.35-.15.3.3,0,0,1-.21-.23l-.22-1.08H15.1l-.22,1.08a.3.3,0,0,1-.21.23,1.91,1.91,0,0,0-.35.15.3.3,0,0,1-.31,0l-.92-.61-.29.29.61.92a.3.3,0,0,1,0,.31,1.92,1.92,0,0,0-.15.35.3.3,0,0,1-.23.21L12,13.85v.42l1.08.22a.3.3,0,0,1,.23.21,1.92,1.92,0,0,0,.15.35.3.3,0,0,1,0,.31l-.61.92.29.29L14,16a.3.3,0,0,1,.31,0,1.92,1.92,0,0,0,.35.15.3.3,0,0,1,.21.23Z"/>
    <path d="M15.25,15.18a1.12,1.12,0,1,1,1.12-1.12A1.12,1.12,0,0,1,15.25,15.18Zm0-1.62a.51.51,0,1,0,.51.51A.51.51,0,0,0,15.25,13.55Z"/>
  </g>
</svg>
