<svg width="20px" height="20px" viewBox="0 0 20 20" version="1.1" xmlns="http://www.w3.org/2000/svg" xmlns:xlink="http://www.w3.org/1999/xlink">
    <g id="Page-1" stroke="none" stroke-width="1" fill="none" fill-rule="evenodd">
        <g id="ap_sun_solar2" fill="#C3C2C2">
            <g>
                <path d="M0,0 L0,20 L20,20 L20,0 L0,0 Z M19.3267327,19.3311331 L0.668866887,19.3311331 L0.668866887,0.673267327 L19.3267327,0.673267327 L19.3267327,19.3311331 Z" id="Shape" fill-rule="nonzero"></path>
                <path d="M7.14285714,6.53061224 C7.93233083,6.53061224 8.57142857,5.8915145 8.57142857,5.10204082 C8.57142857,4.31256713 7.93233083,3.67346939 7.14285714,3.67346939 C6.35338346,3.67346939 5.71428571,4.31256713 5.71428571,5.10204082 C5.71428571,5.88733739 6.35338346,6.53061224 7.14285714,6.53061224 Z M7.14285714,4.24573338 C7.61487051,4.24573338 7.99498747,4.62585034 7.99498747,5.09786371 C7.99498747,5.56987707 7.61487051,5.94999403 7.14285714,5.94999403 C6.67084378,5.94999403 6.29072682,5.56987707 6.29072682,5.09786371 C6.29072682,4.62585034 6.67502089,4.24573338 7.14285714,4.24573338 Z" id="Shape" fill-rule="nonzero"></path>
                <path d="M8.97959184,5.25510204 L8.97959184,5.35714286 C8.97959184,5.55555556 9.10074277,5.71428571 9.25218144,5.71428571 L9.93149203,5.71428571 C10.0829307,5.71428571 10.2040816,5.55555556 10.2040816,5.35714286 L10.2040816,5.25510204 C10.2040816,5.05668934 10.0829307,4.89795918 9.93149203,4.89795918 L9.25218144,4.89795918 C9.10074277,4.90362812 8.97959184,5.06235828 8.97959184,5.25510204 Z" id="Path"></path>
                <path d="M4.35422225,5.71428571 L5.03353285,5.71428571 C5.18497152,5.71428571 5.30612245,5.55555556 5.30612245,5.35714286 L5.30612245,5.25510204 C5.30612245,5.05668934 5.18497152,4.89795918 5.03353285,4.89795918 L4.35422225,4.89795918 C4.20278359,4.89795918 4.08163265,5.05668934 4.08163265,5.25510204 L4.08163265,5.35714286 C4.08163265,5.55555556 4.20278359,5.71428571 4.35422225,5.71428571 Z" id="Path"></path>
                <path d="M6.8877551,3.67346939 L6.98979592,3.67346939 C7.18820862,3.67346939 7.34693878,3.55231845 7.34693878,3.40087979 L7.34693878,2.72156919 C7.34693878,2.57013053 7.18820862,2.44897959 6.98979592,2.44897959 L6.8877551,2.44897959 C6.6893424,2.44897959 6.53061224,2.57013053 6.53061224,2.72156919 L6.53061224,3.40087979 C6.53628118,3.55231845 6.69501134,3.67346939 6.8877551,3.67346939 Z" id="Path"></path>
                <path d="M7.34693878,7.21136511 C7.34693878,7.05992644 7.18820862,6.93877551 6.98979592,6.93877551 L6.8877551,6.93877551 C6.6893424,6.93877551 6.53061224,7.05992644 6.53061224,7.21136511 L6.53061224,7.8906757 C6.53061224,8.04211437 6.6893424,8.16326531 6.8877551,8.16326531 L6.98979592,8.16326531 C7.18820862,8.16326531 7.34693878,8.04211437 7.34693878,7.8906757 L7.34693878,7.21136511 Z" id="Path"></path>
                <path d="M8.55867347,4.01973112 L8.97959184,3.66379727 L8.97959184,3.26530612 L8.55867347,3.26530612 L8.16326531,3.61350227 L8.16326531,4.01973112 C8.38860544,4.15900958 8.55867347,4.01973112 8.55867347,4.01973112 Z" id="Path"></path>
                <path d="M4.89795918,6.8788084 L4.89795918,7.28503724 C5.12755102,7.4243157 5.29336735,7.28503724 5.29336735,7.28503724 L5.71428571,6.92910339 L5.71428571,6.53061224 L5.29336735,6.53061224 L4.89795918,6.8788084 Z" id="Path"></path>
                <path d="M5.71428571,4.01973112 L5.71428571,3.61350227 L5.31887755,3.26530612 L4.89795918,3.26530612 L4.89795918,3.66379727 L5.31887755,4.01973112 C5.31462585,4.01973112 5.48469388,4.15900958 5.71428571,4.01973112 Z" id="Path"></path>
                <path d="M8.97959184,7.28503724 L8.97959184,6.8788084 L8.58418367,6.53061224 L8.16326531,6.53061224 L8.16326531,6.92910339 L8.58418367,7.28503724 C8.58418367,7.28503724 8.7542517,7.4243157 8.97959184,7.28503724 Z" id="Path"></path>
                <path d="M5.71428571,8.57142857 L3.67346939,8.57142857 L3.67346939,18.3673469 L5.71428571,18.3673469 L5.71428571,8.57142857 Z M5.27099364,17.8881988 L4.12094346,17.8881988 L4.12094346,10.6433008 L5.27099364,10.6433008 L5.27099364,17.8881988 Z" id="Shape" fill-rule="nonzero"></path>
                <path d="M8.75254944,14.1116391 C8.75254944,14.1116391 8.16723963,13.9908642 7.86808129,13.4861975 C7.86808129,13.4861975 7.69032053,13.1281861 7.36081279,13.4387502 C7.36081279,13.4387502 7.27410022,13.6673599 7.53423791,13.9347901 C7.53423791,13.9347901 8.40136356,15.1468529 10.2440055,14.5688586 L10.2440055,17.9591837 L10.8596647,17.9591837 L10.8596647,14.3143685 C10.8596647,14.3143685 11.7484685,13.8140152 12.069305,13.0030977 C12.069305,13.0030977 12.3814702,12.3733427 12.1733601,11.6357529 C12.1733601,11.6357529 12.0302844,11.2302941 11.661756,11.5537984 C11.661756,11.5537984 11.5923859,11.6228127 11.7137835,11.9937643 C11.7137835,11.9937643 11.9088868,12.8478157 10.9550486,13.5983457 C10.9550486,13.602659 10.0358954,14.4394568 8.75254944,14.1116391 Z" id="Path"></path>
                <path d="M12.4352034,13.9347901 C12.4352034,13.9347901 13.3017756,15.1468529 15.1432417,14.5688586 L15.1432417,17.9591837 L15.758508,17.9591837 L15.758508,14.3143685 C15.758508,14.3143685 16.6467445,13.8140152 16.9673763,13.0030977 C16.9673763,13.0030977 17.2793423,12.3733427 17.0713649,11.6357529 C17.0713649,11.6357529 16.9283805,11.2302941 16.5600873,11.5537984 C16.5600873,11.5537984 16.4907615,11.6228127 16.6120816,11.9937643 C16.6120816,11.9937643 16.8070604,12.8478157 15.8538309,13.5983457 C15.8538309,13.5983457 14.9352643,14.4351435 13.6527374,14.1073258 C13.6527374,14.1073258 13.0678011,13.9865508 12.7688337,13.4818841 C12.7688337,13.4818841 12.5911864,13.1238727 12.2618889,13.4344368 C12.2575561,13.4387502 12.1708988,13.6673599 12.4352034,13.9347901 Z" id="Path"></path>
            </g>
        </g>
    </g>
</svg>