<svg xmlns="http://www.w3.org/2000/svg" viewBox="0 0 20 20">
<path d="M20,10c0,3.2,0,6.5,0,9.7c0,0.2,0,0.3-0.3,0.3c-6.5,0-12.9,0-19.4,0C0.1,20,0,20,0,19.7C0,13.3,0,6.8,0,0.3C0,0.1,0,0,0.3,0
	c6.5,0,13,0,19.4,0C19.9,0,20,0,20,0.3C20,3.6,20,6.8,20,10z M10.6,19.4c1.6,0,3.2,0,4.8,0c0.1,0,0.2-0.1,0.2-0.2c0-1.4,0-2.8,0-4.2
	c0,0,0-0.1-0.1-0.1c-0.9,0.9-1.7,1.7-2.6,2.6c0,0-0.1,0.1-0.2,0.1c-0.2,0.1-0.4,0.1-0.6-0.1c-0.1-0.2-0.1-0.4,0-0.6
	c0-0.1,0.1-0.1,0.2-0.2c1.7-1.7,3.4-3.4,5.1-5.1c0.3-0.3,0.5-0.3,0.7-0.1s0.2,0.5-0.1,0.8c-0.4,0.4-0.8,0.8-1.2,1.2
	c-0.2,0.2-0.3,0.4-0.3,0.8c0,1.6,0,3.2,0,4.8c0,0.2,0.1,0.3,0.3,0.3c0.7,0,1.5,0,2.2,0c0.2,0,0.3,0,0.3-0.3c0-6,0-12.1,0-18.1
	c0-0.2-0.1-0.3-0.3-0.3c-3.2,0-6.3,0-9.5,0c-2.9,0-5.7,0-8.6,0C0.7,0.7,0.6,0.8,0.6,1c0,6,0,12.1,0,18.1c0,0.2,0,0.3,0.2,0.3
	c2.8,0,5.7,0,8.5,0c0.2,0,0.2-0.1,0.2-0.2c0-1.2,0-2.4,0-3.6c0-0.1,0-0.2,0-0.3c-0.1,0.1-0.2,0.2-0.2,0.2c-0.7,0.7-1.3,1.3-2,2
	c-0.2,0.2-0.5,0.3-0.7,0.1c-0.2-0.2-0.2-0.5,0.1-0.7c1.7-1.7,3.4-3.4,5.1-5.1c0.3-0.3,0.6-0.3,0.7-0.1c0.2,0.2,0.2,0.5-0.1,0.7
	c-0.6,0.6-1.2,1.2-1.8,1.8c-0.1,0.1-0.2,0.3-0.2,0.5C10.6,16.1,10.6,17.8,10.6,19.4L10.6,19.4z"/>
<path d="M10.6,19.4c0.1,0,0.2,0,0.3,0c1.5,0,3,0,4.5,0c0.2,0,0.3,0,0.3-0.3c0-1.3,0-2.7,0-4c0-0.1,0.1-0.2-0.1-0.2
	c0.1-0.3,0-0.6,0.1-0.8c0,0.3,0,0.6,0,0.9c0,1.4,0,2.8,0,4.2c0,0.2-0.1,0.3-0.3,0.3c-1.5,0-3,0-4.5,0C10.8,19.4,10.6,19.5,10.6,19.4
	z"/>
<path d="M10,3.8C10,4,9.9,4.1,9.8,4.2C9.6,4.4,9.4,4.6,9.2,4.8C9,5,8.7,5,8.5,4.9c-0.2-0.2-0.2-0.5,0-0.7C8.7,3.9,9,3.7,9.2,3.5
	c0.1-0.1,0.3-0.1,0.5,0C9.9,3.5,10,3.7,10,3.8z"/>
<path d="M3.7,10.2c-0.4,0-0.7-0.4-0.5-0.7S3.7,8.9,4,8.7c0.2-0.1,0.4-0.1,0.6,0.1C4.8,9,4.8,9.2,4.7,9.4C4.5,9.7,4.2,10,3.7,10.2
	C3.8,10.2,3.7,10.2,3.7,10.2z"/>
<path d="M3.6,3.4c0.1,0,0.2,0,0.3,0.1C4.1,3.7,4.4,4,4.7,4.3c0.1,0.2,0.1,0.4-0.1,0.6C4.4,5,4.1,5,4,4.9C3.7,4.6,3.5,4.4,3.2,4.1
	C3.1,4,3.1,3.8,3.2,3.6C3.3,3.5,3.4,3.4,3.6,3.4z"/>
<path d="M2.9,6.3c0.2,0,0.3,0,0.5,0c0.3,0,0.5,0.2,0.5,0.5c0,0.2-0.2,0.4-0.5,0.5c-0.3,0-0.6,0-1,0c-0.3,0-0.5-0.2-0.5-0.5
	s0.2-0.5,0.5-0.5C2.5,6.3,2.7,6.3,2.9,6.3z"/>
<path d="M8.9,8.6c0.3,0,1.1,0.8,1.1,1.1c0,0.4-0.4,0.6-0.7,0.4S8.7,9.6,8.5,9.4C8.3,9.2,8.4,9,8.5,8.9C8.5,8.7,8.7,8.6,8.9,8.6z"/>
<path d="M6.1,3.1c0-0.2,0-0.3,0-0.5c0-0.3,0.2-0.5,0.5-0.5C6.8,2.1,7,2.3,7,2.6s0,0.7,0,1C7,3.8,6.8,4,6.6,4C6.3,4,6.1,3.8,6.1,3.6
	C6.1,3.4,6.1,3.2,6.1,3.1z"/>
<path d="M10.3,7.3c-0.2,0-0.3,0-0.5,0c-0.3,0-0.4-0.2-0.4-0.4c0-0.3,0.2-0.5,0.4-0.5c0.3,0,0.7,0,1,0c0.2,0,0.4,0.2,0.4,0.5
	c0,0.2-0.2,0.4-0.4,0.5C10.6,7.3,10.4,7.3,10.3,7.3L10.3,7.3z"/>
<path d="M6.1,10.5c0-0.2,0-0.3,0-0.5c0-0.3,0.2-0.5,0.4-0.5C6.8,9.6,7,9.8,7,10c0,0.3,0,0.7,0,1s-0.2,0.4-0.5,0.4S6.1,11.2,6,10.9
	C6.1,10.8,6.1,10.7,6.1,10.5z"/>
<path d="M4.2,6.8c0-1.3,1.1-2.3,2.3-2.3c1.3,0,2.3,1,2.3,2.3S7.7,9.1,6.4,9.1C5.3,9.1,4.2,8.1,4.2,6.8z M7.9,6.8
	c0-0.8-0.6-1.4-1.4-1.4S5.1,6,5.1,6.8c0,0.7,0.6,1.4,1.4,1.4S8,7.5,7.9,6.8z"/>
</svg>
