
<!-- Generator: Adobe Illustrator 22.1.0, SVG Export Plug-In . SVG Version: 6.00 Build 0)  -->
<svg version="1.1" id="Layer_1" xmlns="http://www.w3.org/2000/svg" xmlns:xlink="http://www.w3.org/1999/xlink" x="0px" y="0px"
	 viewBox="0 0 20 20" style="enable-background:new 0 0 20 20;" xml:space="preserve">
<style type="text/css">
	.st0{display:none;opacity:0.6;}
	.st1{fill:#044C7E;}
	.st2{fill:#FFFFFF;}
	.st3{fill:#054C7E;}
</style>
<g id="PPMdyu.tif" class="st0">
	
		<image style="display:inline;overflow:visible;" width="571" height="570" id="Layer_0" xlink:href="AAE601DC1794EE46.png"  transform="matrix(0.8056 0 0 0.8056 162.875 -131.5298)">
	</image>
</g>
<g id="eiti53.tif">
	
		<image style="overflow:visible;" width="571" height="570" id="Layer_0_4_" xlink:href="AAE601DC1794EE4A.png"  transform="matrix(0.24 0 0 0.24 302.875 420.4702)">
	</image>
</g>
<rect x="263.4" y="65.5" class="st1" width="41.5" height="187"/>
<rect x="272.4" y="105" class="st2" width="23" height="138"/>
<path class="st3" d="M371.9-33.9c0.1,1.9-0.7,3.3-2,4.7c-2.7,2.6-5.2,5.3-7.9,7.9c-2.6,2.4-6,2.6-8.4,0.3c-2.4-2.2-2.7-5.9-0.3-8.4
	c2.9-3.2,6-6.1,9.1-9c1.9-1.7,4.3-1.7,6.6-0.5C370.9-38,371.9-36.2,371.9-33.9z"/>
<path class="st3" d="M291.6,47.1c-5.2,0.1-8.3-5-5.8-8.9c2.8-4.1,6.5-7.6,10.5-10.5c2.4-1.7,5.2-1.2,7.3,0.9c2,2,2.6,4.7,0.9,7
	c-3,4.1-6.8,7.6-10.8,10.7C293,46.8,292,46.9,291.6,47.1z"/>
<path class="st1" d="M290.9-39.8c1.1,0.1,2.4,0.1,3.2,0.9c3.5,3.4,7,6.7,10.2,10.4c1.9,2.2,1,5.6-1.1,7.5c-2.1,1.8-5.6,2-7.7,0.1
	c-3.2-3-6.3-6.1-9.3-9.3c-1.6-1.7-1.7-4-0.7-6.2C286.7-38.6,288.5-39.7,290.9-39.8z"/>
<path class="st3" d="M281.5-2.3c2,0,4-0.1,5.9,0c3.5,0.1,5.9,2.8,5.9,6.1c-0.1,3.1-2.6,5.6-5.9,5.7c-4,0.1-8.2,0.1-12.2,0
	c-3.3-0.1-5.7-2.5-5.9-5.7c-0.1-3.3,2.2-5.9,5.8-6.1C277.3-2.5,279.4-2.3,281.5-2.3z"/>
<path class="st1" d="M357.7,26.8c3.9,0,14.3,10.5,14.2,14.3c-0.1,4.6-5.1,7.7-8.9,5c-4-2.8-7.3-6.5-10.4-10.2
	c-1.5-1.8-1.3-4.2-0.1-6.2C353.6,27.7,355.4,26.8,357.7,26.8z"/>
<path class="st3" d="M322.6-43.6c0-2-0.1-4,0-5.9c0.1-3.3,2.4-5.7,5.7-5.8c3.1-0.1,5.9,2.2,6.1,5.4c0.2,4.3,0.2,8.6,0,12.8
	c-0.1,3.3-2.9,5.4-6.1,5.4c-3.3-0.1-5.6-2.3-5.7-5.7C322.5-39.5,322.6-41.5,322.6-43.6z"/>
<path class="st3" d="M375.7,9.5c-2.1,0-4.2,0.1-6.3,0c-3.2-0.2-5.4-2.4-5.6-5.6c-0.1-3.3,2-6.1,5.2-6.2c4.4-0.2,8.8-0.2,13.3,0
	c3,0.1,5.3,2.9,5.3,5.9c0,3.1-2.4,5.6-5.6,5.9C379.8,9.6,377.7,9.5,375.7,9.5C375.7,9.5,375.7,9.5,375.7,9.5z"/>
<path class="st3" d="M322.6,50.5c0-2-0.1-4,0-5.9c0.1-3.3,2.4-5.7,5.6-5.9c3.1-0.1,6,2.2,6.1,5.4c0.2,4.3,0.2,8.6,0,12.8
	c-0.1,3.3-2.9,5.5-6.1,5.4c-3.3-0.1-5.6-2.3-5.7-5.7C322.5,54.7,322.6,52.6,322.6,50.5z"/>
<path class="st1" d="M299,3.4c0.1-16.3,13.3-29.3,29.6-29.3c16.3,0.1,29.6,13.3,29.6,29.4c0.1,16.4-13.5,29.7-30.1,29.6
	C311.9,33,298.9,19.7,299,3.4z M346,3.5c-0.1-9.6-8-17.4-17.5-17.5c-9.7,0-17.8,8.1-17.6,17.8c0.1,9.5,8.2,17.4,17.7,17.3
	C338.2,21,346.1,13.1,346,3.5z"/>
<path class="st1" d="M429.4,130c-2-7-5-8.3-7.5-7.1c-2.8,1.3-4,4.6-3.1,7.5c2.4,7.5,4.8,25.9-22.4,40.6c-35,19-54-8-54-8
	c-7-6-9.3,3.9-8,6c13.6,21.9,42.6,18.7,56,15.8V252h13v-72C422,169,433.8,145.4,429.4,130z"/>
<path class="st1" d="M520.4,130c-2-7-5-8.3-7.5-7.1c-2.8,1.3-4,4.6-3.1,7.5c2.4,7.5,4.8,25.9-22.4,40.6c-35,19-54-8-54-8
	c-7-6-9.3,3.9-8,6c13.6,21.9,42.6,18.7,56,15.8V252h13v-72C513,169,524.8,145.4,520.4,130z"/>
<g>
	<rect x="1.7" y="8" class="st1" width="2.6" height="11.7"/>
	<rect x="2.3" y="10.5" class="st2" width="1.4" height="8.7"/>
	<g>
		<path class="st3" d="M8.5,1.8c0,0.1,0,0.2-0.1,0.3C8.2,2.3,8,2.4,7.9,2.6c-0.2,0.2-0.4,0.2-0.5,0c-0.1-0.1-0.2-0.4,0-0.5
			c0.2-0.2,0.4-0.4,0.6-0.6c0.1-0.1,0.3-0.1,0.4,0C8.4,1.6,8.5,1.7,8.5,1.8z"/>
		<path class="st3" d="M3.5,6.9c-0.3,0-0.5-0.3-0.4-0.6c0.2-0.3,0.4-0.5,0.7-0.7c0.1-0.1,0.3-0.1,0.5,0.1C4.3,5.9,4.4,6,4.3,6.2
			C4.1,6.4,3.8,6.6,3.6,6.8C3.6,6.9,3.5,6.9,3.5,6.9z"/>
		<path class="st1" d="M3.4,1.4c0.1,0,0.1,0,0.2,0.1c0.2,0.2,0.4,0.4,0.6,0.7c0.1,0.1,0.1,0.4-0.1,0.5c-0.1,0.1-0.4,0.1-0.5,0
			C3.5,2.4,3.3,2.2,3.1,2C3,1.9,3,1.8,3.1,1.7C3.2,1.5,3.3,1.5,3.4,1.4z"/>
		<path class="st3" d="M2.8,3.8c0.1,0,0.2,0,0.4,0c0.2,0,0.4,0.2,0.4,0.4c0,0.2-0.2,0.4-0.4,0.4c-0.3,0-0.5,0-0.8,0
			c-0.2,0-0.4-0.2-0.4-0.4c0-0.2,0.1-0.4,0.4-0.4C2.6,3.8,2.7,3.8,2.8,3.8z"/>
		<path class="st1" d="M7.6,5.6c0.2,0,0.9,0.7,0.9,0.9c0,0.3-0.3,0.5-0.6,0.3C7.7,6.7,7.5,6.4,7.3,6.2c-0.1-0.1-0.1-0.3,0-0.4
			C7.4,5.7,7.5,5.6,7.6,5.6z"/>
		<path class="st3" d="M5.4,1.2c0-0.1,0-0.2,0-0.4c0-0.2,0.2-0.4,0.4-0.4c0.2,0,0.4,0.1,0.4,0.3c0,0.3,0,0.5,0,0.8
			C6.1,1.8,6,2,5.8,2c-0.2,0-0.4-0.1-0.4-0.4C5.4,1.5,5.4,1.3,5.4,1.2z"/>
		<path class="st3" d="M8.7,4.5c-0.1,0-0.3,0-0.4,0C8.1,4.5,8,4.4,8,4.2C8,4,8.1,3.8,8.3,3.8c0.3,0,0.6,0,0.8,0
			c0.2,0,0.3,0.2,0.3,0.4c0,0.2-0.2,0.4-0.4,0.4C9,4.5,8.9,4.5,8.7,4.5C8.7,4.5,8.7,4.5,8.7,4.5z"/>
		<path class="st3" d="M5.4,7.1c0-0.1,0-0.2,0-0.4c0-0.2,0.2-0.4,0.4-0.4c0.2,0,0.4,0.1,0.4,0.3c0,0.3,0,0.5,0,0.8
			c0,0.2-0.2,0.3-0.4,0.3c-0.2,0-0.4-0.1-0.4-0.4C5.4,7.4,5.4,7.2,5.4,7.1z"/>
		<path class="st1" d="M3.9,4.2c0-1,0.8-1.8,1.9-1.8c1,0,1.9,0.8,1.9,1.8c0,1-0.8,1.9-1.9,1.9C4.7,6,3.9,5.2,3.9,4.2z M6.9,4.2
			c0-0.6-0.5-1.1-1.1-1.1c-0.6,0-1.1,0.5-1.1,1.1c0,0.6,0.5,1.1,1.1,1.1C6.4,5.3,6.9,4.8,6.9,4.2z"/>
	</g>
	<path class="st1" d="M12.1,12.1c-0.1-0.4-0.3-0.5-0.5-0.4c-0.2,0.1-0.3,0.3-0.2,0.5c0.2,0.5,0.3,1.6-1.4,2.5
		c-2.2,1.2-3.4-0.5-3.4-0.5c-0.4-0.4-0.6,0.2-0.5,0.4c0.9,1.4,2.7,1.2,3.5,1v4.2h0.8v-4.5C11.6,14.5,12.4,13.1,12.1,12.1z"/>
	<path class="st1" d="M17.8,12.1c-0.1-0.4-0.3-0.5-0.5-0.4c-0.2,0.1-0.3,0.3-0.2,0.5c0.2,0.5,0.3,1.6-1.4,2.5
		c-2.2,1.2-3.4-0.5-3.4-0.5c-0.4-0.4-0.6,0.2-0.5,0.4c0.9,1.4,2.7,1.2,3.5,1v4.2h0.8v-4.5C17.4,14.5,18.1,13.1,17.8,12.1z"/>
</g>
</svg>
