<svg width="20px" height="20px" viewBox="0 0 20 20" version="1.1" xmlns="http://www.w3.org/2000/svg" xmlns:xlink="http://www.w3.org/1999/xlink">
    <g id="Page-1" stroke="none" stroke-width="1" fill="none" fill-rule="evenodd">
        <g id="ap_sun_solar2" fill="#C3C2C2">
            <path d="M0,0 L0,20 L20,20 L20,0 L0,0 Z M19.3311331,19.3267327 L0.673267327,19.3267327 L0.673267327,0.668866887 L19.3311331,0.668866887 L19.3311331,19.3267327 Z" id="Shape" fill-rule="nonzero"></path>
            <path d="M6,8 C7.10288066,8 8,7.10699588 8,6 C8,4.89711934 7.10699588,4 6,4 C4.89300412,4 4,4.89300412 4,6 C4.00411523,7.10699588 4.89711934,8 6,8 Z M6,4.81069959 C6.65843621,4.81069959 7.18930041,5.34156379 7.18930041,6 C7.18930041,6.65843621 6.65843621,7.19341564 6,7.19341564 C5.34156379,7.19341564 4.81069959,6.66255144 4.81069959,6.00411523 C4.81069959,5.34567901 5.34567901,4.81069959 6,4.81069959 Z" id="Shape" fill-rule="nonzero"></path>
            <path d="M10.1614722,9.17274763 C10.1614722,9.17274763 10.0643557,9.26597833 10.2321024,9.78298495 C10.2321024,9.78298495 10.5146232,10.961082 9.15057756,11.9950952 C9.15057756,11.9950952 7.83509019,13.1477657 6.00753392,12.6943255 C6.00753392,12.6943255 5.16880036,12.5290529 4.7450192,11.8298226 C4.7450192,11.8298226 4.48898474,11.3382426 4.02105971,11.7662562 C4.02105971,11.7662562 3.89304248,12.0840882 4.26826539,12.4485355 C4.26826539,12.4485355 5.50870817,14.1182126 8.14409729,13.3215139 L8.14409729,18 L9.02256033,18 L9.02256033,12.9740176 C9.02256033,12.9740176 10.2939038,12.2875006 10.7485857,11.1687322 C10.7485857,11.1687322 11.1944388,10.2999916 10.8986749,9.28292936 C10.8942605,9.28292936 10.6911987,8.72778291 10.1614722,9.17274763 Z" id="Path"></path>
            <path d="M11.267387,12.4485355 C11.267387,12.4485355 12.5079917,14.1182126 15.1437247,13.3215139 L15.1437247,18 L16.0223023,18 L16.0223023,12.9740176 C16.0223023,12.9740176 17.2938117,12.2875006 17.7485529,11.1687322 C17.7485529,11.1687322 18.1944642,10.2999916 17.8986616,9.28292936 C17.8986616,9.28292936 17.6955733,8.72778291 17.1657778,9.17274763 C17.1657778,9.17274763 17.0686486,9.26597833 17.2364172,9.78298495 C17.2364172,9.78298495 17.5189748,10.961082 16.1547512,11.9950952 C16.1547512,11.9950952 14.8390922,13.1477657 13.0112975,12.6943255 C13.0112975,12.6943255 12.1724545,12.5290529 11.748618,11.8298226 C11.748618,11.8298226 11.4925501,11.3382426 11.024564,11.7662562 C11.0201491,11.7662562 10.8921152,12.0840882 11.267387,12.4485355 Z" id="Path"></path>
            <path d="M9,6.5 C9,6.7745098 9.22942643,7 9.50872818,7 L10.4912718,7 C10.7705736,7 11,6.7745098 11,6.5 C11,6.2254902 10.7705736,6 10.4912718,6 L9.50872818,6 C9.22942643,6.00490196 9,6.2254902 9,6.5 Z" id="Path"></path>
            <path d="M2.50872818,7 L3.49127182,7 C3.77057357,7 4,6.7745098 4,6.5 C4,6.2254902 3.77057357,6 3.49127182,6 L2.50872818,6 C2.22942643,6 2,6.2254902 2,6.5 C2,6.77941176 2.22942643,7 2.50872818,7 Z" id="Path"></path>
            <path d="M6.5,4 C6.7745098,4 7,3.77057357 7,3.49127182 L7,2.50872818 C7,2.22942643 6.7745098,2 6.5,2 C6.2254902,2 6,2.22942643 6,2.50872818 L6,3.49127182 C6.00490196,3.7755611 6.2254902,4 6.5,4 Z" id="Path"></path>
            <path d="M6.5,11 C6.7745098,11 7,10.7705736 7,10.4912718 L7,9.50872818 C7,9.22942643 6.7745098,9 6.5,9 C6.2254902,9 6,9.22942643 6,9.50872818 L6,10.4912718 C6.00490196,10.7755611 6.2254902,11 6.5,11 Z" id="Path"></path>
            <path d="M8.48529412,3.92318223 L9,3.48835002 L9,3 L8.48529412,3 L8,3.42814248 L8,3.92652709 C8.27941176,4.09377025 8.48529412,3.92318223 8.48529412,3.92318223 Z" id="Path"></path>
            <path d="M4,8 L3.48529412,8 L3,8.42522321 L3,8.92410714 C3.27941176,9.09486607 3.48529412,8.92410714 3.48529412,8.92410714 L4,8.48883929 L4,8 Z" id="Path"></path>
            <path d="M4,3.9244741 L4,3.42719381 L3.51470588,3 L3,3 L3,3.48726794 L3.51470588,3.92113665 C3.51470588,3.9244741 3.72058824,4.09468414 4,3.9244741 Z" id="Path"></path>
            <path d="M9,8.9244741 L9,8.42719381 L8.51470588,8 L8,8 L8,8.48726794 L8.51470588,8.92113665 C8.51102941,8.9244741 8.71691176,9.09468414 9,8.9244741 Z" id="Path"></path>
        </g>
    </g>
</svg>