<svg xmlns="http://www.w3.org/2000/svg" viewBox="0 0 20 20"><title>ap</title><path d="M18.19,20H1.81a.3.3,0,0,1-.3-.3V.3a.3.3,0,0,1,.3-.3H18.19a.3.3,0,0,1,.3.3V19.7A.3.3,0,0,1,18.19,20ZM2.11,19.4H17.89V.6H2.11Z"/><path d="M15.48,3h-11a.3.3,0,0,1,0-.6h11a.3.3,0,1,1,0,.6Z"/><path d="M15.48,5.33h-11a.3.3,0,0,1,0-.6h11a.3.3,0,1,1,0,.6Z"/><path d="M15.48,7.64h-11a.3.3,0,0,1,0-.6h11a.3.3,0,1,1,0,.6Z"/><path d="M15.28,10.05H4.52a.3.3,0,0,1,0-.6H15.28a.3.3,0,1,1,0,.6Z"/><path d="M15.28,12.06H4.52a.3.3,0,0,1,0-.6H15.28a.3.3,0,0,1,0,.6Z"/><path d="M15,17s-.42-.47-2.26-.38l-1.19,0c-.29,0-.56,0-.59-.29v0l-.74-.59,0,0-.81-.81a11,11,0,0,1-2.71,1.69,1,1,0,0,1-.89-.11,1.43,1.43,0,0,1-.51-.77l-.63.44a.3.3,0,0,1-.35-.49l1-.7a.3.3,0,0,1,.47.23,1.27,1.27,0,0,0,.34.81.4.4,0,0,0,.38,0,12.1,12.1,0,0,0,2.71-1.75.3.3,0,0,1,.41,0l1,1,1,.77,1.13,0c2.17-.1,2.69.51,2.78.64L15,17Z"/></svg>