<svg xmlns="http://www.w3.org/2000/svg" viewBox="0 0 20 20">
  <title>ap</title>
  <path d="M10,20A10,10,0,1,1,20,10,10,10,0,0,1,10,20ZM10,.61A9.39,9.39,0,1,0,19.39,10,9.4,9.4,0,0,0,10,.61Z"/>
  <path d="M10,18.38a.3.3,0,0,1-.3-.3v-.91a.3.3,0,0,1,.61,0v.91A.3.3,0,0,1,10,18.38Z"/>
  <path d="M10,3.23a.3.3,0,0,1-.3-.3V2a.3.3,0,1,1,.61,0v.91A.3.3,0,0,1,10,3.23Z"/>
  <path d="M2.88,10.35H2a.3.3,0,1,1,0-.61h.91a.3.3,0,1,1,0,.61Z"/>
  <path d="M18,10.35h-.91a.3.3,0,0,1,0-.61H18a.3.3,0,0,1,0,.61Z"/>
  <path d="M5,5.32a.3.3,0,0,1-.21-.09l-.64-.64a.3.3,0,0,1,.43-.43l.64.64A.3.3,0,0,1,5,5.32Z"/>
  <path d="M15.68,16a.3.3,0,0,1-.21-.09l-.64-.64a.3.3,0,0,1,.43-.43l.64.64a.3.3,0,0,1-.21.52Z"/>
  <path d="M4.32,16a.3.3,0,0,1-.21-.52l.64-.64a.3.3,0,1,1,.43.43l-.64.64A.3.3,0,0,1,4.32,16Z"/>
  <path d="M15,5.32a.3.3,0,0,1-.21-.52l.64-.64a.3.3,0,0,1,.43.43l-.64.64A.3.3,0,0,1,15,5.32Z"/>
  <path d="M10,12.22h0a.3.3,0,0,1-.22-.1L6.44,8.28a.3.3,0,1,1,.46-.4L10,11.48l4.82-4.82a.3.3,0,1,1,.43.43l-5.05,5.05A.3.3,0,0,1,10,12.22Z"/>
</svg>
