<svg xmlns="http://www.w3.org/2000/svg" viewBox="0 0 20 20">
<g>
	<path d="M20,10c0-3.2,0-6.5,0-9.7C20,0.1,19.9,0,19.7,0C13.2,0,6.8,0,0.3,0C0,0,0,0.1,0,0.3c0,6.5,0,12.9,0,19.4
		C0,19.9,0.1,20,0.3,20c6.5,0,12.9,0,19.4,0c0.2,0,0.3-0.1,0.3-0.3C20,16.5,20,13.2,20,10z M19,19.4c-3,0-6,0-9,0c-3,0-6,0-9.1,0
		c-0.2,0-0.3-0.1-0.3-0.3c0-6,0-12.1,0-18.1c0-0.3,0.1-0.3,0.3-0.3c6,0,12.1,0,18.1,0c0.2,0,0.3,0,0.3,0.3c0,6,0,12.1,0,18.1
		C19.3,19.3,19.3,19.4,19,19.4z"/>
	<path d="M14.1,4.2c-0.6-0.6-1-0.6-1.5,0C11.7,5,10.8,5.8,10,6.6c0,0-0.1,0.2-0.2,0C9.1,5.9,8.3,5.1,7.5,4.3c-0.6-0.6-1-0.6-1.6,0
		C5.3,4.9,4.7,5.5,4.2,6.1C3.7,6.6,3.2,7,2.8,7.5c-0.4,0.4-0.4,0.8,0,1.2c1,1,2,2,3,3C6,11.9,6,11.9,5.9,12
		c-0.4,0.5-0.4,0.8,0.1,1.3c0.8,0.8,1.6,1.6,2.4,2.4c0.5,0.5,0.8,0.5,1.3,0.1c0.1-0.1,0.2-0.1,0.3,0c0.2,0.2,0.4,0.3,0.6,0.3
		c0.3,0,0.4-0.1,0.6-0.3c0.8-0.8,1.6-1.6,2.4-2.4c0.7-0.7,0.7-0.7,0.3-1.6c0-0.1-0.1-0.2,0-0.3c1-1,2.1-2,3.1-3.1
		c0.6-0.6,0.6-1,0-1.5C16,6.1,15,5.2,14.1,4.2z M4.6,9.5C4.2,9.1,3.8,8.7,3.4,8.3C3.2,8.2,3.2,8,3.4,7.9c1.1-1.1,2.1-2.1,3.2-3.2
		c0.1-0.1,0.2-0.1,0.3,0c0.4,0.4,0.8,0.8,1.2,1.2c0,0,0,0,0.1,0.1C8.1,6.1,8.1,6.1,8,6.2C7,7.3,5.9,8.4,4.8,9.5
		C4.7,9.6,4.7,9.6,4.6,9.5z M9.8,14.9c-0.2,0.2-0.3,0.3-0.5,0.5c-0.1,0.1-0.2,0.1-0.3,0c-0.8-0.9-1.7-1.7-2.6-2.6
		c-0.1-0.1-0.1-0.2,0-0.3c0.2-0.2,0.4-0.4,0.6-0.6c0,0,0.1,0,0.1-0.1c0.1,0,0.1,0.1,0.2,0.1c0.8,0.8,1.6,1.7,2.5,2.5
		C10,14.6,10,14.7,9.8,14.9z M13.3,13c-0.8,0.8-1.6,1.6-2.4,2.4c-0.1,0.1-0.2,0.2-0.3,0.1c-0.1-0.1-0.1-0.1,0-0.3
		c0.3-0.5,0.3-0.8-0.1-1.2c-0.8-0.9-1.7-1.7-2.5-2.6c-0.2-0.2-0.4-0.3-0.7-0.3c-0.1,0-0.3,0-0.4,0.1c-0.2,0.1-0.3,0.1-0.4-0.1
		c-0.3-0.3-0.6-0.7-1-1c-0.1-0.1-0.1-0.1,0-0.2c1.1-1.1,2.1-2.1,3.2-3.2c0.1-0.1,0.1-0.1,0.2,0c0.6,0.5,0.6,0.5,0.1,1.1
		C8.4,8.2,8,8.7,7.6,9.1c-0.4,0.4-0.4,0.8,0,1.2c0.2,0.2,0.4,0.4,0.6,0.6c0.4,0.3,0.7,0.3,1.1,0c0.4-0.4,0.7-0.7,1.1-1.1
		c0.1-0.1,0.1-0.1,0.2,0c0.9,0.9,1.8,1.8,2.6,2.7C13.5,12.7,13.5,12.7,13.3,13z M14.6,10c-0.4,0.4-0.8,0.8-1.2,1.2
		c-0.1,0.1-0.2,0.1-0.3,0c-0.6-0.6-1.3-1.3-1.9-1.9c-0.1-0.1-0.2-0.2,0-0.3c0.3-0.2,0.3-0.6,0-0.7c0,0-0.1,0-0.1,0
		c-0.1,0-0.2,0.1-0.3,0.2C10.2,9,9.5,9.7,8.9,10.3c-0.1,0.1-0.1,0.1-0.2,0c-0.2-0.2-0.3-0.4-0.5-0.5c-0.1-0.1-0.1-0.2,0-0.3
		c1-1,2-2,3-3c0.1-0.1,0.1-0.1,0.2,0c1.1,1.1,2.1,2.1,3.2,3.2C14.7,9.8,14.7,9.9,14.6,10z M16.6,8.1c-0.4,0.4-0.8,0.8-1.2,1.2
		c-0.1,0.1-0.1,0.1-0.2,0C14.1,8.1,13,7,12,6c-0.1-0.1-0.1-0.1,0-0.2c0.4-0.4,0.8-0.8,1.2-1.2c0,0,0.1-0.1,0.1-0.1
		c0.1,0,0.1,0.1,0.2,0.1c1.1,1.1,2.1,2.1,3.2,3.1C16.7,7.8,16.8,7.9,16.6,8.1z"/>
</g>
</svg>
