<svg id="Layer_1" data-name="Layer 1" xmlns="http://www.w3.org/2000/svg" viewBox="0 0 20 20"><defs><style>.cls-1{fill:#044c7e;}</style></defs><title>Under-Development</title><path class="cls-1" d="M15.45,2.16a1.22,1.22,0,0,0-2.07,0L10,5.49c-.07.06-.11.25-.28.07-1-1.1-2.08-2.11-3.11-3.17a1.28,1.28,0,0,0-2.14,0L2.17,4.76C1.56,5.38.94,6,.36,6.63a1.12,1.12,0,0,0,0,1.65q2,2.07,4.09,4.07c.17.17.15.23,0,.4a1.12,1.12,0,0,0,.13,1.77q1.63,1.65,3.28,3.28c.66.66,1.05.69,1.78.13.19-.14.26-.1.38.06a1,1,0,0,0,.81.42,1.06,1.06,0,0,0,.81-.37l3.21-3.19c1-.95,1-1,.36-2.19-.07-.14-.08-.22,0-.34q2.09-2.06,4.14-4.13a1.21,1.21,0,0,0,0-2C18.12,4.82,16.78,3.49,15.45,2.16ZM2.71,9.3,1.13,7.71a.32.32,0,0,1,0-.53L5.39,2.93c.16-.15.28-.16.44,0L7.44,4.53l.1.11a2.36,2.36,0,0,1-.2.23L3.05,9.3C2.91,9.46,2.83,9.43,2.71,9.3Zm7,7.23a8.61,8.61,0,0,0-.67.68c-.15.14-.28.18-.44,0L5.22,13.8c-.13-.12-.17-.24,0-.38L6,12.57a1.28,1.28,0,0,1,.17-.1l.24.19C7.55,13.77,8.65,14.88,9.77,16,10,16.18,10,16.33,9.75,16.53ZM14.38,14l-3.21,3.23c-.12.13-.24.31-.45.11s-.17-.19-.06-.36a1.12,1.12,0,0,0-.17-1.61C9.36,14.18,8.22,13,7.08,11.9a1.35,1.35,0,0,0-1-.41.83.83,0,0,0-.49.12c-.22.16-.35.1-.51-.08-.42-.45-.86-.88-1.3-1.31-.12-.12-.14-.18,0-.31L8.09,5.65c.12-.12.2-.13.33,0,.79.69.8.69.08,1.41L6.78,8.77a1,1,0,0,0,0,1.54c.27.29.56.58.86.85a1,1,0,0,0,1.47,0c.5-.47,1-1,1.47-1.44.09-.1.15-.19.31,0,1.16,1.2,2.36,2.39,3.54,3.58C14.74,13.6,14.74,13.62,14.38,14Zm1.84-4c-.56.54-1.13,1.09-1.67,1.65-.17.16-.25.12-.38,0-.84-.87-1.7-1.73-2.56-2.58-.19-.19-.23-.27,0-.46.42-.29.4-.76,0-.9l-.15,0a.64.64,0,0,0-.44.21c-.84.85-1.68,1.69-2.51,2.54-.1.1-.15.17-.27,0a7.71,7.71,0,0,0-.69-.71c-.13-.13-.15-.21,0-.35,1.34-1.33,2.69-2.67,4-4,.12-.12.19-.11.3,0,1.44,1.44,2.87,2.88,4.32,4.32C16.38,9.79,16.35,9.86,16.22,10Zm2.67-2.6L17.33,9c-.11.12-.19.14-.31,0q-2.19-2.21-4.39-4.39c-.09-.1-.16-.16,0-.3l1.61-1.6a.76.76,0,0,1,.16-.11.37.37,0,0,1,.27.15l4.23,4.22C19,7.09,19.07,7.22,18.89,7.39Z"/></svg>