<svg id="Layer_1" data-name="Layer 1" xmlns="http://www.w3.org/2000/svg" viewBox="0 0 20 20"><defs><style>.cls-1{fill:#014a87;}</style></defs><title>Waste</title><path class="cls-1" d="M16.45,1.18c-.93,0-1.86,0-2.79,0-.25,0-.37,0-.36-.33C13.32.25,13,0,12.41,0H7.58c-.64,0-.92.26-.92.89,0,.25-.08.31-.31.31-1,0-1.93,0-2.9,0a1,1,0,0,0-1.1,1.08c0,1,0,1.91,0,2.86a1,1,0,0,0,.72,1c.29.06.31.2.31.43,0,2.06,0,4.11,0,6.17V18.8A1,1,0,0,0,4.58,20h10.7c1,0,1.34-.36,1.34-1.34v-12a1.62,1.62,0,0,0,0-.22.19.19,0,0,1,.17-.23,1,1,0,0,0,.85-1.07c0-.94,0-1.88,0-2.82A1.07,1.07,0,0,0,16.45,1.18ZM7.82.87c1.45,0,2.89,0,4.34,0,.11,0,.27-.07.28.13s-.17.17-.29.17H7.8c-.1,0-.27.07-.27-.14S7.71.87,7.82.87Zm7.46,18.28H4.69c-.35,0-.48-.11-.48-.47q0-6.07,0-12.15c0-.26.07-.32.33-.32H15.42c.27,0,.32.08.32.33q0,3,0,6.09c0,2,0,4,0,6C15.75,19,15.63,19.15,15.28,19.15ZM16.4,5.33H3.59c-.3,0-.39-.13-.39-.4q0-1.25,0-2.49c0-.31.11-.41.42-.41H16.29c.48,0,.48,0,.48.49,0,.81,0,1.62,0,2.42C16.77,5.23,16.67,5.34,16.4,5.33Z"/><path class="cls-1" d="M13.51,6.88a.39.39,0,0,0-.43-.32.4.4,0,0,0-.43.34,2,2,0,0,0,0,.34V17.5c0,.53.13.74.45.74s.45-.22.45-.76V7.31C13.53,7.15,13.53,7,13.51,6.88Z"/><path class="cls-1" d="M7.34,12.4V7a.4.4,0,0,0-.42-.43A.42.42,0,0,0,6.45,7a1.13,1.13,0,0,0,0,.26V17.55a1.25,1.25,0,0,0,0,.34.42.42,0,0,0,.48.32.4.4,0,0,0,.39-.37,1.93,1.93,0,0,0,0-.34Z"/><path class="cls-1" d="M10.19,6.6a.43.43,0,0,0-.46,0c-.2.13-.19.33-.19.53V17.67c0,.26.06.47.35.53s.54-.15.54-.56V7.05A.45.45,0,0,0,10.19,6.6Z"/></svg>