<svg xmlns="http://www.w3.org/2000/svg" viewBox="0 0 20 20">
<g>
	<path class="st0" d="M20,10c0-3.2,0-6.4,0-9.7C20,0.1,19.9,0,19.7,0C13.2,0,6.8,0,0.3,0C0.1,0,0,0.1,0,0.3c0,6.5,0,12.9,0,19.4
		C0,19.9,0.1,20,0.3,20c6.5,0,12.9,0,19.4,0c0.3,0,0.3-0.1,0.3-0.3C20,16.4,20,13.2,20,10z M19.1,19.4c-0.1,0-0.2,0-0.2,0
		c-6,0-12,0-17.9,0c-0.3,0-0.3-0.1-0.3-0.3c0-0.3,0-0.7,0-1c0-0.1,0-0.2,0.1-0.2c0.8-0.1,1.3-0.6,1.9-1.2c0,0,0,0,0.1,0
		c1.4,1.7,3.5,1.7,4.8,0c0.2,0.2,0.4,0.4,0.6,0.6c1.2,1,2.8,0.9,3.9-0.2c0.1-0.1,0.3-0.4,0.4-0.4c0.1,0,0.3,0.2,0.4,0.4
		c1.3,1.2,3,1.2,4.3-0.2c0.2-0.2,0.2-0.2,0.4,0c0.5,0.5,1.1,0.9,1.8,1c0.1,0,0.2,0.1,0.2,0.2c0,0.3,0,0.7,0,1
		C19.3,19.3,19.3,19.4,19.1,19.4z M19.3,16.7c0,0.4,0,0.4-0.4,0.2c-0.6-0.2-1-0.6-1.3-1c-0.4-0.6-0.6-0.6-1.1,0
		c-0.5,0.7-1,1.2-1.9,1.1c-0.8,0-1.4-0.4-1.9-1.1c-0.4-0.6-0.7-0.6-1.1,0c-0.4,0.6-0.9,1.1-1.7,1.1c-0.9,0.1-1.5-0.3-2-1
		c-0.1-0.1-0.2-0.2-0.2-0.4c-0.2-0.3-0.5-0.3-0.7,0C7,15.8,6.9,16,6.8,16.2c-0.9,1.2-2.4,1.3-3.4,0.1c-0.1-0.2-0.2-0.3-0.4-0.5
		c-0.2-0.3-0.5-0.3-0.8,0c-0.2,0.2-0.3,0.5-0.6,0.7c-0.3,0.3-0.6,0.4-0.9,0.6c-0.1,0-0.2,0-0.2-0.1c0-0.1,0-0.1,0-0.2
		c0-5.3,0-10.5,0-15.8c0-0.3,0.1-0.3,0.3-0.3c3,0,6,0,9.1,0c3,0,6,0,9,0c0.3,0,0.3,0,0.3,0.3C19.3,6.2,19.3,11.5,19.3,16.7z"/>
	<path class="st0" d="M11.3,5.6c-0.6-1-1.1-2-1.5-3.1c-0.1,0-0.1,0.1-0.1,0.2c-0.8,2-1.8,3.8-3.1,5.5c-0.7,0.9-0.9,1.9-0.8,3
		c0.3,1.6,1.2,2.7,2.7,3.2c1.6,0.5,3,0.1,4.1-1.1c1.3-1.4,1.4-3.4,0.3-5.1C12.4,7.3,11.8,6.5,11.3,5.6z M12.7,12
		c-0.6,1.2-1.6,1.8-2.8,1.8c-2.5,0.1-4.1-2.4-3.1-4.6C6.9,9,7,8.8,7.2,8.6c1-1.4,1.9-2.8,2.6-4.3c0,0,0-0.1,0.1-0.1
		c0.7,1.6,1.7,3.1,2.7,4.5C13.2,9.7,13.3,10.9,12.7,12z"/>
</g>
</svg>
