<svg xmlns="http://www.w3.org/2000/svg" viewBox="0 0 20 20">
<path d="M10,0c3.3,0,6.5,0,9.8,0C20,0,20,0,20,0.2c0,6.5,0,13,0,19.6c0,0.2,0,0.2-0.2,0.2c-6.5,0-13,0-19.6,0C0,20,0,19.9,0,19.8
	c0-6.5,0-13,0-19.6C0,0,0,0,0.2,0C3.5,0,6.7,0,10,0z M19.2,19.4c0.1,0,0.2,0,0.2-0.2c0-6.1,0-12.2,0-18.3c0-0.2,0-0.2-0.2-0.2
	c-6.1,0-12.2,0-18.3,0c-0.2,0-0.2,0-0.2,0.2c0,6.1,0,12.2,0,18.3c0,0.2,0,0.2,0.2,0.2c3,0,6.1,0,9.1,0S16.1,19.4,19.2,19.4z"/>
<path d="M10.3,14.3c0,1.4,0,2.9,0,4.3c0,0.1,0,0.2-0.2,0.2s-0.4,0.1-0.5,0s0-0.3,0-0.4c0-2.7,0-5.5,0-8.2c0-0.3-0.1-0.5-0.3-0.6
	C9.1,9.4,8.9,9.3,8.8,9.1C8.7,9,8.6,9,8.5,9.1C7.2,9.7,5.9,10.3,4.6,11c-0.1,0-0.3,0-0.4,0.1c-0.2,0.1-0.3,0-0.5,0
	c-0.1,0-0.1-0.1-0.1-0.2c0-0.2,0.1-0.3,0.3-0.4C5.1,10,6.2,9.4,7.4,8.8c0.2-0.1,0.4-0.2,0.7-0.3C8.3,8.4,8.5,8.3,8.5,8
	c0.1-0.6,0.4-1,0.9-1.2c0.2-0.1,0.2-0.2,0.2-0.4c0-1.5,0-3.1,0-4.6c0-0.1,0-0.1,0-0.2c0-0.2,0.2-0.4,0.3-0.3c0.1,0,0.3,0.2,0.3,0.4
	c0,0.1,0,0.2,0,0.3c0,1.4,0,2.8,0,4.2c0,0.1,0,0.1,0,0.2c0,0.2,0.1,0.4,0.3,0.5c0.6,0.2,0.9,0.7,0.9,1.3c0,0.2,0.1,0.3,0.3,0.4
	c1.1,0.5,2.1,1,3.2,1.5c0.4,0.2,0.7,0.3,1.1,0.5c0.2,0.1,0.2,0.2,0.3,0.4c0,0.1,0,0.1-0.1,0.2c-0.1,0.1-0.3,0.1-0.4,0
	c-0.2-0.1-0.4-0.2-0.7-0.3c-1.2-0.6-2.4-1.1-3.5-1.7c-0.1-0.1-0.2-0.1-0.4,0c-0.2,0.2-0.5,0.4-0.8,0.5c-0.1,0.1-0.1,0.1-0.1,0.3
	C10.3,11.4,10.3,12.8,10.3,14.3z M10.9,8.2c0-0.5-0.4-0.9-0.9-0.9S9.1,7.7,9.1,8.2S9.5,9.1,10,9.1C10.5,9.1,10.8,8.7,10.9,8.2z"/>
</svg>
