<?xml version="1.0" encoding="utf-8"?>
<!-- Generator: Adobe Illustrator 23.0.2, SVG Export Plug-In . SVG Version: 6.00 Build 0)  -->
<svg version="1.1" id="Layer_1" xmlns="http://www.w3.org/2000/svg" xmlns:xlink="http://www.w3.org/1999/xlink" x="0px" y="0px"
	 viewBox="0 0 20 20" style="enable-background:new 0 0 20 20;" xml:space="preserve">
<style type="text/css">
	.st0{fill:#004A86;}
	.st1{fill:#054C7E;}
	.st2{fill:#044C7E;}
	.st3{fill:#004C7E;}
</style>
<path class="st0" d="M10.3,14.8c0,1.6,0,3.3,0,4.9c0,0.2,0,0.2-0.2,0.2c-0.2,0-0.4,0.1-0.5,0c-0.1-0.1,0-0.3,0-0.5
	c0-3.1,0-6.2,0-9.3c0-0.3-0.1-0.5-0.4-0.6C9,9.4,8.8,9.2,8.6,9C8.5,8.9,8.4,8.9,8.2,8.9C6.8,9.6,5.3,10.3,3.8,11
	c-0.1,0.1-0.3,0.1-0.4,0.2c-0.2,0.1-0.3,0.1-0.5,0c-0.1,0-0.1-0.1-0.1-0.2c0-0.2,0.1-0.4,0.3-0.5c1.3-0.6,2.6-1.3,4-1.9
	c0.3-0.1,0.5-0.2,0.8-0.4C8.1,8.2,8.3,8,8.3,7.8c0.1-0.7,0.4-1.2,1-1.4c0.2-0.1,0.3-0.3,0.3-0.5c0-1.8,0-3.5,0-5.3
	c0-0.1,0-0.1,0-0.2C9.6,0.2,9.8,0,10,0c0.2,0,0.3,0.2,0.3,0.4c0,0.1,0,0.2,0,0.3c0,1.6,0,3.2,0,4.8c0,0.1,0,0.2,0,0.3
	c0,0.2,0.1,0.4,0.3,0.5c0.7,0.3,1,0.8,1,1.5c0,0.2,0.2,0.3,0.3,0.4c1.2,0.6,2.4,1.1,3.6,1.7c0.4,0.2,0.8,0.4,1.2,0.6
	c0.2,0.1,0.3,0.2,0.3,0.4c0,0.1,0,0.2-0.1,0.2c-0.2,0.1-0.3,0.1-0.5,0.1c-0.2-0.1-0.5-0.2-0.7-0.4c-1.3-0.6-2.7-1.3-4-1.9
	c-0.2-0.1-0.3-0.1-0.4,0c-0.3,0.2-0.6,0.4-0.9,0.6c-0.1,0.1-0.1,0.2-0.1,0.3C10.4,11.6,10.3,13.2,10.3,14.8z M11,7.9
	c0-0.5-0.4-1-1-1c-0.5,0-1,0.5-1,1c0,0.5,0.5,1,1,1C10.5,8.9,10.9,8.5,11,7.9z"/>
</svg>
